<mxfile host="app.diagrams.net" modified="2022-01-28T03:28:14.395Z" agent="5.0 (Windows NT 10.0; Win64; x64) AppleWebKit/537.36 (KHTML, like Gecko) Chrome/97.0.4692.99 Safari/537.36" etag="RsZFvHc3z5lEpE0YQrVT" version="16.4.11" type="github">
  <diagram id="kwU1YeQqBs1jz23uGjtF" name="ページ1">
    <mxGraphModel dx="1929" dy="873" grid="1" gridSize="10" guides="1" tooltips="1" connect="1" arrows="1" fold="1" page="1" pageScale="1" pageWidth="4681" pageHeight="3300" math="0" shadow="0">
      <root>
        <mxCell id="0" />
        <mxCell id="1" parent="0" />
        <mxCell id="ooqM9sPuauhWhxl2Y_vB-14" value="AWS Cloud" style="swimlane;align=left;startSize=40;swimlaneLine=0;spacingRight=0;spacing=0;spacingLeft=50;fontSize=20;labelBackgroundColor=none;fillColor=none;" parent="1" vertex="1">
          <mxGeometry x="400" y="480" width="1800" height="1000" as="geometry" />
        </mxCell>
        <mxCell id="ooqM9sPuauhWhxl2Y_vB-2" value="" style="shape=image;verticalLabelPosition=bottom;labelBackgroundColor=#ffffff;verticalAlign=top;aspect=fixed;imageAspect=0;image=data:image/png,iVBORw0KGgoAAAANSUhEUgAAACgAAAAoCAYAAACM/rhtAAACrklEQVRYCe2WwUvUQRTH/WO6dRA6CEGYYAQrBB5iL+plvVSH8iB2CA+BEBgdyoN2iL2IhwVBCQoigsSD0kE8GEEkCIWgdKgudnryGfz+GIbfb3bXiVpoHsy++c3Me/Od73vzZvum7j+0scl7PdnMzPqGanW70D/Yky0DTI1MZjAzmMpAqn3OwcxgKgOp9m1zcGzyrn389Jl1Tk5Oftvjp8/ds4j++u3QLg+PFs8ka2kCdnHgmn3ZP7ClF8tGf6W1JldOr66/KtbKxtcsir7FM7OPbHbuiQG0cWfa3rzbcI7pM4awBqc36g33zQ99xrSG9c8Wm26ePydXa3U3h28fUNjHIAowNLg+Ou42YTPmfvz8ZWKBzWCUJtCsg3XYay63XP/SlZEoKH/PjgACinCymVgQQMABCKf0/cbYzu6evXz91s3D6tHxd3coQg27PpiyfluAOjWbAIpvRABvTz1w34RMzMEefZhCCKk2Z4zDkpeIwGs+1KypDDFhITy+E8YQkh5nWiNmAUpD5uYXivCGG/MtG+Vr2Rr8VALEgJBsfdgpwOgW+qC5OOSiQo0dfWzfb24X7BFSwAuIouGPaU66LUASHxYlMAc4v5QQUkSXBef0EV0WxnQ4N3H2o5IlQKFmWZRBDAgjp+/m9oUb6Ru28BWyqflQdwQwNPqb3/8MIKEnt2nkcFUeRgGSxLEbdl4meRoVZpWpqn2iAMk5TscpearOC6jKjgcA5vTSlK2LApSB6hllI5VVmMMHZYhKwC3mW3uFuiOAGBEWHKnkoGGWskM+KWS+JnwUYxqliVqJcFD9SUBTJUJg+u4YoAwAyql5Y7sVQPrPnnzGdNcAfWfkqFiCSd1KacZIj5sTtyoZ8v2V9ZMAljn802MZYCqjmcHMYCoDqfY5B/8PBolzL8spxbD/ZHxUeXIAAAAASUVORK5CYII=;" parent="ooqM9sPuauhWhxl2Y_vB-14" vertex="1">
          <mxGeometry width="40" height="40" as="geometry" />
        </mxCell>
        <mxCell id="7oCYW-wZGabHslEQ7wRl-122" style="edgeStyle=orthogonalEdgeStyle;rounded=0;orthogonalLoop=1;jettySize=auto;html=1;exitX=0.5;exitY=0;exitDx=0;exitDy=0;entryX=0.5;entryY=0;entryDx=0;entryDy=0;fontSize=16;fontColor=#FF9933;endArrow=classic;endFill=1;strokeColor=#000000;" edge="1" parent="ooqM9sPuauhWhxl2Y_vB-14" source="ooqM9sPuauhWhxl2Y_vB-52" target="ooqM9sPuauhWhxl2Y_vB-61">
          <mxGeometry relative="1" as="geometry">
            <Array as="points">
              <mxPoint x="320" y="80" />
              <mxPoint x="640" y="80" />
            </Array>
          </mxGeometry>
        </mxCell>
        <mxCell id="ooqM9sPuauhWhxl2Y_vB-52" value="API Gateway" style="swimlane;labelBackgroundColor=none;fontSize=16;align=center;verticalAlign=middle;flipV=1;startSize=40;fillColor=none;strokeColor=none;" parent="ooqM9sPuauhWhxl2Y_vB-14" vertex="1">
          <mxGeometry x="280" y="120" width="80" height="120" as="geometry" />
        </mxCell>
        <mxCell id="7oCYW-wZGabHslEQ7wRl-76" value="" style="shape=image;verticalLabelPosition=bottom;labelBackgroundColor=default;verticalAlign=top;aspect=fixed;imageAspect=0;image=data:image/png,iVBORw0KGgoAAAANSUhEUgAAAH0AAAB9CAYAAACPgGwlAAAAAXNSR0IArs4c6QAAAARnQU1BAACxjwv8YQUAAAAJcEhZcwAAFxEAABcRAcom8z8AAC97SURBVHhe7d0HlFXluTfws9a933dzjdE0e6+xxG6KSUw0ubkxJrFgx4YIghQRBBQ1BhsqptxojC1GY2I0zZViYpeiqAjDMDDD9MYMwxQ6AkPz+f7P2/bzvvvdpwwQyf3Yaz3rzJxzZtaB3/m/+3nfvfeZXM1nR5Cukapqj7F1HdUdq6te1SiqP05XA9fx16tqtHXC9dR0wmhdJ46m5hPH6DpJV8tJN7hqPdnWWFr4OVvjqI3r80m1f2G8qkVcX7xRVYetU7huosVcX7I1gTq5vsx1M3WZ6v6KrVuo+9RbqEfVraqWfDWppV/7vqtlXKfdpmo51+k/ULWC6+u6Vn59oq5vTKRV37hd13/pWq3qDlXvf9PWnbTmv23dRWu/5de6M+521fttrkm03taZXPfQBq7v6Nr4nXt1ffde2qTqPtr0vftos6vJtPmsyfSBKDr7fspVHz2CuBy+Q9dVF+JLeIMv4RstfAS/xeI7dA2fwo/AR/EV/I0a3uArdAPfpcrgS3iUhkcJdAUv8FPwUXwDnw/foWt4H//OBP6MAF7hT0rwFfwkDW/wN1p8oMfxA/izJzP6cIXuwWckXsMniVf4wPbgURI9X+rj8MDOl/gofILuwaMy4QGepP6WAD6eeIV/uoZX6KYkuoY3+BI+SHw69Qm+h67gNb6EV6kPE49K0HGbAe+hJ/DZQ72GL5T40UniFbxBd4k3Q32YeJd2P/Htnwc6l8U36FH4SOJ16iNDvUx8KUO9whfwcrh38Eni3VAP8CT1gBdp9xKv4AW+Qc+feAOfmXiNr9AXHDWcFih4jZ+kfYRA15Ua6gvs513iDb4PX3ioz0q8S72EV/g3BakvLvEO/qulJ97HN4k3+DLxGh7l0E1J9GA/b9Fd6kvYzzv0yFCv0fPApxLvwQfoBp7B1a3cx0eGepd4lIRP0p4NX3CoD+GDxGfCh4nPgA8Tr27lPj4z8VwS3k+8RNfwwXAP7EKJ3+AlXqPLxAN9mEZ38OFQjxJpjyY+Az411Bv8ohIv4P3mLkl7NPElN3d6mPeGeoGu4ZPhvnBzNzGS+Ai8THtqH79tm7tc1ZECPUi8n3oJn6CHiVf4NumiJHoIL1PvwbvUA7uviVdp39HcafR7E/QqpJ0rf+J3NHcWPV/iHfx23NzlKhndwGclPkn7CIGua0dzl068j28Sb/C3h+YuQTeV3sen4Xc0d8UlXt1uh81drvKIa6nyyGsT+GjidzR3/5uau9x8Rlfww1QliQ/hE/zMxBv0MPEK3yZdlEQP4WXqPXiXemD3NfEq7f//NncJeiTxO5q7JPUu8f/izR1Xbv5nhpIPn6R9R3PnJ97B/4s3dw49Ex61o7mLwP8LN3e5eYxuy4Pf0dz58HqY94Z6ga7hk+F+e27uUuhh4reL5g7gzXySxhHDqfmz1+UZ6oHd18SrtJfa3N1KPV+4kXpOGkdL8NiSr2Xv4xX+dtHcGXRbcfgPubnDfQ2HDAX6aOq48qfUdsbtcfiMxG+z5o7hAb703Pto+dBHaQl/f/wY4N+SCR8O9TrxuvIP9Vu3uctVHD6E5nFJeIMvEy/hsxKfpH2EQNdVUnPH+3h+/OAh1AjgzuufoN65zcTbpq4V1HbmnQUSv+2buy68kZb0m0ybu1eq17VxfiutnPAb6jllAvUcf4OHv701dwl6CA/sTHjUtmruGvg5Bw2mBvxs5+gnaF15k/pPlVv3+F9R46FDP9TmrvPY0bTylmfMK0o2xl918zO05Es3K/ylBn97au4Uuq3Cid+GzR2/QQ4cTPW4XTzml7Rubhrbbl3jnjToH15zx+grkOysbUPlQlp1629pCZ67xOAvOy0O7xIP8H9Gc5ebe9g1PrqBl+hh4rdmc1fHzztgkMa+AdgVehgPtw96N5ivgD5Wo6sGz8IHiU9SD+y+Jl6lPd7cLQ7QP1i/0XzlbxurFtLq255V6EtOuIGWKfz0UO+GeZRED4d6uZ/Phmf0jOYOw7xGPwzoXALdS3wKfsubu9qj8Pj+Vyv0Dsae12L+m/zt/VfnUtvF91OveDN03fCkbu7CeXyRid8azd3iY66nFTf92rwiJBu4y676GfVOmW/u8beNC9po9Q+eo6Vo+BQ+Ov8w8Q5+Gzd3ubmHXkMMLxMf4seH+iTtpTR3Nfz4fgOplrGR2HWVrea/xd9Wv1JObZf9mOrQzNXhzdGLfaXdNPqQ4ubxLvFbt7kL0TfWtFPX0aOoCx388sEPU+8bGfg1i2j17b+jZTynP2Fsgv9PbO58dJN2hx7CAzsTHpWvuas+As/Z9yqqYWzsk9ctWGj+G/xt9ctzqK3/j6gOqFzc2DVgVOgVb44ujAyM/mGu3DH68hAdU7huPNaFJHcDdPngn1Pv6/PMM/xtY10HvX/H71WDZ/ElurrdRs1drpzRBfxcAV9c4rObO0Zf8Bk8Z58BCn/R+Kfi2B8QrXqpjFoxjNccfA3VorjJUx09N3sBeifQ6xndzOWLSryA3xrNXUeIXq3Ru/CYXrnD1O5E4KOWDwL+a8D/AP/QYNvE+Hf9UaWd8ZcH+NuiuQP6YHLwMvUS3cBL9DDxLvUGvupwPG/vKxV8x02/Anab+WeKDf8JK18E9oWTqQbTNAavwy7AW7lD0uvx+1LoGPZTK3cGXqbeg3epB3ZfE6/SjmH/s6NS6J2ft+hiAUfhj0XygT/wIeBXEG1O42+sX0zvT/qT2r8vw/MZ3+3fcSvRw6Fe7uez4Rld4xt0XamhvqTmTqNX4mfm7XWlgm9n7OoINv7RK1+YRS3n30sL0LlXA7wWjZ7s6t10jtGPjKFf46/cWXSXeDPUF5n4Upu7EH2DQh8v0A08Sq3T89cnjdPD/kA0fK/MjeJvagD+Pc/TcmAvPXGcxjeN3dZq7nJzDgE4l0y8gZeJD/FjQ30Fkl0F7EUTgF3bbv4ZYsM/csVfZ1LzefdQFZqzBQcOcg2erdQ8nr8Humz4OjGPr2P04z+8w7KLGP3GCPopZi4v4RldFvB7kOYV3O2/VB7Hb+qkNfcy/kRadvL4PEN9kvj4UI+S6Ei8QvfhI4mX6CE8sPl23kGDaOGox6i3vsO8bLFt3kwr/vwuNZ07iSrRuVdxujHsJ529P52T8OprRhfdOy/e1B10jV62/ZAOyy5Cp77sxqfNK0rQO/GYXcDJhOejckhwz8nAx7C/YgDwX5wTx2/ppvcn/p6W4/e54V6gxxPPJeH9xAN9ENC5EvRSm7uK/QdS3XfvMC8z2T7YtImWP/8ONZ59F81H5155ANKtGrxwHo8SafcSz19jtyGTrtEHxw/SGPyiEi/gS23uFh19XQp98ecserJyp+H1MO+Gegsv8Jdw8gc8SL3/KMMOfpP5rcm2Cv3A8i9O2CrNXa7s4AQ9OtTL1Et0A8/oc7EPbxr4U/PygL1hIy3/8ztUjzfCPHTu8/GmWAA429WXtHLH92G65yf9Carl9XmLbkqih/Ay9R68Sz2wS0h8exR9nELn7r7wYVld8nj8EgzjCv+KB3Ty8f9ot9XjnqZleFMpdFMSPRzq5X5ewjv0BD5MfHHN3Vzsy5uu/Il5eUS92B/NA3QFwOV0rk8rd1noBwKdp3QSHuD+UG/QXeLNUF9k4vM1d+1HxdEX4zG1gGNW7ix8tLlTJdBRfAbOEj4+D+BNrd3mtwN9zFMK3U3luPrY3AH9aoVeJtCjiTfwMvEWv5yTfoVAb+zU+3s81teVO1f8fYDeMVqjqwM1Bl7iu8QbfB8+Y6h3iS+uuVPo4330DgzTjF7osKxNvIMPzrlTh2VxG6IvxUiwNVbucrMtupf40pq78r2uAPqPzcvTSVcNHp4np3O2Sjosy/fjd4ToNRJdJF7d/hOau7ajRtLS8b8yryhE57m8gQ8Sn93V++h8K9FXjXlSowdr9eq2xOYuN/ugq4nLwbvEa3yLnq+5K4iu4Pt2WJaXbWs+E0Mf5BZwQvjUUG/wi0q8gM/X3MXRx9LiL5jVO7NyZ+FLau7yoIcHaVziAV5sc+fQOfGzCybewMvUA33OnldQY4jO+3ughws4MvVp+ATfwUfRf6EPx6qVO7OIY9A9eJRED+Fl6j14l3pgZyS+7cgRKfRFJ42lDoHuwaOKbe568LhCx3TNbgod+3pGt1XqYVmb9gTdlEu8gw8Tnx7qFfrlPrpq8vA8lXgPvsTDsri/+nAfvX3IQ1S16yUKXhU6ebVWb9DrDhuq5vG8asfLtfWHXZvA47YR3/PxeK4mfN2M1LYAWaGfgDfD4cNUtXyGazi1Hnc9tTE0F94wC48YQS17D6SeEY+ZV8TobUC/Aejj1TzertyFiS+quWN03Hroo59UDd7WOOcuN+vAgTTroIEJvNrHG3yBHk28gZ+z5+XZ6NzQcXnwSdoLNncKfSjQk+Pty56eQotGPkaLb/yVLszbG04eQ/XYHfAK3qLBD1HnTU+r6prwNHUMe4QaMRJwNX9+LHWi+++++deuOgb8lJoxarTgDdN2OubNuK/nlt/QEq5bn6GO8yfTwuNH00K8ITrOupuW8hkxNzxJq5+Zbl5RgI79ul25S1JfXOItOt9K9JUGfWucc6fRo/CFhvok8WVAbwjRAVWBx+1cPp14AY/Kau6qI+ip7QOixq9OoDrsBnj1rrfKP5K3oaWLGo4eSQ0YkltOnUCb1/SaR/TGJ2o08lE7PN7RP/l32G3Fz/5OLYcMpVYkf8kPnjX3+hujtwN9Efb9cuVOJr7o5i4DvedEjb6l59wl6CE8ysG7xGt8i24TX7YHo//IvDyNXqHQB7u5fDzxRTR3fH8h9E2bgX4T1Rp0uXrH23q8ngb8Lj4u38zoq9eaR/T2/ivl1MhH7TBsd/RP/h12W/7gCwq9BUP+ktvyoJ+o0e0CjoZPH5a18JnNHR6Po4/dKhdU5N474KoEPYQvsrkr2+OyCDo6ezxHrtxlJT5fc6dW8rCPlujr0dWuLW9Sp1gx8Jp3a6nhlPFqPl+Hn1vx+7dU2vln+HbVX99TJ15y2pu+dCOtmV6l7uezcXoXLKRlD79IjQBtwuPt50zC/frn1uN3r1/Qpob65iOGUwveNN3DH1P39Va00MaFPeYVJejtaPbsAk4q8SrtRTR3uJ/xffRfKnRu8Lbkalke5hX6e8DmsvAy7Vwu8Q7eT/xsRr8sjT5XoHuJT8Hnae4U+hAPvX3Eo1S1xxWqq+c5fA1j22VbLvycKqSeT8Co55Sbbp5LvQFQjUBuxG0T9ueuo+cO/xh8z/fxfh59QCsec9M57vSxf2/ByNCDqaPd+I3ATZ5Ej8JHEp9q7hT6zT769b9Ux+XVlE6kPV/iHbxs7lC5mYxuKl/i8zV3jF6fga4Sz/ACPz7UJ2kP0atC9Oseo6p99KlXvHijCk2cd5AGmOpYPL53Z+EwOMObpq4RXTkXX0XjTefQ4bdw4WuuVjelM9M5fN9y2DDqQTNnN4WORq8dUzye0oVr9Rq/yOYOj4foKxj9hBscerGJ9/Ej6DLtcfj4UD979zS66uwPDtBDeGBnwqNUc8dfHzqE1kr0UY9T1X4DdXcP3GTZlsENvMLW8/fYAo663YKVO57K9Yx9yryiDPQQvtjmDo/xbQx9a1wtm5u5/1VUNDzKwbvED6JZjH7pD83Lk+iDcJus3BWX+GCox31V6Buy0VEOXZcPLxZvAnhVPG+38Abfh4+v3DWjkw/ReUrXhjeEXcCJJr6Y5i4DnU+4VFM6ga7hk+G+mOYu9+7+AxS6B4/KhI80d7N2vxRJD9ABVa7Q9bQulniJHibepZ6/j6BX7ntVMpePJd6gh4lX+DbpoiR6CB9buePFm56x/vDOc/k2vCHkyl3BxKu0+81d5xf1MfkU+vE3eCt3Pnzhod4O8xrdloQHdrHN3azdLqW6IOnc1ZcfJNA58Sb1Mu0OPwVvEh9Bb7suQU/gt/LVshbdJd4M9QK9Ox96nsOyWUN9gq4Pz24U6MtHPaHOqeeu3qKnhnqDXijxCt2WHeolfr7E2+buvSg6mjxGB5iFl4kP8eNDPRKPDr3yEKCLK2Da0MjxmTgFD8uiUkN9uJ8HuMR3iTf4Pnwy1Cv0oJHjrn6hQQ/X6l3qJbzCjzR3BdC9dfo+fBRK7t39JHoCLxOfHz4bfQ6ew7cSPjwsm4IHtgefhb7PgPSSrSsJD3APXqDzffj9fMvgCr/I5o7X7KPoeKwv59zJxNsTMUL0zuMY3SziSPgSm7vcO/tdST480Ets7t7brX8KfY5AD9fqS2ru+GvMEKLoPKWzK3feUI8SaY8nXh+gaT1nkrqKRp1+hTeCRS/U3EXRMf1j9EKHZePworn7AqPfFEX3Vu7kUC/QNXwy3IeJV+ghvMIHtgePyoKf+WlGv9+8PKA3LtbTuQOBjlsPXqZeoht4ia6Kv8bUT6IvlOgOPsFXh2NjiTfoXLWHDqXWfveoq035Gvju25+jRuA2YCRIDfWRxPORuhg6z+kLHZYtmHhzeNZDv+4XtPi40XpKp+CTxJfa3Dn0dOJNSXhgx5q7mZ++hGr7J+jrDHoZnqMWcBS6rtRQX6i5OxzfR9D5hEtvEcegq3n9/gOpmlfrgJ0FX40p39LHXja/kWjDoqV6/47ncMp5xa7+0CFqEceiy+au8bCh6po6uzF6i0Ifs8UXVPCRuhB9mURHafQk9S7xRTR3ubf3vYLe2TcOr/F14iV+mPg4Ojp7g67gw8QbeJn4EF/B8/ch+kig780XVvjoVYBg9M67fkd1p4yjBegFwmFeFS/PYhjf0Jasnff86M9Ue8AgBV+POXjTV26innv+qND5DaDQxVDPx+K7xkTQ8ZhbuTPwxZxz5+C5cB/jp9CPZXSxchck3sEXaO4S9Az4Ypq7dz+VRlfTOYWerNzFDsu6xEt0Cc9fYxawdl5yffrCkY9qdE41SoMPUefVL3t2mnrO+zMWUO3nxlA1RotwqK8GbvuwR9TzeNu8bj01f+sHqqnjdfrGL46jNTOq1WMr/zBDnYTh4E1F0bFr0Oh6ASdJezZ8dKjHaMCpj6GHa/WZ8HmaO4WuKx880PPAM3pN/8nm5SXosw8Y6K3c+UM9wL3EJ/Be4vl+hS6T/ihV7JWgV2IYns/D9TMa3G5LnnhFDfVuHw9wvuXr51a9WGaeRbT6tQp39g03dMueeNU8orcVv3tLwauDM2Y/3xBBVwdoHLqG78sFFYvwOONL9KUjf0Edx16v5/EKPYTXw7w31At0Da+H+9yMfSx6/sQrfGB78CiF/smLqeYSH12t3OFxlXhUPPEGXqZeonM5dD/pjF6J4Z0XbubtdxUt/c0U86je1syup9ovjVfH4mVXX41dQMPpt3gnUiwa9TjZc+746FzTqRNo7ewG86jeVj73JuCHqk+7UuiHDMlE5ymdB+9SD+xiEu/Qu8xvN+jHGHRT+Yb6zObOoduyiTfo6cSbkvBAf6cI9AQ+THz+5q6C70OzKNFbGR3D+3wG33cALXn6DfOI3taUNVD18aOo8sBBVM3QQLfwVWgAuyb9wTwTDVzHMqo/abTaz3ODx/P3Wn5jnDyG1pY1mmfpbcVvp6G50/CMzqdd2Y2PyzejCVRH6IBe7Fm20eYOj/Otj/44LQK6t3IXDPXFNndAv5wYXiY+31Cv8XXiLX4UnTt7PE+u3BV7zp1MPJ9yVYGpX4hevttlVMHgT71u7tXbGky/FDhfNwdobzqHXUF46tXSJ1+jBfsOdF29gwduw+duSH2k2QrsQjjxdQcMTqE3OfRk5S6e+PzNHR+p49RH0XlKZ1fuiki8gxfNXW7G3oyehs831IfNXRb6LEZnfIvuJb7I5o7vA/oaiT78EZqz68XU/ehL5h69rZnTSAtOGKWvnQO0P51Ds4fkt1yUvE6+SpSvka8++Bo0eAAXUzoNP0TBry33E78cb5S6va+izut/Ye7x0b21+mCoT9KeB96iN4foozR6CB8kvlBzl3sL6FwaHuXSnj/xsrl7+xMXUc3FPvoshT7AzeW5HLxLvMa36LHmTn0fJL150INUdeL15ju9rV/YQ1XHjMD8/SpM5QAsp3MGvnLvAbTs18m+fy3eJLyPVydjmM4+BY83RAO69Q3i1CjemjGl47Ns7cbojfjZpuPNIo6Cz0i8gI82d3gO30r0JUBv/+wo1dVLeDnUF9vcAf0yjd6HxCt8g1598X3m5Rl07Ovfw+PhWn3JF1Tw/ZgFyKQ3D32I5qJ5W1e7yNyD0KIx67j9WarY8wq1dOumcwa9CqNGDfbdG7tWmJ8gWjzxWX0GjpjOeSt3uL9m/6up687f0ea1SeO3vqFDzeUXj0zOe+dz6lR3j3m+XcBheJl6D96lHthB4vlIHe/nPfQRCbpbuVNp9w/LZg71LvUCXZVNO6Pbsok36OnED8hGx/P4VqadyyXewYeJF0N9BL1lxCNUtsuFVH3aBJVwuXXc/Xuq2ONydaBGwfOJGECfv/cAah+TDMebVq2l+lNvUuffMXoIzxdOVu97FXXf80fzE3rb0L6EWs6YSDV7XkmLxTlyEn1Lr5bV6OPi6GjwPPhI4gs1d7k397qMuAolPt9QP+PjaXS1ZGvQVaWOzhXZ3MXQsU8vR6LLgVt92s20Xqys8daBZFbszvAm8byci/386qnJZ7ut+MtMqkIDJ6dzDp0bQIB34Q0kN16qbf727Wouzx9/sni02KcbdHXOHfbrduUugc8Y6l3ixT4ej/Gtj/4YtR19nerqFbzC79sFFSn0vgz1Mz6O1IXo3ORJ9Ch8oaHefB1BnwNwXrxh+JqvAx4JlFvHHc/pBRwG54sd//s22tybXOTfevUD6qNQJLqukerDDTvxxpHbxg4Nbi+cZPjFspEDOp9iLdHT8CbxKAmfpN3A4/EQnS+hsugOPpL4Ypo7h65KDvUOHuXSHk88oy+IoM/E88IlWw8e5eBd4jV+go7v0TCuER8T2jL8YZqzO6Zs2E87+G/copIoN4bnhRse7rt+8hdzL4CaOnV3j12AncNbfP7woxT44mXUfOYdegEH4PnR+fCsXrUrKfEC3h6Tj6KjwUvDl9bc5abveWmCjnqLq8Tm7q1dgX6Rj67m8YzOiUdlwhdo7ubwfQF6M9DLLLqE/69baT0Sydvm3g3UOuxhNZfnYb63Pmn6uh/4G83HKGC7enlYdgGG7TaMJB+s0x9AzOBNZ96uP8cWoKqrP3aUuj6+I4U+QqMXOCwrU+/B29Qr9LE++vDHaOFRI/2VOw9epj27ueO0K/QQ3ku8TTuj27KJ99DvNS8vQX9XoKt9vICXaedyiXfwBj8fuli5s/C1Z05U59O1cIeP/Tp/BEqz+JQM/jyc+m9PpMqDBnnTOZn2SnT0bXjDrK1speZzJtECgNfajt4UD/MhurqowqB7J2IoeIPuEm+G+lji8RzG3xBBt3N5ix6FjyReDvW5aQZ9ukQ3VWxz99auF6TRAfXuPlfqxFt4VL7ER5s7/h5DdBr9UtXdqwUcUww/F/v/+UcPU6t484/A92j4lv3pbfOTRKvfrKL5eE7Vkdcm6EHi1TDPXf3xozCPH6LAbZNn5/FR9KOAjlGgL+fcefAR9O7hj3roCl7gK3iFX7i5S9BNxdALDfVv7nIBVQXoqrPH8+TKnU18fvgg8TwKhOhIYdluBt2k3SZefY03C181y4dkF3xxLG1a8b75SaK2sb+keXtdIebx/jF5OdTzhxjb5s519oyO4sOzHaMeN79VouvTsBhc3fblggpGB36I3orfzw2ehx7CF9Hc5abt0Z88eIGuqojmTqFfmAe9FHhGtvBAL1PoA1Losw26rgTe4tvhnuftdtvYs5IWnDSa5h9yjUOPrdw5dJN6VQ5dVwydj9Cpc+8wxMu0e0O9wc+beNzPtyn0IzV6yefcBUO9RjfwEl/CF2ru3tzl/DQ6oN7B43YuHw7zXJnwsrnj7wP0JosuV+7EUK/Q+WsM8fXnTqJlf5yhFmOWPjcdwz3m75jGeRdUoNLwCb6DF4nnxo4PydpNofMZORgFuLtndA8eJdFDeC/1J0TQh0l0XUUnXqU9gc9Ntehh4gP4fM3ddIV+j3l5RGuB/g6j7y3QbUl4YBds7vhrdOA++s9p9qf7qymdh86JN6lX8LxP338glQO65rSbqfrL49XhWHd6db6rZaOJT1buuLmLo4/U6LYkPMCLau7wOJ9gGaK3AL3gYdkseJF4oF9CmfAS3VQs8dM/dj5VptDR5OE5cuVO4+vES/y8iec3A/qGEH2WQc97WFbhY9+O4tTPw5vInmWbwCdpjw/1Gj9J+4hMdHVMntHRzNn5vIWX+C7xBt+HRx2vj8lL9C5GP4LR8x+WTSVe4fvNXW7q7hq92MTHmrsUekOHavDexuOML+HDw7I28Znw/L1CT45rN11r0HkubxZxUol36Kawj+eSp1dH4VHFfM5diL5OoQ/Tl0iH6AaewdVtgeauWaGPCdAfAfpwPY/PA19wqEflpjC6qjzwAl1V0NxNY/QLJPpiehvYFj0ND/Ri4flrTP1k0hsNurdyl0p8Au/wJbzBT+D9oT6deH+o56XaRdclR9kUOn84AtD1Ao7et8fgU0O9wXfweDyFfu0j6tMwCh6WlfgpeN3c5absZtHjiZf4El42d9N2Pi9A79CdPZ4jV+5SQz2wPXhUCD8Lc2pGf18kndHf+9Qleh7P8A7fwMvUS3QDL9HDxBfb3PGl0vzhCHZbV9WqPhFD/rECmXiFD0wPHiXRHTzu59sUOn+8mVy5Y/Q+JF6hc9pd4iPwLvEBvE08o8+/YJJ5eQn6DDyn0GHZQs3dLL4PfUMcPVnESRJfoLkDtpf4FHxxzV0KvRLon7lWHZK16CUnXsGPoabj0uidDp2ndcFavYAvprnLvbHbxaTgDX5BeIluampedJ7WATxf4vM1d/w9ZgE++kM085OX+Ct3scQbeJn4ED8+1Cdpz2ru+AhdFB1vCG700tfOicQbeInvEs8VRX9YfRCCRjfwLvGlNXcG3cD3MfFTd+6XQlfz+D0temnn3NnEe+jiz3A2DjXoZi4fh9+2zR1fH98uzpxhdL6UyqKnzrkrpbkzh2dD9KbDh6muXsInaS++ucu98emLKYFHSfgim7upHwX6+Wn0t/C8vpxzJ+H5lKuZQdIbFPrFDj3zsGwq8Ql8cYnPbu4YvS2CLs+3iyY+A14O9er6uRB9aIKe97CsB5+kXSY+97pB9xKP0ujxxEt8Rp8SRUdnz+iceFQxiVf4wPbg+b69LvfQ6678Cc3497No5m791bXx7+1+GfCvduiz8SbhDz/iT72avcflNGfvKzU6kPlNwN/P2esK9enVXOogDZC51MUV+wxQh2R1XaWXbQGtCnN+Htordr2YWgc/aF6RQcdj/LGmqbV6gx4mXuHbpMvCcxR6U4K+GOiNh1/rLeJ48C71wM6XeIduS8LLxEfgXeJRjD4vQOdVu7f2YHS9gJN1WDadeFN50Nt/+DxVnTmRai68l2ovuo9qzruH5gC07MCr1QreAjxW1/9+qrt4MtXjtuasO/WwjzdFBRJbf9Fkauj/Q9T96jNta791mz5IgzdE1ckYXnFf06U/UtWMN1jt1yaoPz1WyWfOfnk8teC+xn6TqOt/khMzGF1dTWPQ88MXSDzQebjf0NRpfnscvdjEh80d0C8iXQm8xteJLwZ+yk6Mfrd5eQYdXf2bjI5bCy8TX3Rzx/czep4/rc0nTMw9cRTN4oQjne/P8S9JWlvbTnOQ5jmY+lWdeiN/lKy3Lf/be+pMHPW59QP+x9ybbJ2T/6TOueO/N9c2LrkmXW4+erJyJ6vo5g6PMX4K/TCg85ROwRv8EN4lPnsfn3v9Uxb9oj4n/o2dzqV554Xo2N/jOYyf77Bs9j7ewBeBzidGJOiY0wcXJ6yrX6ROxCgz6OG2/AWgYzfBJ1tG0e9/nubySRtAby8BXZeEB7gHH6BbeDyHbz30IQ9TA0Yahe7gTeJREj5Jexw+9xqj54VHSfhIcxdD5zm8Rbel4VEu7fkTr9FxH2YBEn3jklXU29pNvW1LaD1qbXUblR83Ui3izELSlwGRT5S0teL1CirDqFGGxypPGUvr8J/pHl+0hLqfeIX448vL8fMNGPrlz/J5d+23/FqdjMH7+tZrf67u4zNwNy5dZV6RRufLpfn6eDuXd/Ai7dHEh/B4PEx6x5CfK/RwyTYz8QI+bO6AfiGF8KU2d4xeEaKjwZuON0hfzrnzhnq+L0BvGPEIzQRS2RHYjx8xVN2qgzNmvX4O7is/6lpdRw+jcnTh3OSp/To3dJhyzfvscKpAzTtmhNrPuwUc/Oz8Y0eqqkRVHXcdVeL589GZq44eX1fxpVMHD6Y2cQq0j54s4mQm3qCHiVfFScctf3q13RT6oRo9hJep9+Bd6oEt4B26D2/S7iU+e6h//T/PyURX0zqDrsqmndFt2cQbdA+e7w/Q6wY9QDM+ep4+8dKUO0DDhRFCVhnvzwFu5/FzMBXkKkfjV47n84ccuqkcz+n5e/6IUzxXNXjAdFM5ntbxNBDDPafebhI9tlZfSnPHh2dj6HzFrJrHm5U7P/FmqC8i8blXPwl0rhS8wHep14kP4RV6v7vMy9PoPI936KYKJT461PP3AXr9kJ/R27teqLp7t3LHFRyW3aKrZTn1XBnzeL5UeiFGHLsxOn84woIjzHxewWv8JO0jBLquaHOHNwfjZ6LbKnaod4nX+3iFnsBr/FKbu9di6Nzk4bkx9FKG+nf4fswCvKRfk6BnHp1z8GYBBxWH79vKHTd1rQKdz5zlD0jgiyvcIk4GfKHmTh2eDdAXXQP0Q4b4K3eRod4lHiXhk7SPZfQLFHq+xKfhUQL+tY+cQ3Mj6NOAXuiwrIZHubRzCXh+Q4ToQx6kGRa9EDzKwbvEa/wtWbmbi+kdXzJtN530AN3Bh0M9SqQ9TLw+Jn9dgP4Q1TE6T+kA7uANflGJt+ivfCJBz5f4fM3dax85O4XOXb1C58SjJHxJzZ1BX+0lndEv8FfuUJnw3OQVTLyBF/ixxGehc9J5X1+Fhk+v1YfwCX5m4i360QXQTUn0EF6mPky8QtfwIvElNnevFoEewhfb3PHXM3aPoO8CdJ7WSXhgy9TLtHO5xDv4MPHFH5blKVwK/ZBrgqtl/YM06cTHmzs+aMO3MXRv5Q7g/lBv0F3izVAfJD5AF/AKv7jm7tX/8NHX1LbTGx/tR1M+caG3chc7LFuwueP70RCG6G8B3c3lAS7x8yV+azV3vJCTRh+cXClr4LMSn6R9hEDX8HwyRg3eQPJv0TO6+oAE7Ovdyp0pl3iD78Onh3qgn6/Qo4lX8Bo/3z7+1f84i8r73WleHtH6ruVUdsb3aQr//P/5Hr2x83nZQ32h5s6hJ6tstR56Ai8Tnx++0FBfuLnjM2z5Qkq7SfS+nHOn/v4coPnzb2rwM62X/JA2dicfoNAu0Q08g6vbEpu73MsfP5+4HHyRiZfwr/7fs2iumKfbbVVFEzXf+3uaffpNNJV/Fs+b8rHzUlO5fM2deiMESa8d/ADQz3cLOAq9FHiUg3eJ1/gWvVBzxxdStAzz0efh5/ljTQsdlnVD/ZH4+uDB6tMw+Gqa5n73UM+DL6jz7cKtHVO2WjyXu/oQPjXUG/ysxDv0l5H4l73Ea/R8ibfN3Wu7nEdvHTWUehcvMy8xva0qq6emu5+j2V+7kaZ+kt8AZ9PUXc+n6WjSksRrfC/xe+GNsFuQdKC/+TGgy5U7xge2B4/KhN/C5o6vj/fQ57eojzNVfz6c0RW8OOfOwgOXL56cj3k+r9U3nnUXdf/4L7RWnPgZbnxlTtPXb1UnXroFHIPuwaMkehZ8gm7gXeIVvEh8vuaO4T/Wj2YcN5wa73qWVgZHueT2wabNtGJmLTXd/gzN+so4moY3wBvoCaaiG38TQ79LvE07vyGwa1gtDqJYdLeA4xJvSsIDe1s0d3P2uCyCDkygu9U7A88d/Xw+7x5ze/7s+oYzb6euyc+rz7vj/4+sjT/6rOenf6Omb95GtYdfq5q76Fq9hAd4/uZuDOVe2vU8eknAy318Sc0dw+/cj17+t+/QG/jZWafdSE0Y2lcFR7zk9sHGTbTinWpqvO03NPvLY2kaGr8peANM//iFalrH6Hz7Zgx9Z40ewmt8nXiJny/xfWnu+FAsX1NnN0bn5Vve36sFHO7yD7iaKrDvn49k153xA1p8zx9pzaw69e/O2ni+3/Ozv1Pz+feqfTt/DEoNf24dL9oA3MGHR+gALvFd4g2+hNfoGGaz4FOJV/AaP2sf/wbuf3Wnc+iVf/suTcHXs78+gZon/0Ht47M29QZ4G2+A7/+aZp1yg34DfOQc9QZ481MXe+g1Cv08b+UunfgS9vF9aO74+vjmYcnau0JHmvlTr8oxClQAvPab36eOu39H72NkywtdtdBB8wcc8j5+wUGDVXPnTefEXD7rsCyDq9s8zZ1BNyXgNb6BLzLxEt6u2vEb4LWdzqVX//17NPXTl1DZN2+h1h89T6vxjs7aNq/fSMunV1LDhKdo1ueup6n4+VXv1ZlHgT7oAZoO9IKHZbdhc6fQxQGXNXhT8n6++msTaNHE39LqGdXqDwhkbetq2qnn4Rep6YL71EEa/vQr/nBD3ufzR5u6rt6bzvXtnLsw8bkX0YRlwm9Bc+fgMTTb5VpO/esA5GkcH5ef8+3baOEDf6U1NW3mvyK9bVrbS0tfLaf1oklM0AsclmV8YHvwqEz4Epo7vj5eom/ANHXllHne582FG8+7ex5/mZoumqyaO7WPx4jA+/xwOudP6SR8gh4mXuHbpIuKor8IbC4N7w/1fW7uZOINvMVXR+fwuH4DnEXT9rqU5n5vIrX9/AVaU5d8NkzWxsP79I8C3S3iJOjpxJuS8MDe0uaOL5WWw3vWxn/apOeJV6kR825u6ngfzx9+VInO3Xb1fV25S+BLS3zuH7v0oxdVibRzCfg+N3cGXuMDXaTeHpbl4/H8BuATMXge/yY697ln3UHtD/+d1ogPB5IbL85M2wmzBblyVyjxW7m5Y/QmsTgjt97GTur+JaD730/zAFu+O/5N+wxQx+XtHN5bwInO4zV+kvYRAl1X9LCsxAe4xPfQ4/Bbt7nLTLyBn7Yn16U0Dc/ns2t5GvfWfldQxbl3UfvjL9Fasw69vnOZ2s9zc+et3BUY6rd2c6dOvTr1RtrQuVy9rt6Wbup+6nX116XnAVGdaLn3lfokDHTy6kANd/V2KqfwBTyqqJW7MPEefIBu4Blc3ZrmLvcPzK8TdJRMO5eA1/gGvsjEp+FREh77dgev8JO1el66VW8AdPEzAFKBEeC9k66j6QrcLuCgXNrzJ35rN3f8sSiVXx5PdRfep0674v182Z5XqL8xaxdx5IEae4TOhy9i5c4b6lEi7dHEZ8DboR7o51IK/p/R3KE0epB4A+/weZ6Omo7On6+Zm/7Ji/Q59eHKXZGJV/jA9uBRmfD5mjsDP5tPquTpmpjSeegGXqKHiZepT8Mn+JmJN+hh4hW+TbqpBN2D/5CauwDeJp4rc63eJR7gtmziDXo68aYkPLC3tLnz0M3KXZh2h5+C9xO/rZo7rtzfgc4lEx/fx6ME/LZu7lLwEt1UwcOyhRK/lZu72MqdTXyIHx/qk7Rvy+Yu9/edNXpx8P/k5i6ER8XQ+zrUb+3mLjPxEj2EB3YmPGpbNHe5F3Y+h3x4gHtDPUqmnUvAa3wDX2Ti0/AoCZ+nudvic+5S8EDfis1dPPEJfHGJ37bNnUJ/gdEzEu/gt6fmDiXht/iCCsYHtgePyoTP19w5fAMvUy/RDbxEDxO/rZo7g64rf+J3NHcy7Vwu8Q4+TPz22dzl/vZRgHNF4ZPEx/fxKAG/o7nLk3gDLxMf4seH+iTtW6u5S9D7DL+juUsnfvtu7oB+NunKBw9wb6hHybRzCXiNb+CLTHwaHiXhdzR3BRJfRHNn0f+6Uxx9R3On9+8ePCoT/l+oudPotiy+g9/R3P3va+5GMvpZxPBJ4g185lCfJD6+j0cJ+B3NXZ7EG3iZ+BA/PtQnae9Lc5f7638KdJn2LYLf0dylE7/9NHe5vzC6gi818QD3hnqUTDuXgNf4Br7IxKfhURJ+R3NXIPHx5k6hJ/AaPYH30Xc0d3r/7sGjMuG3y+ZOoKuSabdl8R38jubuX725y/35I98jLj/xAj/fUG/wt6i5C+HzJd5LvU58cUN9AI/qU3MXDvcAl/j5Eu+au0KJN/Ay8SF+fKhP0p6/uRtB/w9MiHe9YAA+bAAAAABJRU5ErkJggg==;" vertex="1" parent="ooqM9sPuauhWhxl2Y_vB-52">
          <mxGeometry width="80" height="80" as="geometry" />
        </mxCell>
        <mxCell id="7oCYW-wZGabHslEQ7wRl-33" value="AWS WAF" style="swimlane;labelBackgroundColor=none;fontSize=16;align=center;verticalAlign=middle;flipV=1;startSize=40;fillColor=none;strokeColor=none;" vertex="1" parent="ooqM9sPuauhWhxl2Y_vB-14">
          <mxGeometry x="120" y="120" width="80" height="120" as="geometry" />
        </mxCell>
        <mxCell id="7oCYW-wZGabHslEQ7wRl-25" value="" style="shape=image;verticalLabelPosition=bottom;labelBackgroundColor=default;verticalAlign=top;aspect=fixed;imageAspect=0;image=data:image/png,iVBORw0KGgoAAAANSUhEUgAAAH0AAAB9CAYAAACPgGwlAAAAAXNSR0IArs4c6QAAAARnQU1BAACxjwv8YQUAAAAJcEhZcwAAFxEAABcRAcom8z8AADFwSURBVHhe3Z13mBzVsfbnz+uITRIoopwllLOEUAAJCZAskrEBEy1yFgZzwRmbiy8fxvnDNgYMtnEmiCByUNxdaXe1OcfZnc05qb63qk93n+7pnumZnZHxd56nnt2dnumenV+/darqhAmVzl5IYnMWUtmcRYbNXUTlYosNO3MxVYgtMWzeEqoUW0qV85dSlWkL2JZRtWkL2ZZTDdsi01ZQ7WLb6pasdFj90lW2LVtF4WWrbVu+mhrE1lDDCsMaxc6ixpWGRVaupcgqw5rYVrOdbVnzGrZ1Yi1nmbZerHWtaRuo9ewN1Gbaug3Uvm6jYetNO4c62DYY1rnhXOrcaFvXxk3UdY5t3edudljPpvMs693MtsWw87ZQn2VbqW/LVuo3bev5NKDb+ReIDbJdwHYhDbFdaNo2Osa2zbTtRNu3kw09EfAAboEHbCf4ZTZ4BT0e+NrFTvB1ccEDeEDwAj9N4AW6Bf5cscDgNyUD/nwn+PMN8DZ0H/AWdAN8qHSWBj1Z8FGKHz74+Ip3gwfwgIpvTgV4Bd8JPrbiu93gYYHAA3g8xQt4H8WL2jX4oZJZC6gkCryCngbFC3wFPQq8Bj3V4FOneCd0dvNOVw/YbvAKugVfBx9I8YCehOIFvq54BV5BjwZflmrFa/AT6eOH4+ojx0Pxnq7eqfguMX/F9yQF3qV4HXwcxYdKZprQDdPBO1w9bDjBncAX6PHBx3T1sGjwCr4H+HiuPnnFu8Er6D7gDfj+ivcGr+Bb4BV8P/ACPzZ4VrwBXQPv7uOTUjxgB3H16e3j/x2Kjw0+nuIN+OlXfKh45nwqjgM+5YoX+OkAn7ziU+nqE0nnknP1w1O8gj7fgK6Bjw7uUqd4AZ8KVx9H8RZ0h+JhxwG8U/GAnXLFu8EHT+dCxTMM6EEUn5LgTsG3g7v4itehi8UF71a8DT59ilfQfcGnI52L4+oFvgKvKT5UBOhsDvCW2tmc4NOpeIEfUPHDL+D4K17gp0nxUQUcBd2Cr4NPYQFH4CvFA/o8A7oG3u3q017AEfjHN7hLn+I18AJfQfdR/L8juAsVTWfoBvgoxbtUr4N3uHrYcII7A7ppwwAPiwbvdvX+4AX+vwG8AT+G4j3BK/hBwQt8HboGPhHFp7yAo7v5tCoewBX49KVzOvT44I+n4kOFJnQf8PEUn550zoB/fBUPU+DTp/jEgrvkFK/g+4GHAfqZFA98PMV/UtK5xIM7F3QN/Cc1nUsuj3cGd6HCaYDOFgd8QgWcWOCDKj5J8Lrag6Vz/oo/fuATS+eGW8DRoGvgBXo0+OOp+OH08b6KB/Aw/z1ngWFzF8pNEKuPF/gaeIH/n6R4HbpSfKjAhG7BV+ADKj4qj+fHJkynUry2TIAHAO9WvIIv4DX4scA7oPuBx+Ph1QB0063UcvPt+HkbNQBQA47r4A34GvTjBj6xPj4Y+OjgLlQw9UxygFeKF/ia4gW+Dt6CroHHa0umzqXwXfdR+ZLVVDplTnDwAB1b8W7wiY/H189fQo0X7CC9RbZdROGFS31c/fFQfPR4fEIFHIGfGHhAn0tiHuBjKd7t6kv4MZyn+ae/lA+z8409VDpzXmLg46ZzbvAGfAf4GK6+bv5iajx/Ox3r65f3eKy/nyIX7qAwYgmvPt7t6tPXxyvoFvg0pXMAzhbKN6G7wQv8aPBRilfgi8ZNhcJ3yYdpts7db8DNz48PXsFPaXCHn3V4bu28xVSLWKN25plUMwHvce1GOtbTJ+/vWF8fNaw/l+omTafwbPTxeG540TJqxA3SiGDPVjxMgXcrPp3BXZTiE3b1Cr4F3oAfyp8yl3zBJ6L4aXOpFB92BxSut87XAB7PS63iPYI7/h3QagC3euosqpk9HypHP77pfGq86lpqueMean3gIer4GTzRwKDx5gYHqeMXv6LWBx+i1rvupearr6fI1m3UALANfAPMmic/G5esoAjU/0lTvBu8AT++4gF9DsUEL/Bjgzf6+IVUPGkWFeNG6QBovQl4VvzUVCreAF+Nc1VNnU3VM+ZS7ZoNFLn+Rmr/yc+oG9ccKC6hobY2oqEh9U7iNDyPnz9QUkq9b7xJnbhBWhH0RTZuBvxF1Dh3IbzASk/FC/ykwAM2nteOc/kpPtXBnYIOA2wbvHdwF1fxDH7yLCrB8ztff1N9kkazwCeieMD2Urz8Pn0uVU6ZRbVw1033fZO6XnmVBmvr1NVS2wbr6qh39+vU/uDD1LRpKzWeCfgLlojbHzb4VWdRGyB2bNtBbStWU/sGL8UDdgKKjwc+lGdCF4uveAt+AMUzaL3xjVCG5yXdx/NxgK7EtcOXX0Udf/wTDYbD6uw+7dgxGmyMUH9RMfUeyqDefQfErUvDz779B6gPjw8UwSvgefz8WG2ooZF6XvwrtVxzPTWi/4/AAzQJ/ATBA3grXteKwLF/z1s0VFlJHRddSu3LV1mKd0b1iSnegO8NPpQ3eQ75g4+heIEeA7xSfMfrLvAc3CUc1S+hcrjwCqi7Ae67++136ZiPyx5qbaWejz6m9qd+R8333EcNl36F6jeeR7Xo32umz6Hw+k10rFcL5PgYuoYwR+zo/5suv4Ja77ufOn/3NPV9vA/nQ/fg1XD9vvc/oLZb76AIw4fyHf18LPBnw6DqluWrqe+V3eqEOCU8SseOS6ht9VkWeLfiEwnu/MbjDehu8AAeT/FBXb2n4l97M2Bwt5TKcYOUT5hOdZd+lbrfekedwdkGGxqo8+//pMhd91Hths1UPWcBVU2eSdW4SWpmzaeaMxdRLWKCGkTxDedd6IDeuHU71eF4/eLlVI/n1PPvHATOxI2AvyObL6DWXfdTz79eEpV7tb733qfWq68Ttx9Bn9+0GrBjgRfgqxzAuQ1kHab2rRdQG16nB3hO8LEVHySdA/TZBnQHeEBPQvEC3614uHpRvBu8KD42+LIJM6hy2Rpqe/oZOjYwoF5pt96MTGp66NtUg369EhE79/FVAFuNrsBM5fR0jqGHAVlvDcjT6xChmwUcq2TLBoBhBI1h3ARctm089zxq/+73qR9w3I3fX/cfXqBmABCX76X4tTDAbsZ1ehGD6K1/7z4J6rhfT/eCitDRSQw9CHiX4nXw8RQ/aaaK6j2COy/wc2BQeMMtd1B/Wbl6tt168AE13HgrVQJixSTcGMixg5RsOaWrh3vvRlrZ88571PPmWxSGe69jhZtFHDd4c4AGFsa5JI1DCtd6+93Uj3jA3QYrKqn93m9QBK9rWgXgOngBvhIKdwHft59aAbgVxwW8RPXx8/hYwV2sWr1At8Er+BZ4Bd8PvMCPDd5WvAk+Op0zgrvZNvg5i6gU76XT5f76CgqpEfl2Ba5TjvNV4vne6Zw/+Fr8zuldDd4LF2ykiGMC1ywavDY6xzcGlN+Ac7Xd9wCCwGL1Do3W++Ye9PNLVT4PxTN0vKYJnsNL4RzUteCYBHcM3LQE83gDvr/iTfAW9OOjeNXHe6VzruCuDM+rWH4W9VfXyHNaf/5rqgTEsgnTAHuRbzoXs4DjVbnTSrYO8DEUb5Vs+Tlw/Y3ow7ue+q28T04bm87dQhF4AwnsAJxhN+Hv3pdfkeeYrX/fPrh8DbhnHj+8Ao5XHw/osyzo/uBTr/jo4M7l6tGnl+K5tV+5muqvv4nKxk+Fy5/viupjFHAEfjrAa4pn8Ij6G3CeBsBvve1Oar3hRmqcjxyeFQ73Hlm6Qm4AL4W3AHIzjgt4PZ2LC16DH0DxbvCh3ImziC1x8Imnc3ofLwUcdx/vrtVzMDd1DuDPkr4+oQKOQLdVny7FWwM0DJ8HdBYi4peKHQNfSY3ICnrcCt+7l5oBuRk3A4P3zOMDgHcqHrADKt6CHgx8HFcv8BX4gIqP6uPh+odbq+fAToI7HAuqeB26WFzw0Yo3R+caAb0R5zSAOxXeB4Uz8KYly/HTJ4/3Ba+g+4IPpngH9NykXH2y4/ELqcjs471cvSheC+7igWfYbIgNatasp5p151IlcvQK3FxVPAgD12/BD6j4+OBtxVuqZ+imwl9yKrzv473o49dRBMeMNE5L5wKDj6/4qAKOgm5aKHfCTBu6svjg4yhed/U+ine7+uio3lR8cPAV0+ZS+IababA+TIPNzdSDD7nl8SepfvulVIWIvQrHWfnpDu4acYwHbPTGCuegjqt3DF5yeHcenwx4ga+g+yje7epDOYDOFh+8gh8UvMCPBm/An2eYBd5H8QmOx5ePn0Zdu19Tr7YbV966kZM3XHkNVU6dLQWcpMHDosFrrp6h4zXdf/27ujr68I/2IrBbJ7V6o2iDqJ7TOZgBPf3gDfhu6MdR8ezWC8+YRkU4B0PXFd/prtWz4oOAZ+gAGt55i0D2bEND1PH8C1Szci1VTppBNXhdWhQP987j8AyeB3QigCkBHoBLVI/XRxYiwsfP4Slehx4fvKn4UM54A3ryilfw/cALfBt6weiJVHvT7dTy299TMYKtwvHTHeCLp8+N0cfHV3zZhOnUuOsB9UrvNlBZRS3f+6G4+qppcyzoKVU8g8fjjQDagD6cgzuO6k34XLJt/8Y3VckWsJMG71Z8/OAO0GeQDt6t+OTyeJ/gDtcqWbiC+mtq5cPvyTpMFVu2U9FEqNzt6pMdj8ffZWdMobbfPK1eicbDq5Em9YfdenH98Fe/JoMzNcitg4BPKLhjV4/nmdOu2L23XH4FDWTnyPWH6uup+ZzNqpAzHMUnls6FsgGCLfXgoxWfN3ICtT73R/mHzVb9laupCK7eM51Dn643dvXl85cJ/Fjz6rluX4n8vL+0zHghoHfC1bY++XPjb61xV9Dy6I9lUkb1XPT1AD18V68pHmbm8g24sVp33qyubLQevK/ImQutkm36wNuK16CnCLwOXVN8/qhJVHHxV+iYOYEBLfLEz6hg5ETfqN4ruGv51VNUgi6hbPbCmOBLz5hKkYe+o15FMpGCCzbN3/+ResTZOv70F5l6xcOyQcAnns5B6Qx+9nzq+vVT6qq46RBntF6/kyLzFwt009Kp+FD2GQZ0L8UL/ITBewR3/Pg4RNYffqz+VbjW/ELp4wsnz1IRvQ0+qmS7+3XjNdm5VLF+M5XiJoq3kqYc56tcsVbG2s3WuOt+Kjt5JLU/85x6xNm6cB0Bz4r3cPUO6IHAuxUP8HDl7Or1QZr+AweRyi2nppVrjgP4cyh0BNDZHOA16G7wBvzEwB89fQJVXXuj+heNVnPDLZSPx42IXkX1nuBnUem8pTKfnoEXI1CzNjectUD6+FLk3+UICt3gyybOoM5/vayuCDX/5W9UPm6K5PR9+QXqUWfr/Ns/kNOf6d/Hu8Bb0H3BRyu+Ae+19W7ndPG2u+6VSRipmWzpBu8cjwf06YA+nXTFx3P1gcEDeD6O5Y+bSl0f71P/HhT1wUfyWCGOu9M5T1cPtRfBXfNiCgYuq2nwPB6Zq9p0AVWedY6srikdP1VuBBN8GfL2pm9/X12VA7cjVME3B57HQ7R+rfXxJ43gzsrlXeCH6+rxOPfvfXv3qytC7YcypIoXEbXb4FPXxyvosNCRcQZ0w1yKT9jVK/ga+KPosysuvUKCKbNVXXEt5SOo883j3YoXw02gVtNwpY5z+rbn/0RDnZ002NRM3bipGh94CIrHDYFugcGXIRcPX2d7mIGqaqqCy6+Akjmv7y8sUkfw9vqNVS/ceBZM+KrrqGqqmc4lCB4WDd7p6hvmQu1IXa2Gj6f1xpupEX27e3p1qoM7A7oGPpbi3eAN+LEVn3vaeGp90a5Ode8/SPkIxLif19O5uIoX1SvDa8vXbKSh7m51Vrv1oH+sufAiCeTKEC/UXvJVmfXKbbCpiarRRcgkDHQTbb/8v/I4tx6eFXv4iPqLqC8vH3n8cqqGxwgKXoceV/E43sAZRkaWuiI80SuvwsUvMqCnDTygH0aAFQt8coo3wB/FuYuWnUWD2ozS2jt30dERZ/gXcHzAW4oHdC7hluA13QDs1XhGbP0NN1HJqWOp5kuXWSoebGmh6g3nIcgzZt404Dlm6zuaRw3Xfp2O9fSoR5ApINKvdLj5+OATCe7Cs+dR+0PfUlfD+27voOat240VNYDuVrzATwF4gX7YhG6BB+wEFO8HPufUcVS760H1L8G91tVTIYKy/AkzHOlcMoovGj2RIj/6sTqz0z1z4/y79vKrqPq8bfjD6Fo4kq9C/y8zbDlY23S+dA/cGDaPzrWpGTDcBqqqqHrpaplvn45BmjBX6qC8obCdYXR8/xFqRNpoQU8D+NDhsQzdNB18Yoo34GvgcSPkoj9vf+Mt9e9AOc+9QLlQeawCjlTuYoA3FV+EIK0Krtuc/z4YiVDT//wvDXV0yN/cBurD1KIVZPpLS6kSwMoRHHK0X7lkFQ1oq2Lqd1xG1ejzh9ra1SNETQ/8t8yyTXQ8Pj54Az5Pt+pGVmE2nksv/Tqi/HSBN6Br4BNRfKwCTu5YROeL8aE2tah/BwHc1V+XPt6Zxyc+A4fBF+O1ZYtWAmy9OjtR9YWXUM2Xr3S4aL31IFrmmTgVyMUrEPBVzEefWlyijhKFr91JZSPGSqHGbD3INKpmIUvAayqnzDZq9QuWpqyAwxMsW+64S10NLr6llSLnXaAieQO6BT9F4ENZgGOBV/Cd4GMr3i+dyxkxnioA2WwDDY1UMH855SGIk8ge0OIpPparL8bjxYDQ9dFedQWiyPceoYLPnkzhXd9Ujzhb2++fQ1o3XSJ7Tt2ioF9/I5WNHE/hq29Qj8Dtd3UZCyi4bo7upOmbD1M1Xp+qki1Pq27E+YfgqczGOXsDr5dbmZ718aGsMVMpywWd3bzT1QO2G7yCbsF3QJ9F2SeNpsYnjQ0KuLW//hbljpok/b1XASeo4gW+Al84ejK1aapseeppKho1kYrGTKLWp59Vj9qt4a5dgD7NyOMRF7CrH1CDP9zqv/I1ieqrAIj7c7M13HAzcvefqL+Iul7dbczC8SvZatDjgsffvKqm99331Nlx/t/9nhrgXcyBmlQr3oAu4DXFe7r6BAo4fGz0JOp46131b+CD+5/HKefkMUZkL9C9wLsUHye4K0Cu3/yzX6kr4Mb66z9kcwRO6biI05dfqI7AbUKxles2URlX7ziHx7mr8LfZf3MgWLvtYqqA+y5HxM4lWbO18tJn15Kq7jf3ADrUPs9M6ZzgdehiMcDXz5wry6LN1vfRx0jnllIjPIEBPbWKD2Wa0D3BK+g+4A340YrPwWuPAlJfpa2WiquuR39+hhXZ2+AVfD/wAt8bPI/NRx79X3UFRL6v7KYiKFXSunFTqPaq69QRkoUTJRNnykAN1+rN6dXm2vVBRNBVazbINGtWe8sTP5XHuXUjuOr3KNu2IUiUyp1PcBfT1cMs6Nyv33anOiveS20tNQKS1Om5Xu+h+OEEd6HM0VNpOOC9FJ8DN1541rk01G0EVMd6eqno7M2Wezfz+OEqvgCuPPLY/5FrcOt4+VWJ6q3q3eRZVH/LnYjqH6eKVeukVGsO0sgo3Le+p15pjK3LvHoc45p94733qyO4L5AReAWHx3p7qQ7eoZonYyYDXim+ft4Siuy4VM5nnrfpossMtXPZVoFPleIBfQrFB6/BD6D4I8jPyy67Sv4Bbqz4/LlLKZc9AKdznuATV3z+6eOp+dd2Xt32x79IPy/AYaWseKiWVS/bozBQNVhTMmGaY9lU23PPy6wbmYQBLxDWCjd666+slHKu2Tpf/JtE9cPJ4+vxmoZ159CgWs3Djbc9CyOYk1q9Bj6e4oOAV9CDgXcqHrB9FH/4xNFUedMd6u3DPWYdMYDjmJnSBQMfI7jD3wVQq74osumJn1Eh1O8o2SInd+xzh36Yh2Yrlq+lwUZ76XH49rupFDeCjM6xh9C6Br3x8qrInfeqv+AFWlupdv2m4U22hBtn8P25R9VZcRN+8yEKz5rvhO5QPCxJ8KGMUSZ0L/AKui94W/FH+NjpEyl75CTK/PQpVHP/Q+rtI8B68206/MVR4vZzx0wxbgCB7gU+jqtnA/RCZAjFSAH1PL32xtuocOwUBHmArYF372xZPHYyNdxju2+eLl25ar0EdzI6h37aD3qYZ9TCY/A0a7M17XpAZtkmvKBiwTJZJl2Ha9ZOm029732gzojP7JFHqW7yDFkjL/vcwSPo4IejeIEeG3x8xR8ZO51yoMr8ZWvFjs5aRI1QhNnadr9J+Wcuo4JlZ1PhirOpYOFKqN7I55NT/DzKg2uvu+sb6goA19ZGpQBXBNdspHQ2dIfiub+Hkru1ZcYdf/8nVI78HW6fI/vSidM93XtfTq4sj+ZAr/MfL6lH8fo/vig1esfCyXiKx+9h3sBo63Zq2LJNdsjoedvOdrp+/6y4/MgFXxJrBCyu4kW7en/FC3wP8IA+WaAHBi/wFXQFPvPEMVR6yZU0hABEDEGPPi2Kfx9CMMcBCh9ve3k3ZY84I46r91d8AaLwIoDsLbILK+3/fIkKxkxGVM/z6Y2UTq/Vi+JZ5Ujpaq/ZiVfYQ721V14nW5uaM3C4gNNwt31Dma3x7vuoHEFeOW6K5u8+oh5FEHjgoLEZAgIyC3oc8DVI07pff1M+E9OsvXC44Xf7WB+13nwbhecuSEkfr6APD3zmiaOo9HKkPwFbxzvvUfYpYy3oNngFPw74PKR+DT94VJ0N+JBjV26/lAoA1F3Acbh6viFY5XvtCR3de/cbM2xxnAM8SecAvfnxJ9UzjNb9wYcySMOuvRyBG6+kMdtAeQVVLz9LSrVBF03WTJ9LvR98pM4Qv7XefhfxBocyLBsHvMCPAT50aKQJPQh4HboNPhOBW+klV8jIlhjfnS6ly2PqeNsrr9GRU8ap6p0bfGzF50PlhXMWU3+1HUG3PPs85Y+c6Ejn9JKtqXgu3NRqpWFutdfdSMU89q6iejZO51q1KdSDiBtkSJbr9vOXSAGn7qIvW86Cx+lrztoorj/o+njeD4d3xLA+M5hD6UNDjmO8gbFshMAjdBZ4AFfgE0nnBHpi4N2Kh42ZRtmT51Ie+nO2XO7Tf2HP+Gzb/TrlcZ++HP35inWUjz49F5G+WcGLBu9WvIIP6EdHTqCaG+0ZJ0MdnVS69hzK5xUzZmTvBR6/81Rrfc0cz7bh/l3WzAGYBR5wq8//EvUeyabe7Byqvfhyyd154yOZYg1gtThOg0ZhZ6i93VgwCSVay6Q1+J7gFy2j+g2bZQ+chq3cp59LPVrVr/OZ5yiMPr2R+/MLdlDDmvXI6VdZo3P+iocp8H6KB/RJAj1p8Awd/fphfnzEBMo6bQJl/NdJVH3/w+rtAzrSqqwTTqdsRPdHcL0cjuAB2IYeRPEG+KM8EweBk9naX3pVVF6IPNyrgGOC5wUV5evOo6Eue7ZN3S13IpKfYkf2Jnju17lcy0Eb/41rl/NCCkTZAh3Hai+8SNTIjbcdqznbWCVrQhfwcVy9lHB54IZtykzqeccO5Np++CjVTJwmmxjz7tWybTkP0JjQ3YrXoWvgvRSvoKcAvBbVZ35hJFXiAzVbV0YWHcE5c3BMr9yZ0IOCz8Pz8vF3z+FsdWaAu+9B9PHjHZF9FHhALxw9kRoe/q56FRdZqmSWLc/AsaDr4NkAkQdmZICGTaDjJ/r0ui9fqc6EPj0cpurV6w2l8xr5RPbAYcPxWp6hq1a+cGt58GHZ384s4JglWzEBH1zxbvChg6eb0FMHnvv4Er0iV1ZBOTMWUDbO4TtIEwB8Htxz4aKV1G/myMeOUcWOyykPnsOGroEX6MbvvGCyQ1sq1frsC1Q4ZpIR1XsUcCzwEtEbUb0JXiZc3mwXn3iCZRUicu7T3TtiBOrjoeS61etkjZ3Zmm66lWpnzbMLOJ7gPRTv08cLfAVeoKcafNap46ngrE2SnnFjl1qwagMdPn1CVMlW4AcEfxSBWPHKdfYUJwQ4pWdvkoUUXgUcU/GFOEfJAucwat1Nd1ARXLuZzrkrd7G+fowDvabv/VCdiWQdPE+2rMQN4dgKRcEX8Bp8N3jZ3w599zE10ZP/r4aLLqNauP1E5ty5wRvwNegKPKBPFOipBJ+Fc2RPm0d92odceulVlHXyWLtsq0F3gzfgR4M/iusUCfQuOSfnryVrz5U59H4lWzGovPLCi+0+GB9u+bpNxsJJC7oXeAXdBZ5TuvY/vCDn4tbx579K3T7WHjg2dDd4RPJIBSNft1NArvbVI3Dj/e24kGNB9wXvVrzb1TsVHzp4GkNPMXi42yyouv29D9W/gdToO49Q5gkjbeguxfvNwNHB8+zawkWraMBcqgT3XrbtEjo6ZrIjj3eD5/VydbfebbwGrbegkIoBsgjPjyrgxHP16LfLoOqeQ5nqbHDF3/8Rovvp1o4Y8ferd4KvmjKLWn9sjxb27t1P/OUEdThmlWyHAd7t6kMHAJ0t1eAzPn8aNfzCnlfe8q9XKPPkMdLnm+AN+P6Kd7v6oxNmSN/ek52rzkpUc8eu2JMtAT4PN6BezOl89wMqwA1kV++c4AW+D3iO6qvWbjT2kVet/oprZJBGlkr7gtfga+D5RuAVs7w/vdk6kK7xFxW4B2kc4GHR4N2u3q14mAN6isFnfGEUlWnr1/qqa8TlH8Y5Yo3Hu8Eb8G3wOSPGUetf/6HOioAM6ZtA96jcCXQeExg1kZp+9Rv1CqRDL/6NCkZzydaI7CWPD6j4EvTn4VvsII4nX/BCSZ5WbUIPrnioHHFADV6vz8rl3aurp89R0b0TvA492eAudGCEAT3Vis9EMHd00Woa1KYTl1z8Vco8abQM0sQaj3eD1xXPc+lZ3WbjCZeFC5ZTHpTrCR4/80dPotbn/6RegQ/1N09TASJ3jux18PFG59hKxk+zVtFyk31xuAYA12/m8YkovnLaHGrQll7xhI36zRcgd1+koEeDH25wB+gTSAefMsWjX8885Qxqf8ceLmz45VPo10+3RucSUbwJnqdWFyAS59Kn2RoefZxycDOZ0G3wCO4E+mRqhbrN1vTzX0PpBnS/kq0J3gruoHQu19ZcfLljYUXDHffYky0FugKvKx6w/RRfOXkGtf/ensTZu3cfVSNu4P7ehj48xRtuHmZC3w/obOkAf+hzI6j6AXvZTm95BR2ZNEdcvHs8PojiDfizKRtZQESLF9ibFK8/z5hTz5B1xeP3PIaOCNtsTbj5eJMERwEnhuJLWOFT58iiyR5t7VlfUbFU78q5iKPSOQf4OIrnwZtqXnBRWanOiO7qh48hsDPn3enQk19QYSveUH1o/6km9NSBN6Fn8KDK0rOsFItb6dU70d+PtKDHU7xXAYcnYvCYPLt2s3UfzqZ8gOLavAM8F3XQp7c88wf1TASVTz8nLt9RwPECr4AXAzgP1vAqWb2Fb79H+nivAk4QxVdMnkmNt9tZBc8prNuyjapxExnQo8En7uptxZvgDegKfMoVj98PIaBrecneKrNtzzuI4sdKsCdl2wCKj0rnRO1jqPo25xrzro/3o39fQbmnjDXWxTN8GNfrI0/+Qj0L7+EfL0lwx5G9WcDxdvUAjoyhCMa7Yemt46VXqARpWhncv5XOBQFvKp5/R3/e877d/fFed5UI4Njte1bufMDHV7wTfGgfAq5Y4AX+MMAfQh9eoo21HxsYpMItX6KMExHQMXQLPGC7wSvoFnwdPD+GqD2iTYzk1ldaThVXXouIfhzy9ymieP69/mF75iuviuEqHgd5USVbBb4IqRnPqy9btjZqw6PenFwqA5iSKbOtVC7eHjhuxXP9vp7r94P2N1Y03nS7fEOFpHLKTOhR4DXoiYIX6AZ4BV+gp1DxeF4mXtuVaa/9boXyM744Cmqf6gLvVHw8V8/z63PQXzc987w6s92an3uBipavpVx4lZwTR1HV129RR3BjlJRSEaAUoKswCzim4nkPHBmbxw1Rf+8DstJWb715+VS+ar21DYoY9/eI4I1drxh4HPD4uxzX6dLGAvpyj8rjnMLpKV0sxevQxQKCD+07xYDuBp9KV3/wc6dR2c7b1L8HtQ8NUdH2y6Rv52HZWOAN+DZ4h+JVNJ+D9xV+5DHHxA1uA5GIrKwpYOUitpApSWg8D7903WYZgy+EJ+DpV9zH8+4YxXC/dXff5wjYzNb13gdQ/hoZlzci+kUyvbp6+yXU+rtnqAwKjr+X7VIZsKm/6lqrLMwtsusB+WoSPZ0LAj6mq4dFg1+toPuAT5XiM/DcDFG7/YU3nfsPyth7FqLoZBZU2OBh/Hz08WU7Lpfp1u7WX1tHEUTseuBXdc1Oyv7UiVK3L164gqquup6af/uMDLm6G98sTU/8VFbKch8v0TwHeQgSq7ddTP0VFfI82eBwZuyvH5Nl0ngOf+mQ2XjXLI7kebqVns6Z0IcF3kPxob3IpfeJpVHx6FtZ7cWXfU39m0bjdO7QZ0dYo3OJLKiIiuph2afyZMs5VPftH9CANqfdq3W88RY1ID3qePNtGQ/3azwcy4M1PJ++CG68mGFLSmfMxGl91tm1xNuvvhSeQR+h49aw81YqZ5WrqD7d31AR2nvyGWSAtxVvQXcoHjYc8Dh+8ISR1KxNHeYhxIJN2xDNj7PAOxUP2An08ZbqTxpDBYtXU+OTPwf8iLpa8MZDtxzhV156JRWMnyYTLr0KOMUI9koBM3pLU+9NjMvg+mt5A0X832brfO116d+jhmUVdAGfClevgTegW+DdirfBp0Lxh04cQznzkV83Ncs/zMudCrfsoEzk8zJQw+DhFYaVzsGkcofrcRGncMkaCv/oxwje1JahPo33o+l870MKw0uU8nAtj9zBeCWNfx6PlI7n2SMYDPINFTztqvayK2mgyli+NGTugYPUzbOAo+CL2gV+fMXr0MU8wNvQPRTv7er9FX8wHnh283DnFXd+g5r/+TJlz1okqVuWcu1ZOEcWImceluU5dyZ0VryoXgevoFvwdfCqZCvwcc2cU8ZQPoBVff02at/9ugxu9OTmUfvLu6nxJz+n6utupJKV6ySw46lXBRzgQcXmeLyezgl8F/jA31DB7p1VjWtx/b7p4e/IXncy4VJL54IoXuAHVLwbfOhjuNbEwQ9P8RkI4A7hOhnog3laNVvmiPGUicebX/w71T32BGUgvxfwPoqP6+phJnix8dMpB9fLRYqXD1BStMHvuacin8eNxsC5euc1Hh+7gGMrnsu0cb+hAuB5jXwZzs/l25gFHBf4RBQfy9WHPj5pHLFFg3e7en/wAj8R8Phd8ncu2QJ4BoBzybZJm+XK4HkGzpEY4A34MRTvAi8zcNgL4HV5nKZx1Y7LtWbJ1jQdvMCPBu+l+JjfUCHgtT4eGYAsoxLoCryC7w3egG9ANy058Bb0YIoHcAU+JekcgGaw4hn4CzZwbjzrRmr4eJ4zuBue4t2TLa059bHAJ6H44XxDRSDF624+QfA2dGXR4OMpHqbAJ6R4qPwQYGfgZmv6o71vDLf2t96lwxNmSR7vHdWnQPEmfAu8gu8HXuDHBu8M7ob3DRXxFO+Gnwj40EcnjqWPdPBBFa9D18AHUjxH8rjOwZPGQuF/Vh+J0drefheB3XTcDGMluLOi+ijwgJ2A4mPNsvUH7z3ZMpjih/kNFbriAdtL8QI+CVdvQIfpavcGH1zxMcFD5YcA9CBy6YjLpbdB4RzJZ+BmkAAPv2ci+JKUTsAr6Bb4xNK55MAHVDyA82icMcNW/04aBHce31CRUsUnCN6CnrTiffp4ge8GD5Wzug8gX4+4Ff7WO5QJ0JzL808J8HBz5K05h/LXb5EJGVl4fTR4wE6H4nXosRQP6IVT8XykmZXn76CK8y6kwgnToXgneE9XLyXb4N8756f4RPt4J/RA4N2Kt8Eb8DXoOnio/ADUfQB5eeR5t8IBfAwDHy3BHUf1GTgXK70b+TTPjKm8+36Zd2eMzg2vj+eSrQ7fG3yA4A4/edpVIRRe/82HZSFjb36BfAtVEWC6CzjR4FMQ3Cn4Al6DHwt86MMvjqEPXeAt6L7g3Yp3u3qX4qHy/VDw/i+OpsbnXQrf8w5lAPRBHOPgTqJ6KPoQ/o48ay8o4Nb+7vtSwePRuUzcQM7KXcACDm4GXiZ95JSxRq0ejwffCkUpHr9zxY4nYlRedDl1ve9cZ84bGhaON6dY2328RPUeii8T8KlUvBu8czzegC7mBJ+4q7fBO1w9VM6w90OhbuCt6MMZtAHcSOXMPJ4LNxVQt1myNRsPy3I+n79hi1TzMln5eI2X4t2unlfL5i9YQW0vvUpt6GfbXn6VChatirPrlQFdDOB4Dv3RUZOofMuXjMmW2vAot8HmFgo/+C0qwrnMefVWcDfZzOM9avV4XmrTOTd4A74LehzwsGjwblfvUjyg74PC930BwP8QrfBDAH3gC6MluPPK47lkm7N4DTX/0/lFtdx4RiovoOBZOUfGzZBZtrxs6jBex+p3KF6Bzx45kQpWrldnMFrh6o2Ui+s6Xb0JHz/huhlyLm5CBs9DsFy+dW81zq39ldeojOv2o8zvprGjekvxFvg0p3MxwIc++IIOPRq8Dj3R4G4/graD6Ksjf7EXJ3Br3fOugN6Pm4GDO888XoHnfp5dfckV11GXx1g5t+6j+VT/2BNUBNefDTWy+rNw7sOnIuoH6GyeaMEegKEvW2tPpujro8IV62TXK+7neXtT2f1q5ATKQRfA07HyEayVbb+UGh//KfXmeX/ZT092DlVffzPlj5siK2cM4Aq6Bl4v4EhU7wU+5YqPDu4AfTTFA59scLf3BHz481bQAFye2VrffFuCuv04xj8983gXeC7ZHvjcaTJgU37LXb7wufUUFUuxp3rXg1R8/sWUt3g1ZSONOjJiPGV9/jTKm7PE2v2RoefPW0aH4SVycEMchboLl64F5Muo9oGHZdp0r7ZLtLv1HMmhWnRB3Ndz9M5RfGIFHB/wrHicK3WKd4JX0OODT0TxhpuHoV/f+5kRlL3qHOpvjFAbAh4Gve/zp0tw55nH+4GHZXBQyKkbAr/Sr+2kttf30JA2Nu3VOCbogSfoeP9Dannx79Ty57/JF/Nw4+lVLX/BY3i884OPqCcvX74EKFbjG6UDXVP1ztskuDt6GrwBugXPdM4HvN7HGyVbjwJOoooH7KB9fOiDE0zo0eB16MHAuxVvgP/406fSkaVnU8aUebQPCufgLqlavRjSOX4ebpwMRPB5azZSzXd/RB0f75edntPReH191/6DFP7hY1S6casxOnfaeBm88UznBL4alvUBr0f1nn08bgQjqh++4gW8BR/Q32foMcAPv49Xiv/8SNqH8zlSuWGANwdjuIAjhRucK2/Feqq4+U6KPP0H6jxwiAYiTVGTJeM1fv5AUxN1Hcygpmefp+rb76ViBGdHz5gm/Xwup2oI8PTI3pHOWdAN8Db0GOCV4qNcvYzOxZ5zl7jiFfT0g9eCOz2dGyZ4fQlVFtTHa+cyThgpY/F8Q+TOWUqFm7dT2TU7pY+v+8FjxnRp80bg9O/ZF6gOCq6577+p8tqbqGTrDsqfv9yYdsW5PIPGuXkoNjqdgwG4Dd5b8UFdvbfi91D5ktWyJj7hBRU+4AF9lEC34CvoUeA16KkGL/BTAX7sNGOABhkD3wRZOCfX7TMRyfPmR4c+dTLlzlxkR++9fRLYZX3mVNnE+Ai6i2wEZDk4F0f7Rtk2XskW0JNQvMB3K14VcNyKD9/zDeNLhXlRRVDwgO0HPvT+5wGdTcFPpI9PWQGHoacMfPQeOGbJlodq83j+uwr+ONfOX362bHVmVe3YOH1TFqxW7wbvUrwOPp7izZLtG3vkPbb84tfGtuWzjB0tk1pC5QIfeg/A2Qzo8cHHdPWwaPAKvgf4tLn6KPAG9MO4Hm9uqLd85OlHWN2xavWe4BV8C7yC7wde4McGr6dzpYtXUv1d9xnAcROYy6Ut8LBkgzsbuqb2YYH/xCre2OCQd7YsvexKKr38a/h5FeUARjaOf+Jm4AC2fB8NHmPY5qYIsXa9CurqQ+99biSgs+nw0wH+E6B4BGfc3/M+d2Low/1Ktl7g0zoe71a8wDcs5uZHSSjegC7g3Yo34KdL8RZ0h+Jh6QYPM/t4c3QukfF4A36i4BNP5wS6Bp7V7ws+QcWH3jWha/Dt4C6+4nXoYnHBuxVvg0+f4hV0X/Cxx+PT4uoFvgKfpOKTcvVQvEB3gAdsS/Wa4gV+QMUPJ6q3VO8DPu6CimEoPtB4vGlJuXpvxQt8TfECXwdvqZ3NCT4ZxYfe/ezp9O5nvcEnovhUBnfpU7wGXuAr6D6K/0QFdzEUnyj40DsCHQbYTvAG/JT18bBo8G5X7w9e4P8bwBvwYyjeE7yCHxS8wI8GH6V4l+p18A5XD4sV3Al0C3wsxetuPq2KB3AFPn3pnA49Pvj/FMUH7eND73wG0Nl8wXvDP76Khynw6VN8YsFdcopX8P3AC/zY4OMpPkg6B+inWdD9Xb13cJcI+MSDOxd0DfwnNZ1LLo+Pkc75gI+n+Hh9fOhtga7AB1V8kuB1tQdL5/wVf/zAJ5bOfSILOC7wobc/fRo5wAdQ/HD6+KQU79PHC/z/ZMXr0FNQwAkK3oAeC7xb8Qq+gNfgxwLvgB4IvFvxNngDvgb9uIFPrI8PBj5OcCfwFfiAinfn8V7BHaCPMKAPS/Fu8OkYj3e7+uOh+OliuuITKuAI/ETBp76AY0FX4ENvCfQA4OOmc27wBnwH+GG7ehu829WnT/EKugU+TekcgPsqPsXBXeitT40gNl/wCn66gjsHeFg0eLerdysepsCnT/HRrj5K8Qm7egXfAm/DT8TVRynepXov8Bb01Cn+/5cCzvAU7wZvwA+g+FjgU6T40J5PnWpAT6ni0xHVuxVvgzfg2+CPp+JTH9wlp/hE0rnQnv86lRzggyoesL0Ub4PX4KcI/N4oxcMU9HjgUzc6p6Bb4D2Cu1iKTyCds8EHK+DEdvUm9IX0/wAzCJxOx5lSTwAAAABJRU5ErkJggg==;" vertex="1" parent="7oCYW-wZGabHslEQ7wRl-33">
          <mxGeometry width="80" height="80" as="geometry" />
        </mxCell>
        <mxCell id="7oCYW-wZGabHslEQ7wRl-35" value="Cloud Front" style="swimlane;labelBackgroundColor=none;fontSize=16;align=center;verticalAlign=middle;flipV=1;startSize=40;fillColor=none;strokeColor=none;" vertex="1" parent="ooqM9sPuauhWhxl2Y_vB-14">
          <mxGeometry x="600" y="120" width="80" height="120" as="geometry" />
        </mxCell>
        <mxCell id="ooqM9sPuauhWhxl2Y_vB-61" value="" style="shape=image;verticalLabelPosition=bottom;labelBackgroundColor=#ffffff;verticalAlign=top;aspect=fixed;imageAspect=0;image=data:image/png,iVBORw0KGgoAAAANSUhEUgAAAFAAAABQCAYAAACOEfKtAAAbr0lEQVR4Ae2ch1eUV7fG3//krrvWXV8SY4yKIkoRBJRmj5WidAHpXYqg2HuNxpgYY01s0RgbRZAm0jsMDGVmYOi9CMJz1z6HoQ/MIJov97us9UaXUWB+7LPLs58zQuDKPASuykfQqgIEm/Bnj0kh9pgWIYQes2KEsqcEYeb0lCLcohR7LUTYa1GGvavLELG6HJFr6BEjck0F9q2twH561lUiij1VOLC+mj0H10twcIMEhzZIcWijDIc3ynDkO3pq2HN0Uy2ObZLzZ3Mdjm+uw4kt9ew5uaUBJ7c24NTWRpza1ojT25pwelszzmznz1nLFpy1bMU5eqzacN6qDRes24eeDly06cD3Np34fkcXLrGnG5d30tODH+ix7cUVeuze40d67Ptw1b6fPT85fMDP7BnAz44DuOY4iF+cBiEEEMBJIAZPB5GBHAsxYhiieATi2sohkMogShlEDnIE4tFhiPIxEE+Mg3iKQWwagtiCs9snQjxvNQlEm64hkCMQGcjxEO3GQuQgRyAKAStzMXOIIoSzSBQNR+J/GkTB35gA5vIonFEkfl6Ix4eOM4/ExuHj/HdFouBvnIOPh0h5cerjzPPidDlxuuM8NieOP84TcuJnOM6CnxEB/DwQWWH5P5YTBT+jbMwexM97nBXVeXwkfs7jLPgygP9ciH93ThR8DbMw+xD/E3JiH36064PgQwD/Joj//JxIAFdk4tNBVD8nRq2rxv41Vdi/mn6tRtQaCaLWSnFwnRSHN4ydWP4dmm3Be0UG/k6Ie83FCDEuR/CKcoQYiRFhVomDG6txbJsEJ6ykOGktw/HtMhzZJMP+1VJEmEgQsUqKfWYyHFpfg/EQP3dOZAA/PcSxOTHMtAyBBiIEG5bh0JZKXAuuxcurzciO6UB1YS+aavrR1TaA9938od831/RDUvgeObFdiLnWhpthjThlLWcg95nW4PD6WhwbNzuPr86fok8UvAzSQQA/OUSLUuwxLoW/XgmiNpbj7iE58uI70N7Uj8k+BgeA/veD7BkYGJzsr6CrdQCFiT14dKIFpyzrsM+kBofWfb7Z+QfbHgieBun4lBBJwQleWQwfnSIctRYj7lYT2homh1aY1IkfvGQ47yzFGXspTlhLcNJGirP2MvzgUYube+vx7PsWZL7oRF1F3xiobQ0fkPR7By461WOfSS2OrJcPqzjjI3E2+0TBU/8dPhXEPaYErgCR60sRd6sRvV0Dwy9aWtKDJxfr8fBUHZpkHAYd2YS7LYhcXYEQYzEiLCoRaV6JvaZVCDWuRKhhJcKMqhBuTNKYFJfd5PjzbAsqcnqHP29P5wADecqqDvtNa3F8M5fCOMTZn505wFmGuMe0EAFGhfDWycevkVI01Y5ES2FKB64GSBCyqhT+uiXw0y3BvvXliLvVDMVRbarpwzHLKoSbiBFiKGZV+biVFIc3SxC+qgoRptU4sFaCA+ukuBHSgNzYruF/qyDZIv+Ah0daGMQjG+pwYiuBnEZPnMHsLHjop4FF4WxBNC2Aj14eSJRNfdKseD2oKuzGFf9q+OsXwX95McLMhkTZ1WUINRExmBfdJagVv0dBUierzBHmFXjxYxNqyt6jt3uAHf2815244lmLPfqVOGNXM/z56TcNVX3IetEFSdH74T/Pet7F9MSDayaH+DHHmURZwX15GmYLYpBJPjy0cxG1tYQBo1cx8GEQTy/LEWhUCF/dAoSajlK2zcf2iUGGIkRtJFWbjq8Y5VndwyCooCg+PvQN4m5UA4OYdK8db+624UevOibM7jWW4uDaGsRea8PAUMaQlfThomMDDpjLJ43EGUPkAN9iViCuyoP70mwcsytFs5wf2UbZe5xzK4eHVh6CVxZOvh4YB5FanIDlpUh93Mp4UcG5HSXH0e3VOOcsRVZ0B/tzypdUXFhOXFmNSHMJDq7n6wHqD8ONpbgW0IDmWl6w2uo/4KpHI6LGQPyYnNjJ1gPC7uUE8OMgkiC7e2kWjtqWoL2Zf8PivC5EbCiC57JcUE6ccscyaj0QYiLCMetK9L0fwIf+QVzxkcFPW4S9ZmKEGouxx1CMkrc8MhNut7LCMrJj4XqiYscSaSLFaRs5qgv4ke5sGcCPHo1KI1H9PrETwm69VOxenjpjiKQlemhnIeK7QjTX8W9UlNkBOs7eunkINlUsq1SDGGhQimt7ZCzKqot6WLMduXpkxxJsIMbdqDr2/0UZ3QhfVYkDYxZVo0TZTTXYby7D0e9qIc7ilZranQsODTg0SzlRcNNLAUF0nyFEr+UkRmSjuriLvaiK/E4ErsyFl14Ogzh62zfdoooKS4B+Ca6FcIBVhQRQhIjVPC+Sqh1sUI47+8cBXFeNsdu+sRCjLDhEmmToo1bUh2Ob6sCqM1sRjK3O6uREwU03BTOF6LMiC7s005H8pJF9Y0017xG2Nh+eOtkIXKX6to+a7RCTEgQbFyPAoBhHrMTo7xsEFYtLnhL4LCtBuFk5q8xB+mUoSulkXy/hTiv2rKhQsjIdC5Ei8bS1HC1DOTEnuhv7zT6yT7Ruh+Cqm4yxEFXMiYaZcF70DldDy9mLoXx12rUUbksy2ZJKnUVVkHERAlYUIf1FKxJ+a4b3siKkPmlhn7elrh+/7q3Bwc0VOGVXjfRn7ezP+3oGcNpOgr1mFYhap8LKdFMNIlfJcM2/geVW+iQPj7WyPlGZsq1KTmQARyCmqnyc3XXT4W+ShWY5PxZPf6yBs0Y6/Nh+RfUdC8HzW16AtGccGL2ww9vLEWJSCnH2SBvzvmdkiqHW6E6UHP46Zdi/Vr1FVbiRFHHX+Q+hvfEDm6E/ZuwTXHSSQADVgrgiHY4L3+Llr7yRlZR2wVMvE976mVBnxxK0qhBe2vl4c7+JR1XvIH4OkSDIqBhBRiUINy/Fi58aIK/oRV/vIDqa+5H/pgOXPKSsMp91kiDSgjsguAti6kik6kwtzoG1NagR8VYr5UEnm51HOyDGTyxT5UQGUC2IBu/guiwNYRty0Nv9gb3wCz6l2LX4ndrKtrtWLh6dr2Wfg8a4n0Or4bW0AKFmJQiz4HnRT68Y4eYiHN4mRtR35QhaUcqksLSnbWw6ueIrQ4hROXM/qAoxwkSKm6E8b/f1DOKiY/2wiqOunijs0k4EAZwIUVGdJ+ZE+wUpeHGdR19RWht2LUmDtxrKNptYluXigqd4eIa9d7KGNdyTeXFCTUvZ7EwjX7hFGYKNRMiK5seQKnWYiZgJEOoc50hTKcrSe9gPL+V+JyJX1aivJ1q2gAFUDnFiTnTTeQvfleloa+JH4IJPCZwXv1VLT/Q1yEWIRQFoUqGPpEdN8FiaB2pzlBqaRjfbq0Q48J0Y7Y28ab93rA5BBpQPydSkmheHmuxb4TwKO1sHcMpSjsMbSJRVT08UnLXfgACqCtF+QTJ+2itiL1xW3gV3nXfwXK66KEsuCC/dHOS85qOapKQbAcb5CDDMZwLE1BPL0Oy8ugx+eiV4fK6efR8N0j5Qs03zs6oQaeyLWiNFbTkPhD9OtoCUbeYMUwkid4QJzssSoCpEGvscFiYhM5Yn/T8uSWA/P4UJslOJst76WXBflondSzPZ1OKjn4OX1+VobejDGZcyeOrkqjGxcIhhZiKEm5ehQcKj+MHJegQalKnlCgs3kiD6J/6DLE7pwT4zdXcszRCcCKBKEFPgsiwFfibv0NnGj87BHXnYtSSVy2HjlW3DTFCj7aL5DoGmOTjvKcJPoWKcdimF74ocOC/IQMTGQvgZ5k7wJ043sVB1Jn8iaYkPT/OppLa8F2Gm5SwKaWJRxYuzz0KCS7vrMDgIkBBLjfbYRdX0XhzBcWk8VIVor5GIU7sL2LGRV3Zjt95b7NabXE/0MsiAy5J3uHGwEo2yEcWY/nFVYRfOe5bBZVHmR7jCSlmvuG9dOdqGciHN0LSoIjmMA5w6J9KqlERZxXqAciJt+8jkOX7bp6zZZgBVhbhj3hvcP1/JACY/rYfdgiSlUhgVlntnqtnfpf/UlHcjL7EVLUOCAzXDF73L4L4sa+YQLUTw1S1G/B2eUrJj2hGoLxpyyqoGkdYDGc/5aBh7vQ17V0qHnbKqQBQcl74GAXRcmjBtJO6c/wYpf/HEfee4GJZfJsBBIxlUWOzm068prEd0007Dvm25wyPTg/MSuGtn8F7RKBspQ7Nzg7SXjX1+hjkzhhhkWIJzLlXA0DE8tKWCHWVuN54eYphxFf66yJXzvNfdoB5xtN14PERFn8jtxo0QHLQIIIfoNAXEXdpJcFicCFF2G4uq7wOLEbQmHed8inDjUDkeX67Gy5s1OONeBJuvkvDHZQn7e1lxzbCf/xYeyzOYA2K3dga89LMgr+Q92GX/chaF6szOoz3boWalCDYugaSYf747B2oRqF86yrPNISrLibRjuRHGg0Ja/J4t75U7IMbmRIIo2GvFYTREZZHovDQRbnrJqK3gslVHKy//w2d06Dcvrsuw5b8TkPwn/6ZuH6uEw8LU4T6RfDjOGu+GFZx7pyVw1aQKnQUv3WwEGKuu4rCJxbyErUxfXeM9XfrzNvgvL2HGd1XsxhGmVbi8m09DLfJ+HNksw8F1CvP79J5twX5JHFSB6LjkDbyMU9BSz9sG4kW/L81qw9vnDXh1U4YnVyQ45pQP6zmJiLnDv6nnv9Rg5zcpDCBf4HMVp+gtj+Tr+yvhuiQDtw9X46RTKTx0suCxLBsBRhNvDyirzgEGRbjszfNto6yP3R6g8Y9uD0wHMdKiCmfsZGx3090+gBOWMubFIdO7KsZ3wW5JLFSB6KCZAB+TVPR0fUB/3wCOOOUyHdFxcRJsFyRi57eJsP02Ebu0UuC0OAUXfItZTLY397F8SBCdFr2F7dxU/BBcxkY40vxC1ubikHXhcCAXJLfhSpAY1Cu6E8iVY69gTAYxeFUxIjeUoqOFt1dnnCoRbFyqkvE90qISJ6ylTKwgweKkDTXYEhzaOEpPHHUFY3xOZACVQRydE+01E+BtksIEBJKWPAxTYb/oDVx1JuqJu3XfMpAFKVyiam/qw8ML1fghWITom7XDxeXF9Vo4zE/DAcsCZEQ3M3FAQbI8pxNXAivgqZ0Db71cBA3dYeF3WcauB0JMSYgtQmk6r6a3D9TAX794zD2W8ZGoyIkR5gRQwgC+7xnESWspc4XxeyzTQayDYKsZAw5w6kh00IyHh1EyOlr6WLgHrXsHB803SqUwikSamfOHICrAKH5NuF8Hd510eBtkMinMRTMdEZvy8fRKDVrrR/JrTnwrDlkXY/cSyo/5w5eBxkeit04BEn7n7UzMr43w1S2acBloPEQa+0iQPW0rYa+pq30Ax7ZLmLVu/KJK2XFmAFWB6LAkHi66b1An4dUu0ioTdhoJk6g4QwKEPo9Cl2WpuBJSiqQn9chLbEHc73Kc8SiGy5I0eOhRZR7xJ3roZmLXonQEm+cykD2dXC6jpfr90zJ46ebCV3/yRRUBvH+S593sWCokRUxPnO4eCyk5F934DoZWoGStI1+i0h3LuOMs7NSMBgFUQFR2nB214mGr8RplOTz5n3LPw45v45VIYSMQHRclY9v/JMB2XhJ2aabCQSMFzppvpzQ00aJq16IM7NtSiMzoEaWaojFsTQE8tSfOzr56BbgaxAtJZX43E2WpxaFiMhVE8ib+soeDlxT1Mn8imTzpatrUEGlaqYWwc/ErjIdor6SwWM6NQcozOTuFN46KYDU3Drt0lOuJTkuS8ehSNWLv1iJiaw5clirmZtUMTVSRd2tl4kZUFbo7eDTWV/fihEMp3LVyxhxnP/0CnHMVs++NdtMKQZbd7RslhSnu9imOM8lgj881sH+XG9fJTJ4q7VhYJNZC2EEAVYS47ato/H6OL5HiH9bCcm6sUinMRTsZrjopaKrlc/Bp90JQNKptIzHMgcviDBy0LGIzNL1S6gR+DKICkzsMMdC4AJEbSvD4ghy3D8oQZlEMKi7DFySVQKTRj9Rt+oi+1gzaO6uibCtyorBj0UuoCtFqXgyOuWazLyYp6wTlRarUk+mJjpqJCN2Ywfurjn74m6WD8uFMbCS0vKeZ2d8oF1kxI0f657BKeA/lRS+dPAQYFcBLOw9uGrmgI83VbeVeHLptGmZWhppy/kO+HlrL1wMqirKHv5NBsCGAwxCjJxzn0TnRViMW7kaJ6GrvZxJQ6OZ32Lnw9aR6ou2CBJzx5MpNeV47nLWShzZ+M7OREEQvvWzWGyY/bmRqNllJXBZl47i9CMmPmyAT9UBe2Yuc1234KbgavssLsMekaCgKh67qjsqJe1aW4oxDFetJybt4ZFsls5CoKspSFAo2Gi8wHcTROXH719HIiOM5487pMmz7KgbOy95MgGjzTTxuHi1j0Zr8tI4129wBMXHHoqrJkyD6GGTD1zAHYevysWthJq5HVqGvd2Tlyb7g0H/i7jTCT5/WBHTneXQkcj2R7MZ/fs9HzqLUzjFSmKJPnPq+sxSCNQFUFaJWHLZ+9QqXQ/nkUFnUDluNOFCFHi/KWs99jT+v8qr4188S7JiXADfy4XyEjYRWpgSR1JvdWtzMRO4F+sh41YKzbuU46SjCy1/qMDjkq/7tqAw+ZKsbd2mcbCSjRYj7x+vYtk9VFUfRJwrWGs8xOcTJq/NOjRi46iegvZnPxEecs2D1TewEKYwAvrwlZS/uwcVK2HyTMOSA+HiItLwnB0Tqn7xxJnhumtnwoKlFNw+7Fmbj4Rm+Nayr6kXwqiL2jIZIk8oPPvwH3NX2AQc2iUHWOkV1VlWUFawWEsARiCwfTpET6Thv/uIl/rpexeBkJzTC8usYpimOVrapxXl+g0tajy4RwHj1lvdT3B7wWUHHOBu1FbypP+MqYgIE8+Osyof/inyEmBeyRTx9k8dsy+C/Yqw/0VevEPmJ3GuYeL+Z3R4Y3+KoAlGwWvgM4yFOlxOtvo2Gr0US3vfw3uywUxYsv45mUaiAaPl1LB5f4ZD/uiYBReRYB4TyvfN0OdHbIIs5IKgnZIDsS7ihaejtC/xJyVlZgOY6PhKedCiDv0HB8MqU4H3vxZV1yp/Hd4rZcR79HhDjI1FZThQsGUD1IW761ws8G4rC8rw27FgQCzvN13BcxpVtAnjrOC8iCY9qYTOPTy1jIc78OLtqZSD3Dd+oPb8mh+O8dPgY5MDfMJcVl0v+YtYp0D2UsNVFoD6RVqZ0nCkaK/K474aij65g0KJqukvjk1VnwXLBX1AN4khOtNOMgfWCaLgsj0dLPY+Cu6fLsPlfL4fXA5QXLwTwNiYvuRk7F8SDVO2JDoiZQSSAlwL4D4j2K/dOSRBoksdu31/yLUfLkCARfaOeuWRJxSGnLNmNH1/k0xTB3beRigk13NOPfTwKFYuqKuYKE7YveIqpICrLiXZLYrD5i+e4EJTHjhFZciOs3mH7HDrK8bCZH4d9Nhns/8mru1mz7bT0zdSzs5omT1etdETf5DDoC9EI11Q7IviWZnQgcGU+/A3z2d7ZSzsXp5zKh9semlhIhAhlb+cysU+cLifSyCdsn/8U00FUlhN3Lo7Blq9e4M0TXvHkVV1wNUiA9bcxsFv8Gp7GSeju6MeHD4MIXJcGu0UUhcpnZ7X6RMNMeOlnwm1pOm4dqoJUNGKFI8vdi1/kbEVALohg03x46+UhbE0hFHkz41UrfHTyQZeBRlfn6WbnMYVlXSWEbfP/xLaPgGg1/xXstWJRVcLNPsUZLbDTjGMQdy6MQ2k2z1NnffJhPS9u0rFPLWvd6OpsmAnvFVlw1UyHu04GIjcX4MjOIgSb58FZIwMnHEsQtraAWUmosJRlccG1pryHHecAw5HCMlOIwlYGcCYQeU6ko7zt6xfwsUhESwPPh7lJTWxNsP6/nuP5Dd5rPbteje1zYidMLB+dE4ci8YBVAfaszoW7dibctDIQe5s7DmjX4qaZhcJU/gNua+zDwe0l8NHNU+H2wNRSGOVEYeu3T8AhPlUpEifLiSwffvkCIVtShxvsovQW2C2OQ5Qtz4NVxR2wW/QaTlqqe3FUMb576dOaNAN11T1M8jrmUAyHb9/h4XkuktLRLkrj8Dpb+3HCQcSLisq3B6aGKGwhgKMgzjgnLonBpi+eM4hNct7gysSdOOychXpZD2spwra+w44FcRPGPnX9iaP7RBetNJzcVcSKVVdbP4tCt6UZ8NTLApneFR9UlY/bl7LLQORPVOf2wFQtjrBl3mMoICry4UxzoiISvc0TIc7nGltvzwe0NvEXcu98ObZ+yRvu8bPz5BCnbnHIEeawIBVxv/FK/OZhPay/SIGnXgYeXZAy3ZAAVhV1MXWb5md1bg+MFyAm6xOFzQRwViCOzokv2aLq9QN+jBRRQBqizfxYbKfRjwkQE1UcdXKim04a/E0zQavT/vcDOGhTgKP2hRDn8WJBX5euYDA9UTtL7dsDEwvLxOMsbJ73Bz4GorKcaD3/FWtxzgfmokE20mLkJDWCRj9ScbbPiWF6IrkhmCirdD0wMRLJFWYzJwl3TvCRjJb8Wa9Hboc21rzHT+Fi0LbPSy9r6N2ZVL89oNwpOxaisOkbAjgRoqKwzDgnasaA+sTNX7xgE8uTq5VMiFVEY1leG26fECFkUxpoZUrrARIgdsyPh92iBLYydVqSCGetJDgtSYKjZhLsFybBdn4S7OYnwVU7FVHWuaiX8nyr+Ly0ySM3RKBpNrvHQh7FT/m+OMKmbx5BGcSPzYl808fHPgLpbZaEx1cr0FzH2x3Fi64q6UDcvRpcP1SKE265iLDMAO2d/czews8sDcHr0rHPKhunPQpw62g5Eh7KIRVxj47iczTJe/HsZxm7PeCo8RZ0j2X0ynT2IfJIFL6b+xCfBuLY2ZlWA9bzo5kU5qIfj0t7CpD2qo7lLwWE0b/S9EIOCFJ86BbUZB+05M+IacLVcBH8VmUM2+umshurc49l/PJ+Qk60EIEBnE2Ik+XE0Xtn0hN3aMRi65yX2D43Gu6Gb3DUJRu/nS1H8lM5ynLb2LHsbO0DVXC6i9LZ1sf+jHYrqc/q8eBCJU67F8DP9N2wP5FuD/D2RrWV6Wy94Zqwce4DEMDpIM5GTlQs79mORYu7wnZqxMLqmxjQypTyIC3vyQHhaZzMzEw+pqnwXpkKt+XJoE2f7fwEkFOW7Ma7lpKmOPMdy2xAFDZ+/QCqQpyNnDgG4iTWOgeteLYudVgcD3vNeJArjKx15E8kOYzMTDOendW4DDT+jXmVHWdhw9f3wSHyKJwuEmcOcSQnTgdRmclzJs32p3pLF8WNKmHDnPsYgajacVYH4nQ5cfTeWRWn7L8bRGH9nHsYC1G1SJz1nDjJcR7tT5z+MtDMdywf0+IwgDOFqE4kKhNl/+nHWVj31e8ggJ8f4j8/J9KbCwlrv/odyiH+f06c+i2iCeCXv2FqiP+fE6eCKKz58i5mC+J/Yk5kAP89IP4zc6Kw+os74ABVicTZz4nTVed/9z7xfwHy0YmHsFrqdgAAAABJRU5ErkJggg==;" parent="7oCYW-wZGabHslEQ7wRl-35" vertex="1">
          <mxGeometry width="80" height="80" as="geometry" />
        </mxCell>
        <mxCell id="7oCYW-wZGabHslEQ7wRl-41" value="AWS Lambda" style="swimlane;labelBackgroundColor=none;fontSize=16;align=center;verticalAlign=middle;flipV=1;startSize=40;fillColor=none;strokeColor=none;" vertex="1" parent="ooqM9sPuauhWhxl2Y_vB-14">
          <mxGeometry x="440" y="120" width="80" height="120" as="geometry" />
        </mxCell>
        <mxCell id="7oCYW-wZGabHslEQ7wRl-40" value="" style="shape=image;verticalLabelPosition=bottom;labelBackgroundColor=default;verticalAlign=top;aspect=fixed;imageAspect=0;image=data:image/png,iVBORw0KGgoAAAANSUhEUgAAAHUAAAB0CAYAAAC7WH0ZAAAAAXNSR0IArs4c6QAAAARnQU1BAACxjwv8YQUAAAAJcEhZcwAAFxEAABcRAcom8z8AAB4HSURBVHhe7d0JlBXVmQfw1/vCIihqJhpPoidmJmMmJplMcnJ0JjMxk0wmM8lMzmQmcUEa2bqhu2m6aVZRFhEFFEXFJG5kACMRAXGJu8aNCBEEmu6ml9f9+vXr1/u+wzffvXWr6t5bt96rel2vF5w65zsYeNaL79f/W9+9t+rhCxRNhbqiKVotFStYbK36ZaQmi7Vcq5BeK8RqWDEJGlZaK7xKqtVaNa7ONOt2s5pIrbFW8x2kMsy6U6sWvtaa1UpqXbql2tYrakM6tNNK0+ouszr02ihWJ6m7U8XalApdct2jVbde96YI1UNqs7V6t+iVrNVWrfpYUdSIsCrc8wLWinq+wBqobmHHKrEU1TNY54nVUCcGrC9QiKCk4pVYCdfTxCpwLbAMNyKsIrUqWDOxVlzPYe9RwCpwVbAWVPeJlVBVsALq/yfWMawDVBWsiSrhjr/EcrgM9lOb2Ciwtqh2sBRVAev2GjtWiRVQLbBWVDtYt4mlqLHCyqhRYH21CEnKDayBK8GeH12x86HYktgosAbuCGENXBtYX+0SRCUlw3K4nsNKuOOveUJI10MxYkqp9RzW4VAsoMaUWBkV69M23Rlv81gTlcMVYDnc8y6xTmAnYPNkRcWyQ3ULa0FVwQqoEzuxdqjxTixF5WB9NQUXWFCVQzGpT3NiHcKOh8RS1JoCCZXD/dTAMlx7WIScIM0TQ7WBRUQLLEONCyyHOiawCBm3xDLUuMByqKQ4VK0ssAxXgOVw459YLFewHG68YMd582RB9TSxMiqWBVUFy6FqsFbUyLAMVQUroY4erIgaz8T6ahYjJKlosAxXgOVw459YD2EVuO6vseM3sSaqE9gIqG5hTVD856UZUJfng7p8rYJ8LdaqXq8CsUKklkhV6IMGrDBfRfh7WI0rkxF1kgVVCYuQEzGxPj9iknID62lil6ZDaOVF0PnaRuj7ZF/0OvGssvodVO8H26Fp4+XQuCLlvE6sgeoKluF6AVuX64O2Z3NgtI6+Y7shvBQTuzr9vIX1+fNNVANWQCWlRvUCNrDQBx1/WMc+8vgf54YHoWX7NyBcjLA6qhNYhJwosBqqClaBa4FluCOBpagvrWEfOcBg8GNo+/0i6DhQCB0HFfW8WZ20lljrEFfPF0DngTwYaipj7wDQe/RJeo1tvD3jvIQ1UTlYO1THiWWoTmBl1J6ju6B2NjZMi1jh8EwqqBc2VHzVk8KGSihsqEJc1S/A93jmVvYOmNbBXmi5/xoIL0sQu2IJNWZYCdUxLEMdKayvmkflYO1xJVQOV4DlcCPByqi9x39PO2F3050oCxQrUnGaMxWGGkvZu+D7fPAIkA5ZT6urxDLciLBjmFhEnQZjCRvIkVCP/R4CmEgB1RGsFZWHbcCpT8f+hexdMK39ndC8+YuY1kQDdcxgsQTUEcL6qvMI6tjB1hLUF62oni9QLE+B8JoLYbilir0TDvXvbIYGnNeebwsUGqpeiOsOduTNky0qaaQ8XismCxWdLyxl7wRwtqcZmu6+AsGTYodFyPEGK6JSWA7VEawC1QVsRNSYYa2otJalQOPaS2G4o469G0D36+sgrKf1PEmsAjUW2NgTq0TFrtdA9TixJK1dr9zO3g3T2tUAjes/i2lNPm9gfVW5EqpTWAlVCYuIFliGqsPWZitQsSMWUJ3CcqgarAK1GPE2XI6YjewdATpfXmFeW+1gJVQlLELGDZahOoGlqEpYisuhqmAVuBZYhivAcrgq1FqCikNzTLASriqxZB7b/cZG9o4Aw221OCxfjFMfHJ4jwSpwx2NiDVT7xMa3eapRoZJFB4IaJ9jQUmyMNl4JZ3vb2LtiWp9fTIfm82HbTkC1h+VQPYYlqO02qPGEpWl99wH2rpjW5gqc8kxnCxUTG9aCqoRluPGArVmgQMXhV0eNF2yoKBGa7v0ynBvoZu8M0LFvvpHWiQzrq1pkRbWH5VAdwSpQJViK+oKJ2nN0N/hn+SgsX6R5Il2xUGTqQ9Z2XcHqac2km+w9h3/D3hlgqOEUzmcnY1rTvINFyNGG9VUS1LjCRk6sjDrcWgs9H+2Gno+fEarXplp2/gKCBQkuYbXEhooSoOm+a+HcUB97d4D2383U0kpWoQxYDjcWWIY7WrCIOh0MWAWuZ7Cq1DLUjpfXs4/U/XFueAjCm69F2ESXsCytOJXp/fMudjaAwboj+GfpWlrZunHchmIO1xbWBjcSLEPlYCVUJayHzZM/B9PyxC/YRxrb0f3h43R7TkB1BIu/Fvqg+cFvAZwdYmfDtP72v+i9Tjxq3GAZqpeJ9VUu1FG1cgfrRfM0BVOMH8LjP4e2A8vMOqhVu6La9uVD9+EnGQGmdaAHGjZ9BeoKkmKAzaSAfSf2sbMBDFS/S5cUwysxsaMBy+F6AauhCrCIGNfEyqgabA02QmQoFgqnO6TIAgWtHK1q5mGTVJgJQ02VjAHT+u5D2vJiDF0xuYa2PPIP+NNxlp0NoPXxfxPTKsCO8BqLiPFMrIkaKyzDdQfrbLpDi1tS1DcBSBHctv0FjABHz74OaNjwJUxrsnvY5SStCdBf+iI7G0D/mdewkUoS0yrAMtRxCOur4FFHBMuhOoJVoLqADSxJg+DKS2i3rB+db24R1o3dwJLpTcuvf8jOpB0tv7qBNlICKoc7YliGK8ByuK6aJw6WonoC69k11jksSWv7oRWMgOyPtkBo7RcwrSnuFyiWZ0B9UTIMVLzJzoZpLXleuzF8RYYSdbwm1leRo6Haw7LmSYFrgWW4rmFtpjvRYAMFqVB/+2Uw3BliDJjWVzZo11Z95clFYslCRuuT/8HOhMfZYWh5+HoNFue1FliGG5d5LIfrNrEaalRYNaoSNqbmKfbE0v1YhNSPs51hqF9zOdQtSTVhnSZ2Gaa1OB0Gaw6zswH0Hd9LGybSJSthjcTGAZahuk2sieo0sY5hR2coDuSnQP2dX6BDr350vLBauScbFZakNR8bsF03sjPhMTwIzdv+FtOaQFHjmliEjCmxEVGjwiKiU1iKy6E6glWgOoAlae18YzNTABjC5qkem6ggaaZ4WCeJxaTWL58Eg8Fj7GwAvR89QRspsgJlC2sklqF6CctQncL6zmRLqJ7DepDYQnLdzdTmrYsSLLCB/GQIrbuaTmv0o+25JfT2UwHVESy+Jg/T+sxsdibt5u+mLdfQnR0dNa6wDDdWWIoaf1gO1REsQnKprcnPhEDxDGh5ej407vgx1OalWGDJ4kTXO9sZA6a1uRKCyy/Ca2u6FRYrEmz90jQcii8Qbv7uef8RugfLoyphGe5YNk+IeiGikpJQvYQd0TV2CvgJ2LuPap/uuXMQ3v59qFkoJrY2D9O68Rphf7R1bzYdmlWo0RJL0tq+z7z5m4wCjZuupgsSUWHHOLEc6ghgFbgWWIbrFta/MAnq7/46fVpNP/pKX8dhOBkCSyYLsDUI2P3BY+xVAIMNJTifxT9bkqHeaMeygyVpbVh1IQxxN393v72VPqsjoyphGe5YJFZCHQGshGoPy0AdwlbPx5S+b0LpR/ihH1JEAxWrNjcJQvd8A84N9bNXAbTsnm3cSeH2DgqS1o7ni9iZtMWN8IYvQGhpsjNYrxKLiG4S6zuzQEaNBdbFdIfCOkusf2EK1K3/CpzrN4dU/eg99TKmNUlMa6G2MdBzhN8fPYYd8iSoK8ywh8VSwQaXpkDDGnLzd5CdDaDrtQ102hPxEQ8FblxgSSlgfeUE1QI7guZJgauGZaARYKvn4VTl7YfZx4mXU5LAs2wnBa+tDQ/eQPdj+bTWLMIOdet34NxZc7hu2XmjkVa3sGSftvMPd7AzkcWNBmhYexkOzwiO89pRhWW40WApqhqWlIQaFda7xPpzUqFuzV/C2d529nEizr4i6D1p7qT0njiEaU7EZopLK93GS4Ce48+xVwEM+A/j76djYjMjwyqG4mAh4q27As52N7GzAXS+tJIOzWSxwjGsV0OxCpah6rAGqnewiOgqsWrYqrnYfb66hX2M2oKCPzcDwo/ya7NnoeH+f6Rp5RcoCGr4gX8U9kebH/uZkFY3iSVp7XpjEzsTufk7gMPyxZjWVBNWMRxbYBluvJsnAdVzWAlVCYuoMmz1wjSoXXUlpsNc+ms7uAqq5vjAn5cJ/f4/sd/F+ePx/RoquYPCSOtker3tPcXtj1a8Q5cU6fU1GqyU2OASbIzuukq4+bvjwGIjreMtsb7y+YhJSoa14EqoUWFjH4oJXtuL5s1owx0NEFj+OUxqOu2Gm564mf0JHmeHIbT1OuyEcRhGUB2WNEzhh37AXqQdjTt+ZEmrLSwWD0vS2v1H8+bvoaYzEFo5DeqLyUIFBzsOEqtENWAFVFISalRYRHQJW70wHWqXfQ4hze20tpfWQzUOx6R58udPwl+nwEDgY/anOH/88zN0gYKmlS4rammtzU2GvrLX2atwfnv6FTrtqSsU02oLyyU2WJAE4U3izd/te+cLaR0vifWV6agKXG9gXezHImolprT1wGr2sWFKcQiuXX0lHZL1qQ5N684s9gq8dA4PQmjzt1nTRFahNFgyj2189CfsVeQgq1E3aI91kK07J7BYGiz+ICBg9we/ZufCtIZOGpsAMcEyXK8Ti6gXwXiBrcrJBH/RZ7EpCrCPDdOAzRK9lrIGisLmkbROhYHgSfYqTOuR3WJaaWFa89Ogv/I99irSMR+k0566QhxSXcIGFydC4+avCTd/t+2ZqaWV4I46rIRroM4jqBIsh+o5rITKw1bc5oPmvdwKDk5nAjitqc5ONVB1WDKHbd41j72SzGEHILTpm3RZ0USdSqHJ7afGgdfghvuvx7QibBHbbHcCS4diLa29/OJG4CheVzO0tI4YlqGOMLEaqgpWwo13YqsWToLqgktgsMlca+1462EtpXpnzMH6czNxKJ4Ogw3mTkrXhzvBv4Ck1UStXUxSjR1zzUfsVdgx4zWYNFJkBYqiuoCtI2nd9m2cLZk3f7fs/DldZaKoY5JYEdZEHbXEIqACtWI2JmrPIvYxYaAGeiCw9qtQRVKqo0qwpHlqfpr7Gp3BPghu/Lo1rQjdtHMmexVL9eZvQU1uIt0IcAVbjMM2Avae4BY3qt+DYFEqJhkTOxJYBPUisSKqClbCjUdiK3MmQVXehTAQMlPX+f6TtGmiQ7M0jxXSWjgD023e1N31/uO0kRJuZsOkkl8H60+wV+E1+PBOtiEwxTUsGYKbHiaLG+fY2cjixr9TbANVBTtK0x1f6VwJddRgdVR8Daa0cedc9vGQJPVD3V1/B5Xzk43rrR0sWXlqeXYJ+zfx3x3oheCGa7FbTjZRsUham/dw1+DBXgjdfS2d4hBUV7BL8dqKw3Df6ZfZ2QD6y1+D4BLy2EdmZFgJVS81LEN1CUtRxw4WK2cyXk/JvPM4+3gwbX96GlOaANW5OMTqqDaw1bkZULP0UhhqqWH/Nqb8j4/StAp3UORn4DRnOgyFzS+e7Hp3B71Fhq5CuYQlz8Y2PfojdibtaN5xA00r2QhwC2tBNWDdJ9ZAHSvYM5jSht+YK0SkAanbdD1UzE0SQSPAVpK07l/OzoDn6O+CurV/TbfuyLxWh/UjdOvePPYqvG73dUL9+r/CtLLbY9zAkuXGghToP/MWOxtA38nnMcEJ2A1njimsgOoIlkMdKWxFzlSoyJ4MfVXmWm73x/sRNBGHZhxa8XqrQpVhqxelQ80ynN+2m/ueHW9tZ2nVFiwIbE1+OgSKL8ZU+9mryKMa95tpdQlL0tr82H+yM5EfyGFoevA6DRYhvYVlqA5gLaiOYCVcCmvB5UBtYM9kJUDoEW4OiY1HcMsNGirXGVtgGS4PS66trQe5L73q64DgumvAvyhVgKVp3V/MXoWv62mF4J1XQW1eqnvYpZlQV5gOA/4P2dmAPt1Oh+DiSXGAdZZYX+kcK2qpjKqC5VANWAGVlITKwVZkXwAV8zKgt/xd9nHg/PHky1AxJwWvsVMFVFoKVB6WrBnXLLsMhtrM1ai2Q3cIaaWVi2ld8VkY5lP9yt20kTJQOdhAFFjyiAfZhNePc8MD0HjfN+nqk75uHBXW6V0UMiyHy8P6ThNUFSyWClZIq4TrBrY8C/+jH/wp+yi0I7jtx3DmNjL0IiKb7vAloHK4FDUHk3b71TDcGWZnA2jaNQ9RE0RULALdxn/PRFcj1K2+AtOapoSNmNgicpuMePN3z0dPsu8sxrQy1FhgLagqWIbKw1JUt7Ajbp4wpeVz0qCnxNxB6Sl9E5ObhsMyNj7YQLmFJStP7a9uZWcDGMQut2bJDG0ui80Uj+pfhHirrhB+ANoOrbGm1SEsSWvrHvHm7/C9fyN+D4UTWAlVL7ewiDqDoo5mYsuzkqBuy7+wj0A76h/6GXbCCeZUxwZVBVuVjUPvyqtguLuZnQ2nF8/k0+ss6Y4pqgRbPQ9/CF7h7mbA4ZgMyzX5UlodwNIbxpdNE6ZL3e/tsH4PRYywFtQosAw1NtiYEps9DcpnJ0P38RfYfz5g93sYKuZPgsrsqVoTZcA6SyzZCGh9wdxUH2r2Q03RpdgVZxiLFDIsSWvdHVcLdzOQBoo0UsYdFC5gySMebc/msjNp06XQuishgD88xt8HQAqhSZGdnfqiFMSc4jms7/RtOioHq0Al5QVsWVYyBO75J2z/zfuHQr+6Ccpn+YyuWIRlqDawVTkIV/w5TFo9OxvBWWluBDBUFSy5tna8sY39W+SHoZpOecjUxy0sebK9fsUMnC5Vs7MBzlsP0S8d6ThUbKn2A4shfNdV2n1OHidWQ1XBxiWx06FsVhJ0HjG/CaW/5hhULMD56oIpwnRHhLVPLFlibNlnPk0+3BGGmuVX0G5Y74ztYP0LU+kiBUmVfrTszdXSSlahXMLSJ9sPmtOlaEd/xZvatp2+EeARrK9ERxVwXcJSXA7VBrYsC+eM668THqFoeGIOlN/q0663COkGtjI7E6oLLqUJ04+2FzfS4Viex/K4PCxJK1lW1I/BcCliTsO0ZhjrxnawxnSH4QYK0iC46jPCdCnSQW47Dd1O7kpMs7/GxjDdoagCbLwSOx9TOjMROj4wN5gHgiWISf4MU6p3xi5gyRJj0x7uOtbdCrWrvkgbJ3q9lWEZKg/rz0mG4F1fox2rfjTvniPuy8qoHKyc2EBeIjRu/x5Oa/7X8pV75HsX+8teZe9CRpUghFbPwA6aQ/Ugsb6S2RpqvGFLs9LAv+ab+OGZz7mEf7sISmeylPIVEVZDrcyejLBku+40OxtA++vboJKklGuiosNOpWnt+vApdhbyw/YJ1BbgcJqvbdlFgzVwKSz+7/wk5Zdk1mI3Hr73WvYuDHXVDJpUL6c7GqrHsAIqgz19SwK0vf04+8/BDy5cARWLLoHyeZPptdYdLFlixA/oqdvY2TCl/V1Qu+YaqFyQKqI6gK3OToL6Td8SLgtNT90iptVlYvnSV5/I8mHjg3/P3sGKGhXW4QKFiRrHxJZlpUPVyq/iB2/eXtn4dBGU3uITmijHsDk49cHqrzFvE+1459e0aSLDsgU1Gmw+SWsCdB/9HTsb/tDVHMHfx6SyDfaRwEZFLUJUD+exIqoK1sCNvXk6fTPOI18zH3QabKmFirzLoHwuSamOagOrwKXbdb/i1lsH+yCw/htQMS/FaKKUuBGap+oFSRDafD1GfpidFX/wfvNz/H0prVFg5eaJh42KardIIcNGaZ58p2RUFewIElualQFVxV+G4R7zQafGZ1dT6GgrT0rUbJz+zM+EvsoP2NkAOj/chR1vAl5rte06W1QVrJ5YktYFidBz/CA7K+B7vEcXKcjNa25g7RIbyEPUBzhU7JLrV10MwaL0yKgq2IioWReDI1gD1x1syU0J0PKSuSY71N4AFQWfh7LbJmldsV7RYBlueVYC1G/n9jCHhyCw8TqomJMsgPIVFZbhVi1IgIZt36dbgPoR3vFTllb96wrEsoNV4VpQMan1Ky/G10iodrgyrE1iNVSnsC4TW5o1CSoKvwTDXeaDTs0HN9KU6l2xASugklKgko2AuWnQc/oNdjayqX4AzsxJwhQjIDfdiYiqgqVpnYJNUzL0lrzCzg7QW/o6XaQgj3oIN7PpJaNysCrUsIyKSSV7suSaGxVVBRsRNQ6wJTfiPPIA9/e/4DyysuhqKJudaXTFbmDpRsBW7r4gTFTdln+GM7chKjfdUcEqcRWwVTi9aXjox+wN8KAPN/+AppUsVriFNXAjoAYZqgarxo0IKyVWRI0RluJKqKezsAnK/zwOt+aDTi0v34fDMaaUNVCuYBUbAT2nXsVhNxU7YW27Ti9bWBmVwQpPtedNps/t9JW/zd4F3+fEIajOSaRzWm3d2C2sllgLqn5N5VCViWWwEYdiAXWWhBojrJzYU7/E68de8/aS4d4OqCy+Bk7PyhSmO0pYCy5JaTIE7v4uJsfcCKh74CfYCScaXbEFVkbFsqAyWD6xVfPww3/0Z+xd8MD3DN33XRyaEZaiuk8sRc3F826TUFdYUZWwMqoKliXWd5KgxgqrwqUpnQJlCy+HwWbz1pLW13bgcJygXW+jLSlaYKdD2a2J0Pkncx5JboM5My8DzmBK+emOBTaWoTgX07ooA/qqzXuPuv/8LA7B5C4KPa3uE1ubmwCNEmqQNEpOv8BLhauApagjglUklqS0YTf395QO9EDVyq9jSjOMJsoRLEMtm50GNWu/TR+X0I/6R/4HymcliNMdF7AWVAmWbLA3Ps7fezQI9fd8h64+majuEktQ5aQSVPJ9FPoChRVWwpVRFbAGqleJLcmaCmULPgMDYfNBp+YXtsInP/FBCWKT5kkovMae5gs7Y71KSeHvlfy3Dzr+aP5FCH3+o9omANmy0xupGGCVuDps7iSa2IFa7uHmw7ug8lYf3autxiGaFMEnv5LtOkuR5oorf5aPPhWgHzwqaaQorAJXQLXD5WAF1BHBMtSTv0yC0FP57P+2drS8+jD+Xh6E9yyD8NOqKoZGvn7H1e5CaH7uDpp2/Qg9NguHY7IRcKGA6nViCV4j/3DzYB+0HboTWvYuhtZ9RdZ6zlptXLXuXQSdb5mb8hQVr6k6qgEroSphZVQO1nfyVhF1JLAlWdPg9NxLoD9o7px4fZDtOjosz+O260YKq8JF2GqSVsQd5HaCvDzIjW/k7wHgUSPDqnFlWA3VI9iSWdOgdP5fwGBLHfu/7f3R8OQCul2nN1AWWBWuA1iKq4AlT9417ZrP3t3bg2zI0854SaawSBEJ14LKYHlc3wkd1SvYmZPBv+lfof3DZ6Dzo/1iHXFWXXwdNasJh+Hy+dOwibrAaKKUsDKqQ1gLKqncKfjrFHr3f8/Hz9nXMb722VYvq54jeyD84PegNj/VmPIoUUlZYCMnlqJ6C4t/fnMmXluT4eSNeiXBKb1uEqvkZqluSYLTtySKNVOr0plJGmr2RRyqt4m1DsXT8fem0rkraYpokX9mpTdMZKNdKNIY8ZWtFXkmVi/y7TGBogsoqgHrOLFqWFKIeglF9TqxRknTHX6BQi9jmhPDdCcirIzqFFZAZcVNd4xiOzz6rTG0YpzuuEVVwhqoMxGVVNxhSSGil7AWXAnVDtcJrAo3Blj3S4pqXMewWBxqHGE5VCO1HsBSXAHVBpah2sHaPQ1gQWWwwloxQxVgBVRSalgLrgHLUFWpVcLaoRq4E3AotuByoBKugSrB2iVWiesksRJszLs7qsQqcPnE+j5BSFKjC0vKRWIZrh2sgesQ1i6xbmHtvrPYgLXgKmBVuFFgDVwbWN8nt6hQ4wgro7qCZaAKWCsqKQlUhSrAIqANrAWVwapQXScWS0BVwapQSVlgdVQGO+4TO8bNkxLXSWIlWIorw8qoKliHifUZqBMlsU5gBVRSEqgKVYBFQKeoDFaF6jqxEWBjR1XBUtzRSexEme4ocZ00TypcF7B2uPJQ7LOgMlivhmILri2slliKq4C1fA9FFFgDd0Sw02jFdyiWUBmsffPEUCOk1nf8ZgmUgxVQRwAroDqA9bR5cgFroAqw8Z/ueL1AQVEjwXqVWOewpFw0TxR2Ak53nMCqcKPAkkLUSymq48RO1ObJCayMOkJYFaoAS4qD9Wq6w1Cjw477xI7KNXZiTHd8x2/SUWOHNXAdwtrhWmE1VNvUegTrKLUGrHfNkz2uhMpg7XEZKoPVUF3ACqgc7ERJrOOhOCLs+G6efMd01DFIrFewdl+7Zwdr4I4Q1vPEOoS14EqwFFUvFexxj2AprgtYATcW2FiH4gkPOxX+D5fXXjszJWDsAAAAAElFTkSuQmCC;" vertex="1" parent="7oCYW-wZGabHslEQ7wRl-41">
          <mxGeometry x="-0.6900000000000546" width="80.69" height="80" as="geometry" />
        </mxCell>
        <mxCell id="ooqM9sPuauhWhxl2Y_vB-22" value="VPC" style="swimlane;align=left;startSize=40;swimlaneLine=0;spacingRight=0;spacing=2;spacingLeft=50;fontSize=20;labelBackgroundColor=none;fillColor=none;strokeColor=default;verticalAlign=middle;" parent="ooqM9sPuauhWhxl2Y_vB-14" vertex="1">
          <mxGeometry x="760" y="40" width="920" height="920" as="geometry" />
        </mxCell>
        <mxCell id="ooqM9sPuauhWhxl2Y_vB-23" value="" style="shape=image;verticalLabelPosition=bottom;labelBackgroundColor=#ffffff;verticalAlign=top;aspect=fixed;imageAspect=0;image=data:image/png,iVBORw0KGgoAAAANSUhEUgAAACgAAAAoCAYAAACM/rhtAAACUElEQVRYCe2WzyumURTH/TGzs7ObFRs2k4VSFrJhZWU2bGShRNEo9BYLaWpoamaKKEWSlLCYNwtKslBvkSgyNSOLM31uHd1u73PvfVzlLc9Tt/uc+57nnO/5nh/3rRte/ix9i501uURE6jpKTdI4+qEmVwEwNTMFgwWDqQykfl/U4Jsx2P+9W9aPfsnlXYUsmOe4UpaxtQFpHq9/taGP4Vw3Cc4BdnFzbsB0zbU8g+mZb5Wt41U5uzqRjlLj83kKi7kBrvxeMiB8LH1ZHzLMtk19TAaZC+Dgz14hjT5wytbC7rQJROWX7rkAkrq+b51RrBAE9QnQ8sU+fkzq7ZKIAR0NsPdru6m7GKOqQyM9/L0XmOeM/fbPtVCrqhPaowHSnTSAzyCNEXI+szkii3uzXju2j2iAGCVd9sf2+4/DBcMOafXVKUGgE9vlQYCfJhsMc6SGlNmg9J264neVD853hE5W2d0JFJC7pxsS6nQvQAqdxoAd14kt4xBQNBCLOckiOFvPfsf23PaEAerT8wLEMY5sw+47tUkQ6NqLzkV29V2Z4H0+vABxHCp6AFZzoGBdQK4Me3S6e66yF+Dj07/gUE4FCBCuzaz5mAlQIwvdGq8BkIbJylQmQCKLuTlSa5Au5snqZi9Auoxi13qotsO01pu7x8w6BjfjppptzrwAUQAgN4hvFGQZD53rvx5fIEGA1CC3CINYR4fLVF4Ze3rj+MBFMagsUCMM4bxgqulTOlldq/50DzKoim+1FwBTmS8YLBhMZSD1+6IG3weD5LmWn/8fTHuowXT1RQAAAABJRU5ErkJggg==;" parent="ooqM9sPuauhWhxl2Y_vB-22" vertex="1">
          <mxGeometry width="40" height="40" as="geometry" />
        </mxCell>
        <mxCell id="ooqM9sPuauhWhxl2Y_vB-19" value="Availability Zone us-west-2a" style="swimlane;align=center;startSize=40;swimlaneLine=0;spacingRight=0;spacing=0;spacingLeft=0;fontSize=20;labelBackgroundColor=none;fillColor=none;dashed=1;strokeColor=default;" parent="ooqM9sPuauhWhxl2Y_vB-22" vertex="1">
          <mxGeometry x="40" y="200" width="320" height="680" as="geometry" />
        </mxCell>
        <mxCell id="ooqM9sPuauhWhxl2Y_vB-80" value="Availability Zone us-west-2c" style="swimlane;labelBackgroundColor=none;sketch=0;fontSize=20;align=center;verticalAlign=middle;startSize=40;fillColor=none;swimlaneLine=0;" parent="ooqM9sPuauhWhxl2Y_vB-19" vertex="1">
          <mxGeometry x="15" y="400" width="280" height="210" as="geometry" />
        </mxCell>
        <mxCell id="ooqM9sPuauhWhxl2Y_vB-81" value="RDS" style="swimlane;labelBackgroundColor=none;sketch=0;fontSize=20;align=center;verticalAlign=middle;startSize=40;fillColor=none;flipV=1;swimlaneLine=0;strokeColor=none;" parent="ooqM9sPuauhWhxl2Y_vB-80" vertex="1">
          <mxGeometry x="40" y="60" width="80" height="120" as="geometry" />
        </mxCell>
        <mxCell id="ooqM9sPuauhWhxl2Y_vB-82" value="" style="shape=image;verticalLabelPosition=bottom;labelBackgroundColor=#ffffff;verticalAlign=top;aspect=fixed;imageAspect=0;image=data:image/png,iVBORw0KGgoAAAANSUhEUgAAAFAAAABQCAYAAACOEfKtAAAcV0lEQVR4Ae2c+Xtb5ZXH778yP3SGZvFuLdZia7Fsy7u823Ecx0B2SMhKCAQGSqEwkNIWBkoHCqWUsoQlhSRkw44dJ3a8b7Jky5blfd93f+c579WVJVmS5cQBZlo9z8GQUln6cLb3e857uai0JkSlkzVDldHCW2YLVJlGqLPIWqHONvGWY4Ym1255bdDktUO7g8wCbb4F2p0dzKJ3diK6oBPRu6yI3tUFXaHddtugK7IhpqgbMUU9iHm4BzGPkPUi9lGyPsTuIetH3F6yAcTtG0Tcft70B4bA7OAw9AdHEH/Ibo+NIv5xsjEkHB7n7cgEEo5MIPEJskkkHp1C4rEpJB2bRtJxshkknSCbRfLJWSSfmrPbPFKenEfK6QXenlpEylOLSD2zxNvTy0h9ZhmGZ1ZgOAtwUYZGuEBMd4LIAHqAKID0BDHfE0SrK8TdAsRuHiIDuRZirDNEO0h3iHpniAzk+hATCSID6Qbx5CrEZIL45PoQuUgC6AuiN0/cCMQC8sS1EHXMEzcZouCJj/v2xE2B+PQyuMjUBvAQm7x74s8JohDO+13D2aMn/ggQeYD3A1HIibkecqKf4bxZnuiSE+83nJ1yoks4n3bNiVxkSj2YF/oD8V85cU1h4QFuBOLPKZz9KSwPOCdyyuQ6MC/8vwrxJ86JnDKpDpsK8Z8lJ9r7RE6ZVMsA3hPEf/aceHoBnDKxFhuBqDQ0QZ7SDHmq3QwtUKSRGaFIb+UtwwRlhok/tfjTbD/gPlG3bxi6fSPQ7R+B7sAodAfGEHPQbofGEXNoArGPTSD+8OqJxZ8+kU4snCKxBn5BTGuCIrWRHfsSC4xI3NXKW6EJiYUmJO0281bUhiRm7dAK4fxjQnTLifEHh5FxfBSZJ0aRdZJsDFmnyMaR/eQEb6cnkX16kh37NgqRUyTUwAWil5yoSGlgjXb53UmMTy5hYnIJU9PLmJ1bxswsb7Oz/D/Tz8HhRSQ/3L7qiT9Bnxi9ZwgZx0cwMEqfa8XV5lcwO7+CqZkVTEzzVtm8iKQnNuaJnCKhGmsgJq8tLBGJ9Ujc2YKFhRUIr/n5ZYxPLGFufgVzc8tOtoKhkUUkPdwGBYXyRo59TIBYe+zjBYiNHfuiHx1ExrFhDI4t85+RPqfd5hdWMD61AvopvBaWVpB7ZpKFs7MA4SucOUU8AVwfYkRCPRLym5nnCb+w0zaPvANmaDJbkLybwpgP5eQiPpw1OU4qzkYgbmJO1B8YROaxYWSdGLHbKLJPjSLx8VEUPTcOa9+S8HUwObOCnKcmWU50V3G8QeQU8VXwB2JEQh0SdjRjanqJhWx37zz7xc2mGcTktCBY1wCFW2FZI4X9RBDJE5ntGYJu7zAidg0h5cgoWiyL7Dv0DC5jZm4F07MryDk9gZhD4x6lME8QObmeAFbZvdCDJ9pzYkR8HRLymhi8sYkl5OwzocU8wz6A2TKLhJ1GiPSNUDMt0Q898SfIifEHhxC5ewjpx0bQ1sV7ntm6hKL/HMfY5DLmFuwAD/IAPemJ7hA5uf4uHBB9hLM0vhbxdoCU+1RpjdBlN4Hg0csjxJ9Rn6jfPwhl4SDSjw6jrYv3PEv3ElKfGEXCYyOO3Jj95DhrcZgw60WUdYbIyeMI4PoQpXoC2Mg8kApG4s5mBKprEb+j2TfEn8HZWb9vAMpd/Uh7YsgJ3iIyj4+wcKb2hqo0FRgG8MAYEvyRwo5Pg5PHVsIfiFJ9DeJzVwEm7GiCLLEeoTF1P2uINBpQFvQh7cigK7xjw4jcPQhqsqlHdAA8NcaabTYeWAciqdqcjAB6gsgq82pOlMYRwAaHBxJAyotRhob7gyg02w8gJ8bt6YNiZy8MhwfQZuXDtt22iIyjQ1AWDoByIvWK5IkOgCfHoNs/ing/9UROFlMBrxCdcqI0thrxOQ1YXFzB0tIKBICk5PgN8UfMiTSkUuT3wPB4P9qsCyxPM3hPDLJwppxIwyoBIPteyyvIPjnKjn0MoB8QeYB+QJTEViMuux4DQwsYGl5g4UyFRZDCCGKYWzi3dcwhe58ZsuSm9ad99hZHndsGVY5g7VDltkOVZ4F6Bw2r7NM+P/pE1a4e5J/sR3vXKrz0IwMsnCknsmnfPgLIN9tDo8sYHltm4UznZqZuM4D2aZ+XcOZkujvgvXB9T1Qm1kCfU888MTKZRAjXE4szxLYOvjqf+2MvwmIboHKe9tkLS2SGEdIUI8ISWhCaYIQ4uRWyNBMDGJ3fjthdFma6AgvUeRbIsyyQplsgMrRDkm6BPKcTmp1OI1M2NqWRaTdkuTb87i9jzPMs3YtIP9zPwplyovu0T2i2KZTp7EwjU/9mLJPgZLrb8AuiPSeSJ1I4OwQILxCz97bi9Xd6oEhpRKTBde4sTmxGiL4JmuxW7D7WgRfe6MVfzg/jys1J1DTOwNwxB1vvAvoGF5nZ+hZg7phHTdMsrpZN4a9fj+HFtwbxyFO9iCnsgiSjE4ocOv7xc2easeh2d0NT2MMgFjw5wMKZcqIwd3aHqKVme8+g97mzl3DmIqIJoJ8QnXKiiwDhdnYmT5Qm8BU6khSctCao0kkGa0JYXCOKjlnw6YURdPXwpxnmJvf4FwL9+aUJ7H2mDxFZnVDv7EKMfXhPEMkTVbu67YN71+G9O0TKiRudOzOADwKi+6BKntyIyLQmnP9uxAVV3+ACSm5P4oPPhvHiH/pw9Hkb9p62ovBYJ/KPdCL/CSsKj3dh3xkbjr/Yi5feGsAH50dRUjHNvNP5zb6+OskG+ARR5xTObANis4b3bjMWLkJbDgK42RDliXUgASLS0ADyQpG+Ht9cHmXflxrxL74dwf7THYjOMUKU0IyQuCaExTdDlGSEJMWICEMr5GkmyNNNkKWbIU0zQ2IwQ5xiRniKGdL0dsQWduLQc704//0Ea4Lpzb/9YYoP5902qAu6IM/tgrZwAyqOm56o95UTD4+DB3gvEN36RKZqJ9WCTiyBqmqo0+qRmN8EeVI9a7j1ec2YmVnGygqw75QF/yauYeGsNDQjinZyvJ1YvPWJOyysOovT2vHvGjMOPNuL5RWwfi51fzeUuVZkHu7B8VcGWT6UZHVBXdDtdRfHn3B2mTvbPZGTam6BeeG9QBRyYmINpHHVCIi8C11mPf7rTRss1lnUNExBGl8HSTzB5JUc8pKS2xPYc9LCciKpOJQXpUnNkBtaEJluhCqzFaosE1RsqckMdQ5vUdltUGa1QZ5hhjjVjPBkMyJzLThwtgc3K6eZd0/PLCPtYDdCUjrw4Zfj7M+olXnr4zGkHeqFJMsG9a4exHpYaPIHokt1fnwMnFRdBgZRU86DvIdwDoysRGRSDX73bjcGh/i+iz55Z9cc9LmNCI+tZVIYqdjOr9b2WXz85RCe/o0NBYfbkbDLxDbCCKQkmczITJpKsxYTtHltSHrYgl3Hu/DM63345MIYTB2uhWhiahmGAzZI0jvw+nsj6O7nTyD0e8cmlvH++Qkk7uuFNMcG3cP3v9DEA7xHiNKYuwhQ3MHhp0xot/d99EGr6ybx9Esd0KTXg+VCuxRGIwCS/z+7MIz+wVXQAlT6363d82g0zuBu3TTKq6eYVdZPo7F1FtaeBUxOLwv/uuNn/9Aivrg0jmn7aMGwvwtROzohy+5EzO4unDk3iIp6vi+l/1PPwCKe/f0wInJsrNWJc1utc/FEnzlxFJxUVQrmhQJECuV1wlkRVwmxtgKhqgq899dexxdpMU3j6DNtEOmqEBh1FxH6GjYydZbCaF6iTG1gctjR5zrw4WeDuF09CRJoFxZX5XXHm7r9Df073X0LqKidxkdfjuLES73Q7aSTigUzs7yiwgDmdbCNMHW+lfWJ8hwrjr40gPrWOcc7nr8yxcJZVdADnxC9bEBQTuQkBHCDECXaCoSr7+C7K0OOD/POn3sQEVeFAGUlZPE06Vud9rlLYTQaEMXVsaNfcHQdxPEN0GQ2I7XIhMIj7Th4phPHnrfi1K9tzI69YMOhZ7qw+1gn0vZaoNthRoTBhLCkVpYLqUqn7Ol0CAKp+6yIyu1wWvLkFz2lmZ2I3NGFP3w0iiWqOABu1cxCW9QDdWHPmiVPF0/0ApGTRJXCBaLGd06M0FUgQHYLn3/dzz7A9PQSDp9uxRbpbVBIK92rcyJV5rVSGGtx7AtN1ObQiSUiuRGShEaI4hsRHt9kt2bW5kiSWhCRaoQ8rRWRmSZWWNi2bB5fWFL2dLAJIWl6BJCKi2NT1unsrCmwIiytE4+9MIDRcT4nX789A8WO7nvKiZwk6ibWQBTC2UNhCYi4hZNnTQze/MIy9h9rwS8l5T5FWWcpjMag2owGJoW5N9teN2W9tTh2AUKZZUZMQTubazCAezsRmcOvHHuCSCvHonQr9jzTh6kZPqe++j+jrLCsW51dcuIwOElkCQSILJR9hLNEUw6J5jbaLPws5I23rXgovGxdPVGQwmggtby8gqNnLdiqqEKYrhaKZH69jm3J0pnZeWfbgwDhPKiKyjKBKnRgrBHHX+zB0jJAbUzqHgLYDu06+4lhhk688if+ZNQ/tAT9nh5od3ve2fYWzjxAJ4gu4Sx4or2wBMrK8MhjDcz7evvnoIirgEhzhwfoSZS194kkQJCKQzNkehHEzy8MoeiICcrkegRraxGkqWXCrFjfgIjEBsiSG1mfqLCvkchSmiFJ5sM5VN+MsPgWEMBHTlrxxXdjTKOk956YJIAdiMwmgLT87n1nW1NAzXUXLDa+Izj92hDkeTb78vs6LQ7zxCFwYmUxmBd6g+iUE7eKbuLlc+0MwoWLA9gmKfNLCpPEVEGfXc9mykLyZm8CoKNrFhe+H8G5d3pAVbnwsBkZj7SyIb4+vwX6fH6NJGOPGYVHLTj2fBfOvduPC1fGYOly7QHpvSenlkH5MDK7bfX2gDtEp5woSu/EZxcn2cd599Nx0InF77Pz/kFwYkUxGERlCQ/SR07cGl6Cc292sF/2yRe92Cou9UsK4wHWsR6Qwnj/CRM++nwAPX2uAASo5KHU7kxMLTGj3pH+zNOrd2ABn3wzgkNnbZicXmKVOOVRCzuxuFzB8AJRlNaJD+wnFvopziQ1x/+zMydW/AAHRPJCJ090z4nbRCU4ddbIvkdV7QSCZGV2EcK3KCvR3YU+iwdIQoI6tRZbZJVQG+rw6FETXvtvG778bhh36yZhsc5hZHSRAaQ1Eur7qPCMjC2io2sO1Q3T+PryKH77p37sf6oTMTtMCIxpRnSe2VGFGcBM89p7LG4QtQV8j1hWxed0yoeSLCs2srPNieUE0DtE55wYqihFnKECMzN8MSjc34BtklLISdX2oWyLo+9Cn1nLPJBgxOfUg/KiTF+DsOhqBKqqEKSuhiiWHxHEZDexNZKUwhakFBpB22CxeXR/pRnSxCaExjUiJK4R4qRmKNONbLWONsLovakKpzzSDiUD6H3xXVfQiYgMCwpO9LD9mKUlIP94L+sTSQrzZxeH1G1OLL8BHmKxV090hrglrBgff9rDvLCpZQpidTlCFLcgi/EOURxdiTgngPrsOgbQRZRNqoMiqY4d/WQJvBRGoiwrKEmNID1RkdqEyLTmNeMB2k1MLDQzr3UA9LWfuLMDyhwLFNkdqGrkj3iXb06BGm12q4q0RD/1RE4kI4BOEJU+cqK6FKGKm4iKK4etm//FxaUjDGJARJlXTxRrCWAN80DaalCn1CBEdde+Vrd6YqEt2XvZlBUlNkOX12rfDltBso+tsOh8C2QZbZBntuNSCV88RsaWkHbQBmWuHSBdTfMTIieSXccaiEJh8ZATI9Rl2C4qQc6uaoyN80pHTd0EknOq8FDYTVCvyLyRTfr4QRWdm+MyahybXZ982Q9Vcg22ySsQrLrLZiy0YsdriutDJGWbxgO0i0NymDbHiL9/w/dzVIUZwPTW1dMKaYp5bYjKaUNoogmpeztRXs3nPZoHkyhLQyqdl9U6XzmRE0UQQP8hUjgTxK1hxcjdXQNbD++JU1NLrMWhkKbqLNbcdrQ4Ys0dxKWvAqf4J9nro0/7cOCkCbFZ9RDHVCFYVYWAqLuOnBiirQEZ6xOpV9TWIlRXD2liA6jFOXSmAx99McSWOYUKTX1gclEbWzWmS5K0m0j9YnhSKxQZZrz4Zj/I4+g1PLqEg8/1QJTazp+bHRck/d9P5EQR17BRiFSdCeI2UTG0SXfw/fVVUaGldQpPv2CCPOYOtorLII2+w5rt2PRqTE5Rm7GMugY+dIQvTX9e3zyFb68M4/2P+/D62zb86nUrzr5ixbOvWPGrc11swvfeJwP49uoo6punHd4svEd9ywx7bzqJ0H4iFRe5oRUh+hYmzJ55tRcNxlVJq7x6GpkHrRCltq29ZerUJ3rNifZbply4lAD6gOgjJxLEYNlNBEhK8ORZI9otvCpMX8pqm8U773dBlVCJ0MjbiE2rYjlwemYJ2pRqFB5swkef9aG1bcZrjyfA8fRzeWWFLTV98vUQHj1hQWyeke0uzs2tsF3tiJQW5D1mwVsfDro03D39C/j1m/0gBYeMcqLHE4ufELlwyVWsC9FHTiQtUaIqA1VnmfYWXnylDUbTFPvOVDCi9BUIUZY7AJIHUjhvi7iN7XJewTHsrMehUyb8+lwn/vRRLz77ZhAXr43gaskos4vXR/DFP4bw3t/68fLvu3H4aQs7rShTKAfWIyi6HvE7jXwVnltGUqEJ26Mb8ZV9iEUfpsM2jzfeG0DszjaEJbay4f2a+85ufSJ/33ltODvnRB7gfUBkLY6aF2XDI0uxJawEEvUt1nCfed7EWhyRqhyxBt4D6VQRk1bNBFnaCouIrUS4thLBURUIVFZgu6ISgZF3Eay+ixBNld2qWZ9Iw6pgTQ0TIWjOwhbfDU3s3ExHPgpf5oGFJtYnHn7WiutlEzj9cjc02SaExrc4Lb3zheVeIQp9IhcuvgLmhfcLUVBxNGUQRZVhu+QmAiNKIYu+jXBVOeLS7oI8kiSw6NQqbI8o96zi2AUIOd0eoMos3GNx24BwlsJCdPWs0Z6bX2ZL8MmFJnaPRZnWAtqCCE9oRmSG2837TVg3JohcGAHcCEQfOZEd/UjBEVQcu55IrY1IXY5mIx/a10tGkLqjBttl5czCVBWQxFRCFlcFBVs59rL4bm+2ZYl1EMfxVTk4upaF840yfgJnbJ91NNw0LvU5Mt0EiFyY6HtsGKKvnCh4ogDRLoUFycuQ/2gd2+yinETKyZUbw3ju5XZkF9VDlVSFMDUfxjSo2q6gcOZDmsYEQVEU1lUQxdRAk9aA3H1GPP9aF66WrEpZw6OLKHqiDaL4Bv4ZEOvoiTQudTwD4h73E3mAou95L9yIJ3qB6Hzsc3iithyy6HIESEuRmFWFr/7Rz8LZubr2D8yzad6la8P45Hw/G1b98YMekL33cR/+/tUALt8YQXX91JqJHt31+ObyCAxFRoTF1rM9HMeDNJwhPoD9RC4s/DKYF26mJ9KRT36T9YkSwRPphBLNn5u3S0qRnFuNl89ZcK14GD19q5MyZ6i+/r63fx7XS8fw6ps2pBe1ICS6FmJ9HaLS6BkQvLJNJ5awOBJnm9a/PSB44wavpfEABYji9cM5WHQNIeLrqwKEW06Uqm5iW3gxUrMr8ZvX2xCupKGV26BKexuhkbeYkhMou4XI+Epk7KrDoRNGPPdSO377dhfe/aAb73/ciz9/3It3P+zBG+/Y8NwrHXjstBnZjzQzKSxUW41AdTUkcfZFTxpSCYMqAy9AvPZ2L3L2mdmgytcVDLocuaELkvZjHxcadgnMC9eDKL0Gsew61DElUMfchEThJEDYw1kaVYJtYTegib8Fk5kvGK/+to0BdQ5n57kzLTXRnCU06jYCFeUIoMISUc76xG2y29gmu4Pt8jsIUFaANiCovaG5M0lhCqrQXgQIWn5//W1eNWrrnPN5j4VuVDkuSOYJedG7FOYYVO2yggFcA9FDTgwOuwK1rhh9/XPoH5iDJvamiydKlMXYFnodGn0ZWk38Uc3cPg1DTiULZwZQCGc/hvceF9+FXRz3C5IeIJIUlrWnFcKmLC1trrkMlMVriSSF0ery4IjbBUlf4Uzn5oJOcKGhFxEaegmeIDpX56DQK9Doih1L5tq4m6BwJilMovgBW0OuQR1Xilb7KcTcNoXohFvYFv4DpNRoC9XZacbi7IkPYsnTfWfbE0Taw6GrurQ4v7wMn1KY4wlNwomFAQwhgF4gOuXEoNDvoY4uZmo0zSu0sSUOgFuDrrKwbm21e555CtHxZdgWegOUEzcyd/albPtzo8pZT3Te2XbcqHLzRHlqCxNj6YREYqyLFOZHYeFCQr5DqAAxzIMn2iEGhRDAH+wAlxjAENFVbAm8ApWuBA54bVPQ6kuxNeQ6KCf6mrHc12qdhw0IT3riehAVhmZ2YZwBnFvhpbA0+6lFAMh2FD3nRC4k+DusC1H0PYJCLkOtFQDyHviLX16CKroYRrvnUeHQxpVia/A1UE5cd2T6I+VEjxAtfE4kQZbEB94DeSmMRgQuD1wTQHrIiVxI8LdYA9FDTgwMvgS19gbzwLm5JYhl1yBT3nCCN8kKy5agKywnskmfP832T5kTLXPsqq46o8UxDqB8qDC0rH1qnReIXEgQAVwfIgFUaXiAY2MLSDaUobGJP3+azZPQxBSzcObnK04tjuCJfsydIzzs4jzonNhinkXOfjNbNKKRK10ap8Li8dF/HiByIUH/gANiiPdwDgy6CJXmOiYnF0EbWdYuXjxtapqAQnUDv3joIignUmVe02x78URWmYXqfL/h7CMn0n4i3eujS+N0QTJQU8uu6tJlcXrZeueZFEZyGIUzPZHE351tLjiQADpB9JITGUD1dYyPr26WdnRMIzWtDCLpNeaB5IWamBIWyt6abZ9rJPcL0UOfSDeq9DmN7Goa3XeO38HPnGmZKWdfK1tDFo6MNFpIKmxlj3VR0cVxP87OXHDgBayB6O6JoZcQEHgRas11FxGAXH5kZB6zs0ssN9LAXbABD822tw0IFwFiE3MiLb7rsxvQP7TAigQVCsFIGaf9QNIQhRdtQSQzgH7c7bNXZi444Bt4hOjmiUHBFxEadhmlpYOYmFhgNjW1iNm5JQaQIDrb4CB/WhGabcfw/kfMicJWGE0ACZiz0X98Mgpb2sEh77tTPcmUHHq4kKe7fc6rdYIUxgVv/wYMYsD6nkgQ6dxMnshMe4NVZk30D2CmK2anFRbGMcXs7LyRkemDyInCBcmE3AZ235lu3VMo03VdZvnNbI2EHumicnq4EHumrLMU5mXJkwsigAJET+HswRMpnMkoL1J1ZhZyGdRs04mFWdgVlhs3OjJ1CedNyonkiWS0KctMz18IEgoLrRvTc3GEhwt5XfL0kBO5oG1fY12IHnLiemfn+5n2uUDcxJzosovjQYAQpDBBT/Qoyrp5Ig/QH4hunuhRgHA6O/s9qPoRc6I/T2jaKEQuaOtXYF4oQKSiwmz9nEheuMYT7wXiT9wnOgsQztO+9T2xFVzQ1i+xBuIGcqJHiB70xHsd3ruE8yblxM30RC5wCwHcIMR/5UT7MyCM4AK3nMc9Qfxnz4n2x+Zzgb8kgD4g/isnOgZVa3JiRgu4wIe+gAMiC+UNhrO7J3oqLP+PcyIXQACdId5LTnSH6EFP3MwNCJfC8hP3iVzAf3wOHuL5VU/8OUH8mfeJ/wvlRma8tGPdHAAAAABJRU5ErkJggg==;" parent="ooqM9sPuauhWhxl2Y_vB-81" vertex="1">
          <mxGeometry width="80" height="80" as="geometry" />
        </mxCell>
        <mxCell id="ooqM9sPuauhWhxl2Y_vB-83" value="" style="shape=image;verticalLabelPosition=bottom;labelBackgroundColor=#ffffff;verticalAlign=top;aspect=fixed;imageAspect=0;image=data:image/png,iVBORw0KGgoAAAANSUhEUgAAADAAAAAwCAYAAABXAvmHAAAJTUlEQVRoBdVZiVeTVxbvf1PIQhKSAIJKqeNYEAQBtXWZ9mhrK53RaadUHfVUp3Xq0jqO3exo7ejUWi1LdkDCEvYdBcqmyCKgbGEPhAR+c+6NiQmL44Zh3jk33/te3nvf+727vHvvewn/5+WlR61/ZHgKw8NWL9IURkemHrVEzAFgNk/g69MNiI/OwTJ/DQKlagRKVV4iNUKUWmzeYMKFc82YmLDPAeMBoOG3QYSvMkIpLoG/IBNKPxUCJN4lf2EK5MJsKMVFeD0uF/fvWTxAuAAMmiexOjQNSlEhtm/LQ0lRD8wDkxgasnqV+vomkG3sQlxUFpTiYrwRnwWr9SEnXADOnKrjnafF2+3THiiXwsvQoBXr1mRCISqAKrnNtSQGMG2fQUzEdRabqoo+159LraJJbYVCVIhdbxe4lsYASNODZCrIxSksLq5/l1iluWkYUt80rF+b6VoZAyBTGSBJZUtDdfdSVdGPwwcaYczocjWXFvfi8IEmFBX0uNpmVyrKe/HejlLERebi5Oc3YbfPcJf2thHs/6gKcVEm7E+swt2OUW4fG53C4YPV0KrbZ0/ler/VTAB0iI6YBwCZSrI4pLTu5ZfLLQiU3MC61667mrdvNSFIWodz3zW62twrZCmCZOmIicjG8aO1SPygFJMTdgwPWbEmzIjlyjQcOVSJEEUawl81YmzMhpGRKfgLs/DXj8vcp/KoOzigR8x8HFgIQMqvrZAJMhg5TWAemIDEJ4X15dqVO8jM6MTpL2r5QzeqB3DqRC2Srt5hWU03dHgs4PKlW6yEZSW93F5ceJ/fU5PaMD09A4mPCp9+UuUxxv3lqQBcu9ICpUSF8FXp+MfJWvzn37ewJiwNQTI16MNXf27hRRDnjhyqgt/LKbjVPIRguQ6hQZnQqB6KxN4PSyH1UfFu08JojMRHzdwgEVsUALTAYIUGly40Y2WgFmEhevx4vgmvBOtw+dJtPupJLslWb9uUg90JRbxp1ZV9iI3M4wPowz8VgywdPSU+SSwy1Gl01Aa/l5OwP7EcNtv04gGQClLQ1TnGQKh+r9vC+vLDv5p4sXFRmUj8cwnCgnXMFW4EMDMzgy+P1/IBVFneh3+eqmMr0tc7wV167lsg801nsaO+xIGjf6t2Dp/zfCoRIg7QxMPDU6i5MQA6J0gh/XyScf6sQ4nPf98IhdiAEIUGPT0TvMP3usd5AaQH5Jrk5d4D6YhCXISz39TzafrtmXrWlYryPkxN2fk7B/dWsGiZB6yw2RyWy4nkqQCQ4skEaejpeeiDkJcq8dXi7NcNPHfL7WHIBOnYujGH3+tqzFCINQgLMUDqa8Cm2FyXV3ng43L4C4xYEaiHTKDDqZM1PGbQbAVxl8RRLlLBX6hHealD2Z8JALGZ7P7U1EP3ghSutKQX3V2OXaYPBEhVLmtE/5cU9eLSjy0waDsxPu7pEhcX9uKDP5ZBLtJDp+7EQP8kz09iVlTYg4K8+8g39cwx6U/FASf6hZ51tWbs+8sNSH31qP9tcKFu87ZfvtSClUG5LFLzdpjVuCgAyKbv2FaBKz/dnvW5x3sl7sw+/RcauSgAFvrYk7STL9ZQP8SuifF6F4jITSGOkkvvLO1tY5CL8rBqhcHZ5IjIaAcWOoldPZ9z5U7LCL77qglbNuYiUKaGzDcNcmEuFKI8JqpTW4BUjS0bcvHtV42orupH0tU2D3/J5cy9KADkMpz+sg5yoY7Nq1yYw5FfbGQmdr6Vjz3vFzHtfCsPcVFGPm8cEVkplGI9LpxznD3O/XzhAChwoqBE6qvBgb0VfD709zkONuei3J9kofJN93BoXyVkAg2PPXXCYXqp3wsFYLVOIyxEx85hceHCrrg7APd6WWkvi1XoMp0rwH+hAMbH7exLkWx/9slNdHU+PEfcFzpfvbvbgqNHbkLmawABIPebygsFYLHYOXEg9dFBIcqHXKzG7l3FuPhDM4sSnSktt0eYqE6ic/HCLexJKIZCrOYxEh8tVi03YHTUSwBIhJRiDRLeKYDSjxZV+ECZTeyO0AKJyDWRC038H/UhAI4xGoQG6bwHIHSZFv6ilAcOnwVa1V0c+6wG7+0owKbYbEStyWDauD4L724vwLFPb0Kj6kB3lwXjFhsUfqlYEaD1LgBy2nrdnEN3mSc/imi+0t8/AbloiQCgIP5Ji8Vi8z6AV5frOYg5/30z7LP8/UcBIq5QftRfkIZXlnlRByh9KfPVw1+YjfURRnxzph50JnTeHQNxZXLSzkRWhswspTgp8ImNNPIY8npXLdd7TwfIEZOLNIhYnc6BDUVr5CpQMoAiut+t1GN1qAHLlVpuI6COZHOWY4xQ7V0OOK0QxdUU9Jz4ew3e3GxiD5MUlIAQUZ12+s03cnH8aA17pxRcKZeKFZrt/1CcTX4PiQ3RQL+VY293vTCbJ72vxMQBqSCZ5d19cY9Td1ihFO+eA2yFBGn49ZfWx1mzR59kzhIuCStkYI90+7Z8XP35Dhrrh0CZDkp+OQuZTYrU6D8C+/YfCh6kOJeCFRJqsDJIy+EhXR2Rh0nZv7Wr07EhxsgU+fsMRyLN18DZPYrUVgTSGA3Cgucxo5SZpqjscQNs5049yZO8UdIBuTgVFFLqtR3Yn1iJmAgjt0l8NOzvU7ZO6qOFQpyK6HAj9n1UCb2mA22toxyhzfGF6NAIlqtZw+mubLEKAaCdJyUmkXGWmRmwBSJQFMgTkVtNVolCUGehNLxclMJnhIc7TRNsiDaC4tO83G5n/+f+pGvSFQEayARatLc5Ljae5COdnZSV0LJojY/beCgHNFSjjDPJY1xkFgYHF48Lu3cV8XfWr82CQXvXgxMLgSFlTtffRfy6HCjFhXh/ZyFo06m4AFjGbYhfR3fExYh+zYiUpFZmJV3rUELpWampYRiDg1bQabplo4kDGbnIxMEJBSqUxb54oZkvR5KvtXKdLksS3ilE6DI9qC8FNpvjTZwdd4J1AaAGyihve53yMgVMFLtSspUcqGclWgBdjlChTDSZz60bTZyRpvCS/B0HUYTmiNKU4tIHYSTlhvJw5ac7HnfENJcHAGqw26ahSm7HnoQyxK/LRnT4db6CpWvYZ6HYyHwWGUbg9kO6kJ3ZDbpr+OJYLQ4frGQ6+XkNt2VldoMycguVOQBmd6SLh+dRntc8s9fyPwHMHrDU3v8Llq9LHQ0C47UAAAAASUVORK5CYII=;" parent="ooqM9sPuauhWhxl2Y_vB-80" vertex="1">
          <mxGeometry x="180" y="60" width="80" height="80" as="geometry" />
        </mxCell>
        <mxCell id="7oCYW-wZGabHslEQ7wRl-59" style="edgeStyle=orthogonalEdgeStyle;rounded=0;orthogonalLoop=1;jettySize=auto;html=1;exitX=1;exitY=0.5;exitDx=0;exitDy=0;entryX=0;entryY=0.5;entryDx=0;entryDy=0;fontSize=16;fontColor=#FF9933;" edge="1" parent="ooqM9sPuauhWhxl2Y_vB-80" source="ooqM9sPuauhWhxl2Y_vB-82" target="ooqM9sPuauhWhxl2Y_vB-83">
          <mxGeometry relative="1" as="geometry" />
        </mxCell>
        <mxCell id="7oCYW-wZGabHslEQ7wRl-17" value="" style="swimlane;startSize=0;strokeColor=#FF9933;dashed=1;strokeWidth=3;" vertex="1" parent="ooqM9sPuauhWhxl2Y_vB-19">
          <mxGeometry x="15" y="60" width="810" height="280" as="geometry" />
        </mxCell>
        <mxCell id="7oCYW-wZGabHslEQ7wRl-18" value="&lt;font color=&quot;#ff9933&quot; style=&quot;font-size: 20px;&quot;&gt;Auto Scalling group&lt;/font&gt;" style="text;html=1;align=center;verticalAlign=middle;resizable=0;points=[];autosize=1;strokeColor=none;fillColor=none;fontSize=20;" vertex="1" parent="7oCYW-wZGabHslEQ7wRl-17">
          <mxGeometry x="295" y="60" width="190" height="30" as="geometry" />
        </mxCell>
        <mxCell id="ooqM9sPuauhWhxl2Y_vB-28" value="Seculity group" style="swimlane;labelBackgroundColor=none;fontSize=20;align=center;verticalAlign=middle;startSize=40;swimlaneLine=0;fillColor=none;" parent="7oCYW-wZGabHslEQ7wRl-17" vertex="1">
          <mxGeometry x="45" y="90" width="200" height="150" as="geometry" />
        </mxCell>
        <mxCell id="ooqM9sPuauhWhxl2Y_vB-31" value="" style="shape=image;verticalLabelPosition=bottom;labelBackgroundColor=#ffffff;verticalAlign=top;aspect=fixed;imageAspect=0;image=data:image/png,iVBORw0KGgoAAAANSUhEUgAAAFAAAABQCAYAAACOEfKtAAAUnElEQVR4Ae2c6W9bZ3bGr3ZrtRRt1GItlp3JxJMmadF/oSj6oWinM50sTjKx40WSZe27ZVGrZVuy5SUzLQoU7Zf2Q4H+HZ3VdiLLWqidEkVSJCVbJLWQfIpz3ntJiiLFS5lMAsQGHti5kWX45/O+55znnEtppTUL+tZM6NuEVtszwerIwBqpMwMGRV0ZMHSlY71byHgjHayedJh60oRupsFM6hXa0KaC1ZcKC6lfyNp/AtYBIdvgCbCGTmBzKAWbw0Jbt1Kg6OVIMkivbsu6k4xt0t0kln00CYocY0lwjCXCcS8RTtJ9oZ3xROyMJ2DnQQJ2FT1MwB7pUTxr/3E8WF/Hw/V1HMv9mziwfhsHD+lfJBb+VYK00pKFHzTEYRUQ78gQ7x4BUQa5c1+GOH4ExEcyxMcEUYAMBVEAVAOx43uMxB8wRGmZ4CkKd5zfQBRHmY60fJyl5eYsRARRuQ/p5+/6TvzeI/HwnSgAvoHIySVkYjniTpSWmk6CozBSiG+OMx9nBvgGYiKOm52lpcaTIIDHhvgjvxOlRQL4BqK34I4kEqlGlBYbTiIqEKN9J2qTYOlNgKU3HhZtPKzaeNj64mHti4etPx6b/XGwDcRhcyAOW/TzYBy2BuPwckgSGpbwinRLwraiEQnbIxLst4UcdySw7kpwjkq+jiWCYlsA/MFATOO2z9wlwdKfDuudIpbtjga2u0KboxqwxjTYGivE1j2hl/cK8fK+0KvxArAeFGBblv1BAewP84Ue5cOh6HE+HI/z4LifDMdIhBAfx0NaqM8GR2G0IL7mnWjuisPWf/wtXMYJeHZfwbO7HV578tfQzxEK/PWv4DZPYOd//iYiiPuPZIA/GIg9yTBrM+CyzoF+ePad8OzZYyrs2YF9J/957s15OO6lwjkap/pO5AgkgFGHeIw70dSdiI2REhmcA9aH52AZzoP1TrHQ3WLYSKNF2CSN+bQ1VoStexrWy/sasMY1eMUqxKsHhdgmPSyEnfSIVAD7g7fg/Le3wSBdO3D+phAOuhP9nJzQiSUe0vx1AU9APBnd4xwhRCMBvFUsjuyeHRvDeTB1SjD3xGPjphAnFU4scbBq42Dri4O1Lw62/jiRWPolbA5I2BqQsDkoYWtQTiqUXIIlliEJ9vGToKOMfTucXxeIxKIADOPiMMCDEL+/O9HYlQjzsALQActICTZ6Eo7vJ6rpnSkrP8rnu5MAOh4XCoD+fuIREKX5umwQwB8CxECAdJzNNxIFQDJmj2PKhoN4S+LMTMlHAUhlziFTNgREaa4uB98JRBXHeb0zCebhEnhce/C4XXwfmm4ksLv9Ws72URAZYIGIwD0RgVwnjpKrHeBsB0Ak80Gau5aD0BC/2zuRAJqGiuHeWoX75Ro2hoth6hYAaUQQE4jDEteKSgRScuFiWx4RhIMoAB4JMUp3YnsGVluTWYEzFkNHEkjG7jQYezJgGirhu9DYTc8SDsxYzD0JIBFM/xmLt2MZkOcrNGcJnLEEiURKLFRsM8A9O2dnBqhmPDCeAElXmwOOwlhD7MiCQVsKg7YEa52ZfoOqTBj7S2AcKMb6jQyGuN6RiPWuZJiHilim3nSYb6bC3JuOjVtFsIwUYUMrIlJATIOVupU7GlgHUnlYFXJQFQhxKADgw0LR+hFAFRAZYMwhNqfA0FsK16Yerq01rGtLORLX2pJh7CuRn6/CNFDCkchHebBYfq4X0dgeh43hIn5GR5wgciTeTIB1RAP31goffYLIvbPaSBySuO1TInD7oUYAVDOoup8IabYmBwRQHcTj3YkrzSlY6z0FuPYAtwuGvjKstojjvN5f6k0axsFTMLQnMkTToC+ZmIdLYWyTRIkjJxjLSCmXOATRcrtI/h77sN0tgbU3PvzIVInEwbiDAB8UCgOCx6bhp33SbM1biAxi5HfiSlMKVnuK5ALZgbUeDfQNEvSNEgw3C7zP17WFWGuWsNYiwdiX731uGijAepME00Ce95l5KF8U2V0SNoZy5ed2WEcK2MFRNXcmiOTg3C+Ue2g7dyvs4ihz5zCRKAOMIcTWLCzVSjD0n4Fnl/paB9Zvv4e1G4Uw9BTAePuc97np7s+w3luAdW0+zKPvep9vjJ2DsTcHG2M/9T6z3H8X5sE8bAzlwTr+jve5dawS5g5yc1KhCuLAQYCvxgtFx0IDfBUQpdlqgqcokuN8dCQuNZzAUkMKlmokWP7rIlzWZW7Y2SQgg0BxWaiZl3+wcRDy+Ss2FQ5+rezW+H0P9+YyXv3vBWx0SsJLVPzEUHciAbwnIpD6YQZI92LgBkSISJRmCOCxIYa4E5uzoe8+hZWuIqxqz8C9vcF/b7dzC26HzRstFI0UlfTs0PM9v+fsyDgYoNtpA0m4NPTM99zj3OQ/x+OwwDZWAeutfNlPLAydncmQlQHS93w5rhGGbLA1kiAQpZmrb+H1IB6MxMXrqVjpLoPLpodnh/w5h4Dn2ITh1vtY7S7CWm8Z1rRCBm0ZWH2nsE7qFzIOnIIi02ApjIOlMA3JGi7ljoW6FvOtEmyQhgpgHX8XHodNQOR/HBGh7persN0tgkUbd7jE6Q8AeF8jDIhQuzgBEKVpAhhFiAt1qVjpKoNrc9UbafQ3ogjTdxdhqS4Oy40poMRC0pOahTgztySJEqc1GVTmkAztSSI7tydhvUNWZxKodzZ2JXCxbeqQ+E70OKw+gLKXSF0NAQyanfvj2dmmMoYjUAZIS00hF5oUiKNJkKav5CLaEBebsrHSVY7ljmKsDv6FDNIO/c1yLDecEKskUV4j8VlhdFc6YH1wju0wy+1iWG8XwdKfFjyx9MVjc0zjzcIvyVMkO0zeDAsHUQCMGkTfnUiRuFATj+V2X/mi7ykHJZdY7OIccnKG8mH2eokJB9q+A9mZAI5qvGUQmbLsJyp14lGReDcJ0tTlXHAURgtig7gTCeB8dcJhgPUnYrKLEwjQWyeG6J29ELVBAJIpSwBVQGSA0YeYg+XOMiy1FUE/IB/hXTtWbpRjiQBGukaiYlAlrDAyY8UR9taJI8WwjGgCeme/JU8CeNd3hGk0QCNT75JnGIhegNGCOF+bhqWOcs7CbsrCu1TneTiJrNyowOJ1GWCkEMP4icIKK4Hbm0R8tSZlYboLeTQQaMr2xvPIlOvSPTvPWXg84L8pewRE6cWlXBA8RWGPc20OZqszMXs1HTpStdBcdRrmaoSWOioCsrAMsJsAph5/jeQIiJSdyQYTAD3e+pAyK2Vhy0hx8PFAb8JhgDRjUWGFUbEtvbiUB/UQczF9IRm6a7mYb6nAfGsFFkhtlVhoq8BiWxnmr+ewCOJiawlW+t/3ZuFlAlgnAEZ7F4f8RDYg5CO8ce8cTAP5cp1YDLM2Pbiz3ZvAxbY3AkeLeFAVdGc7SCRKL74igOogEjz9/b/Hzuok6Hi6d+zyz/TrbezbVrHYXoG5mlToriRCd1HCQiMZAFTQOkAAKbnEYhfHB1DUcyZtNtabJXZxjFQjsp94ePF9g+ywO0qlYOeRKU/7Qi2+B0CUJgmgCojTl7MwU52LPfOCXKg64SZzYJfaMSHXpoEjca4mHYvtZVhoKcZKny+JLHcJgDHZxWkPiMCxczD158M8VOxnyh5+e8BMAMkOox58zx66YwlyJ768lQJp8mIeVEH8KgO65iq495zw7DqxePOvoGssxXzraaG20wxPV5OJhbbgSYQBXksVs+dobIX53Ylr7ckwDvjdgfyPK1Y+yIClcSnNV2h4b7qRyNM+Hg/QHs6wzw6jwT2NB8K+giFHogCoAuLUV5nQNZ3mo0oRN9dwiu/DmcvpmLmSjlmSnFjoTjzYyokkstRZiXkFYJR3cdjdHij1y8LCZFCSCEWiqBWLeHhPA/wNKnGGcmEdl20y1w6soyXq/USKwOcX8sBRGAbi1MVMzDb6AWyuwsyljOBWWN1bHI3zzaVY1spJZNcOBlibFv01ks4M7pmN5G5zEnHCPPYzGPsKZAOiBEZ5xuLe0vustADrzG1bgKU/ExZarVPhJ1KhLT2/kA81EF9czIQuAOA0AQxhhVGJM3spCfPNJd6oXeyoBNWJsdjFoYkfjwf4LnPAqC1gZ5uMCDYgeGRawnMTikqfRKS6TJPY+s+/A22H+U/7vB1LCD9RBhge4osLmZhtEBHo3nXwfTj9VcZhK0yer9Bxnv3qMECqFRWAC/W+3vl1EwsD7KMIFBaaMh4IPjKlsamfFUYbEH2ZoL3ESF9Lkya+JHiKQh9nf4B0B+qaqjBFAA9ZYeRqv4X5lnLMNZVgqfd9Lnfo9yy2V3KxHZM1kpZkrDNA0cop4wFKLAdGpp1JoK7lgBVGs2darePhvTzAD+xYgrzbtzl0AgxQDcTJL30RKACeAd2LgVbYzOUMzDVXYM+mFzWi0srZN7FAAKvTYrKLo29JgaFPSSIeUbzLdxwlNCqyKRqj/YKkNPHrfBDAcBAnv8zCTL3vCM82ygADXBxKLARwf3NV1InsSHvgttuw0H4aOgIYg4UmMmUN2lNw2wMNVQfPoo0DpWLm3C2/YUpvmkbhLVPpWwKoAuLkrwlglTchEEA61kF755pczLVUQtd4Cos3P5CPsB0LbQQwPTa7ODJAJQub7rwHQ2+hPCIohaE7M+qv6toGTkD69osCqIH4nABeJ4Ci+1AAhnJxKBK5b27wZeF5Ang1XaySRHkrTBneK0nEcLOQ586UXHgsEKN3+wRAFRCff5GFaRkgZeGZBhGBoVwcKnGmv0yGzh9g62kutmOxi0PzFdp+UAAqw3tlAyJwoSlaL41L33xeAI7CMBAZYJ2IQAUgJRYF4IFIrM6FrrECs/WlWLihZGE7t3zUsahbIzk47QtrQDSmYO0mARRZ2Du87wu20BS9N+8ZoBqIExSB/gDrz4ISS6AVJjqWSuxZ/bMw4LZv8p04czHpQNsXzE+kYpt1LRULJJqv1KWyl0h+InuK9SfY3aYZCw2qlurioe/W+JKIXy9MWZhKHDrO0Y5EL8BwECc+P4kpBrgNisDp+jOgxBJohYmOpRL7ViUL77B747ZvYbHnQz7S7CUG8xPbK9gOI0uM/ERWZzmWSTTl6yrnad9KdznPnvU3ysDqKYO+SwPD8Huc7ekP9OzvyD6kyMKUoek4R/szIKRnnxWA4CkKdZwZ4LUzcm3nwPT1M6DEEtQKu5LHffNsfTnm2t6Ba9siQ9yEa9sqvgf7icJHpBKHyg/2GHfpH0h5bvU+5w0G+j30dfLX8n3n/7XyUJ3+v2HgLC800QCf4XVkYbU9+h+kIT37rBBqIH772UlMMUC7iEAC+EVWSCuMInHqYgYmz8fB8O9XsG/VM0SOjj3hJbKfuCdeclHz3BPwtbysxAtLvu9BGxGW/77MC00rjclieN+cIj6JhD6RRPk0Ej8r7HXevJeenSeA4SESwBe1FIEC4JQC8CgXh4rsK7kMca79p3IJ5MRiz19irvFUQJ3oxJL2Q5CDc9DFcWKl/0MsNBX4jQec0A9+wIP7g8N7J1b7f4Klaikmw3tTkI90kZ4SQBUQvz0fALDuLCY+zwpvhV3J5ZZvtr7MW4Tr6k9xiXOoTmwqZQPikIvTWsLjgcVW+R2SXQeW2osxXx1/aHi/0lUS2fBexcj0qI5FevppIdRA/IYA1vhFIAM8GZEVRq8v0IbqXHMVqE7ktq+lkrdL6Tm52/6mLH+9ywWywXSXEzmp8JarywVlPEDZmZKKsv3K2w8xGt4H+3Ah6QkBVAHxm0+zMckARRZ+cY0ikACqtcIqeei0bzOws01WGEGca6rg5zRPmW+p9JY4NO2jIRU9p6ysu5yExfZydrrpGWVmpcShIT6VKq4tA2fnYw3vj3knSk8+KYQaiALgWe8dSADpXlRjhU3R7JkzcxVmG6swfTXP5+JQ39x8GnMtpzFbm+tbN75GrjaNSyuhq8nAXHUqj0sXqbzprMBCQw68fmJjNpa5tCnHUnM2lpqyvrMP0pCefKKBGojPPsnGZLUfwFoBMJyL460TL+Wy+UDZmQ2Iq76tMOU4ezdlFVOWupbqDCy0losRQV2Od3jvNWX9dnFiNTI9qu2T/vwxAQwPkQA+9wM4SQDPn1RlhXkhRrIBUZPDx5mG91QCuWxrYmQaIz/xuB+4xgDVQDwEsOZtUGJRY4UFLbbVbIVdScd8qy/JLLRXxcxPPPSpdSrvRC/AcBCffpyN51d9R3iSAH6arcoKUzV3DrIpS+42tX1iSckRWz+xTf7YvwiLbelPH2lA8BSFOs5PP87BhB/AicsVeParNIZIkUjHmZIKibKzUBZ3K9SxUNtHvTMZEOTikBnL4o4lEzR3phmLkp2/az/xuJ+fyADVQHz6UQ4mqt+BZ28H7l0nppr/GhOXyjmxTNac5RKH6kTqVkjU9rHqqtjFISeH/ERWfRWPB2YaToNE0z6aOZN0TZVCzZXQkR3W84EYDezvYr6tiu/FWPiJx/0QSulPvyoCAQwH8cknuXj2mQa7xkVhDOw64HYqC0a0ZOS/aKT8t/8z2SDwNxFU/JoGWPRjb2ORt8JotS4mfuIxd7alPxJAlRD//It06IZ/Dqd+ylsPkrUVKxE8Mhx216agf/APmL6YjFm5xFEHMXpzZ/441IDEst6VDumP/1wE1RDPa0AQn31ejImrP2E9r34biiixsGrfxovas6BimzRVp+gM22BkhZGfOENqEJptEEU2Fdo0c2Y1V3HbN1Obz/OV2RoqtGP4WpqaT/IM6J0FwEggflqIJx/n4slHOaB7kbIzicocEmVm1vmTXOYcK7FcICtM2GGcWHi17nXeqIpwPBDuOPtBlP7wyyJwFEYIUY0BoWbad9wS53uPRPk4M8AfD8Qo34mdGZD+8MtiEMAfD8ToHmfp978ggIreHOdIPg6VMjMDZIgM8k0kRvr2gPT7fyoGAfxxQnz9O1H6HQH0h/jmTlT9mbKrbZmQfvfzEgSHKJLLmxJHdreVT3sPKLYFwGAQ39yJqiJR+r9/LAFHYUiIoSJRmBCKDebzEzWqZiyhNiBUzVgidLapb1bXO0de4vw/dPrV5hIPu90AAAAASUVORK5CYII=;" parent="ooqM9sPuauhWhxl2Y_vB-28" vertex="1">
          <mxGeometry x="60" y="40" width="80" height="80" as="geometry" />
        </mxCell>
        <mxCell id="7oCYW-wZGabHslEQ7wRl-27" value="" style="shape=image;verticalLabelPosition=bottom;labelBackgroundColor=default;verticalAlign=top;aspect=fixed;imageAspect=0;image=data:image/png,iVBORw0KGgoAAAANSUhEUgAAAD4AAAA+CAMAAABEH1h2AAAAAXNSR0IArs4c6QAAAARnQU1BAACxjwv8YQUAAAA2UExURdRbB9dlFuqtg9+ERfLMsf///+/Bovfg0Oy3ktlvJvz17+ejc+SYZPrr4OGOVPTWwdx6NQAAAKKORCsAAAASdFJOU///////////////////////AOK/vxIAAAAJcEhZcwAAFxEAABcRAcom8z8AAADwSURBVFhH7ZbRDoMgDEVLtSoFpv//tSusEH1ZpNselnASkmJz1BhuIwwGX8fhpJWJncjuO7Htvpsp0LYafbERaHPJ5ntGEB1glWXAy8o6uLK1UHQ7Qzfzj3qU81qoup97jt4maSnEV1x84q7cLNUviP3Q8iYLBa1u2i4gYl2I3HxJ/H7uhaiNCz5PpjOrNibdN2ZtvOHglPNeCO1Odznb2d+1usfVBsA+f68262fCrnnp6rPbobVN639MXGPoZj7Qo4y3rD8OvdCFJy567Ixb5RCftsC9Ya9MlIh5Nf8d5DFlt/P7J61sfPDoweAXADwB1V0GrYhcV40AAAAASUVORK5CYII=;" vertex="1" parent="7oCYW-wZGabHslEQ7wRl-17">
          <mxGeometry x="355" width="60" height="60" as="geometry" />
        </mxCell>
        <mxCell id="ooqM9sPuauhWhxl2Y_vB-24" value="Public subnet public_a&#xa;10.1.10.0/24" style="swimlane;dashed=1;labelBackgroundColor=none;fontSize=20;align=left;verticalAlign=middle;startSize=40;spacingLeft=50;swimlaneLine=0;fillColor=none;strokeColor=none;" parent="7oCYW-wZGabHslEQ7wRl-17" vertex="1">
          <mxGeometry x="15" y="40" width="280" height="220" as="geometry" />
        </mxCell>
        <mxCell id="ooqM9sPuauhWhxl2Y_vB-26" value="" style="shape=image;verticalLabelPosition=bottom;labelBackgroundColor=#ffffff;verticalAlign=top;aspect=fixed;imageAspect=0;image=data:image/png,iVBORw0KGgoAAAANSUhEUgAAACgAAAAoCAYAAACM/rhtAAAB6UlEQVRYCe2YzyuEQRjH949xc3NzWhcuclBqD5sLJ6d14a5EUQpt2YM2ZaWkiFIkaUs42BxWSXvY2iJRRCGHR5+t0fbWvO/0zmv2Le/WNDs/9p3P+31+zNOmpnbGJVfKxrKJiKQy+R5Jz3TEsiWAtpZJFIyFgmSB8u2h3L805O3jVSr1c1k+mpbeuU7rwLMy8eBit1zUTqXaqAiQmXxa+he6ZGJzRI6re1J/qsnY2pAVpBUgSpXOVrQAgD6/PwovEtbUoQExIYBBBxdO5pvmD9qnWw8NePdwY2w+fBPT6yD85kMB4vxf35/GQUAAYW4/EN1aKEAcn8DQPdQ7Xywvyez+pPH+1t+HAsytZ438Tx2UAColVB9LBUdXBwQwGimGKFbjoP7geruZL1v3qZcN6o18kERL1JL3omgkb26eIDjWjQC5wshlJg802YOiplH9vwCVnwap6FxBbhZuC3yLCoY2XOjTuoRzQKKasksph3/5FRLOAVGPFKIA1V2txt7eOSAKbl0WfwG5q/2i3jkgeZLETRW9e7XRLPv98pxzQGVC4AD1CxD2tg2Q4OBwBazrE0CdMrFXUAfunW+bib0guvGfAEZdbkVazaAEybe14LT9bvq3iFG5pTOVi/kE0FblRMFIFETGOH9+APWGmgsqWn74AAAAAElFTkSuQmCC;" parent="ooqM9sPuauhWhxl2Y_vB-24" vertex="1">
          <mxGeometry width="40" height="40" as="geometry" />
        </mxCell>
        <mxCell id="ooqM9sPuauhWhxl2Y_vB-75" value="Public subnet public_b&#xa;10.1.11.0/24" style="swimlane;dashed=1;labelBackgroundColor=none;fontSize=20;align=left;verticalAlign=middle;startSize=40;spacingLeft=50;swimlaneLine=0;fillColor=none;strokeColor=none;" parent="7oCYW-wZGabHslEQ7wRl-17" vertex="1">
          <mxGeometry x="505" y="40" width="280" height="220" as="geometry" />
        </mxCell>
        <mxCell id="ooqM9sPuauhWhxl2Y_vB-76" value="" style="shape=image;verticalLabelPosition=bottom;labelBackgroundColor=#ffffff;verticalAlign=top;aspect=fixed;imageAspect=0;image=data:image/png,iVBORw0KGgoAAAANSUhEUgAAACgAAAAoCAYAAACM/rhtAAAB6UlEQVRYCe2YzyuEQRjH949xc3NzWhcuclBqD5sLJ6d14a5EUQpt2YM2ZaWkiFIkaUs42BxWSXvY2iJRRCGHR5+t0fbWvO/0zmv2Le/WNDs/9p3P+31+zNOmpnbGJVfKxrKJiKQy+R5Jz3TEsiWAtpZJFIyFgmSB8u2h3L805O3jVSr1c1k+mpbeuU7rwLMy8eBit1zUTqXaqAiQmXxa+he6ZGJzRI6re1J/qsnY2pAVpBUgSpXOVrQAgD6/PwovEtbUoQExIYBBBxdO5pvmD9qnWw8NePdwY2w+fBPT6yD85kMB4vxf35/GQUAAYW4/EN1aKEAcn8DQPdQ7Xywvyez+pPH+1t+HAsytZ438Tx2UAColVB9LBUdXBwQwGimGKFbjoP7geruZL1v3qZcN6o18kERL1JL3omgkb26eIDjWjQC5wshlJg802YOiplH9vwCVnwap6FxBbhZuC3yLCoY2XOjTuoRzQKKasksph3/5FRLOAVGPFKIA1V2txt7eOSAKbl0WfwG5q/2i3jkgeZLETRW9e7XRLPv98pxzQGVC4AD1CxD2tg2Q4OBwBazrE0CdMrFXUAfunW+bib0guvGfAEZdbkVazaAEybe14LT9bvq3iFG5pTOVi/kE0FblRMFIFETGOH9+APWGmgsqWn74AAAAAElFTkSuQmCC;" parent="ooqM9sPuauhWhxl2Y_vB-75" vertex="1">
          <mxGeometry width="40" height="40" as="geometry" />
        </mxCell>
        <mxCell id="ooqM9sPuauhWhxl2Y_vB-78" value="Seculity group" style="swimlane;labelBackgroundColor=none;fontSize=20;align=center;verticalAlign=middle;startSize=40;swimlaneLine=0;fillColor=none;" parent="ooqM9sPuauhWhxl2Y_vB-75" vertex="1">
          <mxGeometry x="40" y="50" width="240" height="150" as="geometry" />
        </mxCell>
        <mxCell id="ooqM9sPuauhWhxl2Y_vB-79" value="" style="shape=image;verticalLabelPosition=bottom;labelBackgroundColor=#ffffff;verticalAlign=top;aspect=fixed;imageAspect=0;image=data:image/png,iVBORw0KGgoAAAANSUhEUgAAAFAAAABQCAYAAACOEfKtAAAUnElEQVR4Ae2c6W9bZ3bGr3ZrtRRt1GItlp3JxJMmadF/oSj6oWinM50sTjKx40WSZe27ZVGrZVuy5SUzLQoU7Zf2Q4H+HZ3VdiLLWqidEkVSJCVbJLWQfIpz3ntJiiLFS5lMAsQGHti5kWX45/O+55znnEtppTUL+tZM6NuEVtszwerIwBqpMwMGRV0ZMHSlY71byHgjHayedJh60oRupsFM6hXa0KaC1ZcKC6lfyNp/AtYBIdvgCbCGTmBzKAWbw0Jbt1Kg6OVIMkivbsu6k4xt0t0kln00CYocY0lwjCXCcS8RTtJ9oZ3xROyMJ2DnQQJ2FT1MwB7pUTxr/3E8WF/Hw/V1HMv9mziwfhsHD+lfJBb+VYK00pKFHzTEYRUQ78gQ7x4BUQa5c1+GOH4ExEcyxMcEUYAMBVEAVAOx43uMxB8wRGmZ4CkKd5zfQBRHmY60fJyl5eYsRARRuQ/p5+/6TvzeI/HwnSgAvoHIySVkYjniTpSWmk6CozBSiG+OMx9nBvgGYiKOm52lpcaTIIDHhvgjvxOlRQL4BqK34I4kEqlGlBYbTiIqEKN9J2qTYOlNgKU3HhZtPKzaeNj64mHti4etPx6b/XGwDcRhcyAOW/TzYBy2BuPwckgSGpbwinRLwraiEQnbIxLst4UcdySw7kpwjkq+jiWCYlsA/MFATOO2z9wlwdKfDuudIpbtjga2u0KboxqwxjTYGivE1j2hl/cK8fK+0KvxArAeFGBblv1BAewP84Ue5cOh6HE+HI/z4LifDMdIhBAfx0NaqM8GR2G0IL7mnWjuisPWf/wtXMYJeHZfwbO7HV578tfQzxEK/PWv4DZPYOd//iYiiPuPZIA/GIg9yTBrM+CyzoF+ePad8OzZYyrs2YF9J/957s15OO6lwjkap/pO5AgkgFGHeIw70dSdiI2REhmcA9aH52AZzoP1TrHQ3WLYSKNF2CSN+bQ1VoStexrWy/sasMY1eMUqxKsHhdgmPSyEnfSIVAD7g7fg/Le3wSBdO3D+phAOuhP9nJzQiSUe0vx1AU9APBnd4xwhRCMBvFUsjuyeHRvDeTB1SjD3xGPjphAnFU4scbBq42Dri4O1Lw62/jiRWPolbA5I2BqQsDkoYWtQTiqUXIIlliEJ9vGToKOMfTucXxeIxKIADOPiMMCDEL+/O9HYlQjzsALQActICTZ6Eo7vJ6rpnSkrP8rnu5MAOh4XCoD+fuIREKX5umwQwB8CxECAdJzNNxIFQDJmj2PKhoN4S+LMTMlHAUhlziFTNgREaa4uB98JRBXHeb0zCebhEnhce/C4XXwfmm4ksLv9Ws72URAZYIGIwD0RgVwnjpKrHeBsB0Ak80Gau5aD0BC/2zuRAJqGiuHeWoX75Ro2hoth6hYAaUQQE4jDEteKSgRScuFiWx4RhIMoAB4JMUp3YnsGVluTWYEzFkNHEkjG7jQYezJgGirhu9DYTc8SDsxYzD0JIBFM/xmLt2MZkOcrNGcJnLEEiURKLFRsM8A9O2dnBqhmPDCeAElXmwOOwlhD7MiCQVsKg7YEa52ZfoOqTBj7S2AcKMb6jQyGuN6RiPWuZJiHilim3nSYb6bC3JuOjVtFsIwUYUMrIlJATIOVupU7GlgHUnlYFXJQFQhxKADgw0LR+hFAFRAZYMwhNqfA0FsK16Yerq01rGtLORLX2pJh7CuRn6/CNFDCkchHebBYfq4X0dgeh43hIn5GR5wgciTeTIB1RAP31goffYLIvbPaSBySuO1TInD7oUYAVDOoup8IabYmBwRQHcTj3YkrzSlY6z0FuPYAtwuGvjKstojjvN5f6k0axsFTMLQnMkTToC+ZmIdLYWyTRIkjJxjLSCmXOATRcrtI/h77sN0tgbU3PvzIVInEwbiDAB8UCgOCx6bhp33SbM1biAxi5HfiSlMKVnuK5ALZgbUeDfQNEvSNEgw3C7zP17WFWGuWsNYiwdiX731uGijAepME00Ce95l5KF8U2V0SNoZy5ed2WEcK2MFRNXcmiOTg3C+Ue2g7dyvs4ihz5zCRKAOMIcTWLCzVSjD0n4Fnl/paB9Zvv4e1G4Uw9BTAePuc97np7s+w3luAdW0+zKPvep9vjJ2DsTcHG2M/9T6z3H8X5sE8bAzlwTr+jve5dawS5g5yc1KhCuLAQYCvxgtFx0IDfBUQpdlqgqcokuN8dCQuNZzAUkMKlmokWP7rIlzWZW7Y2SQgg0BxWaiZl3+wcRDy+Ss2FQ5+rezW+H0P9+YyXv3vBWx0SsJLVPzEUHciAbwnIpD6YQZI92LgBkSISJRmCOCxIYa4E5uzoe8+hZWuIqxqz8C9vcF/b7dzC26HzRstFI0UlfTs0PM9v+fsyDgYoNtpA0m4NPTM99zj3OQ/x+OwwDZWAeutfNlPLAydncmQlQHS93w5rhGGbLA1kiAQpZmrb+H1IB6MxMXrqVjpLoPLpodnh/w5h4Dn2ITh1vtY7S7CWm8Z1rRCBm0ZWH2nsE7qFzIOnIIi02ApjIOlMA3JGi7ljoW6FvOtEmyQhgpgHX8XHodNQOR/HBGh7persN0tgkUbd7jE6Q8AeF8jDIhQuzgBEKVpAhhFiAt1qVjpKoNrc9UbafQ3ogjTdxdhqS4Oy40poMRC0pOahTgztySJEqc1GVTmkAztSSI7tydhvUNWZxKodzZ2JXCxbeqQ+E70OKw+gLKXSF0NAQyanfvj2dmmMoYjUAZIS00hF5oUiKNJkKav5CLaEBebsrHSVY7ljmKsDv6FDNIO/c1yLDecEKskUV4j8VlhdFc6YH1wju0wy+1iWG8XwdKfFjyx9MVjc0zjzcIvyVMkO0zeDAsHUQCMGkTfnUiRuFATj+V2X/mi7ykHJZdY7OIccnKG8mH2eokJB9q+A9mZAI5qvGUQmbLsJyp14lGReDcJ0tTlXHAURgtig7gTCeB8dcJhgPUnYrKLEwjQWyeG6J29ELVBAJIpSwBVQGSA0YeYg+XOMiy1FUE/IB/hXTtWbpRjiQBGukaiYlAlrDAyY8UR9taJI8WwjGgCeme/JU8CeNd3hGk0QCNT75JnGIhegNGCOF+bhqWOcs7CbsrCu1TneTiJrNyowOJ1GWCkEMP4icIKK4Hbm0R8tSZlYboLeTQQaMr2xvPIlOvSPTvPWXg84L8pewRE6cWlXBA8RWGPc20OZqszMXs1HTpStdBcdRrmaoSWOioCsrAMsJsAph5/jeQIiJSdyQYTAD3e+pAyK2Vhy0hx8PFAb8JhgDRjUWGFUbEtvbiUB/UQczF9IRm6a7mYb6nAfGsFFkhtlVhoq8BiWxnmr+ewCOJiawlW+t/3ZuFlAlgnAEZ7F4f8RDYg5CO8ce8cTAP5cp1YDLM2Pbiz3ZvAxbY3AkeLeFAVdGc7SCRKL74igOogEjz9/b/Hzuok6Hi6d+zyz/TrbezbVrHYXoG5mlToriRCd1HCQiMZAFTQOkAAKbnEYhfHB1DUcyZtNtabJXZxjFQjsp94ePF9g+ywO0qlYOeRKU/7Qi2+B0CUJgmgCojTl7MwU52LPfOCXKg64SZzYJfaMSHXpoEjca4mHYvtZVhoKcZKny+JLHcJgDHZxWkPiMCxczD158M8VOxnyh5+e8BMAMkOox58zx66YwlyJ768lQJp8mIeVEH8KgO65iq495zw7DqxePOvoGssxXzraaG20wxPV5OJhbbgSYQBXksVs+dobIX53Ylr7ckwDvjdgfyPK1Y+yIClcSnNV2h4b7qRyNM+Hg/QHs6wzw6jwT2NB8K+giFHogCoAuLUV5nQNZ3mo0oRN9dwiu/DmcvpmLmSjlmSnFjoTjzYyokkstRZiXkFYJR3cdjdHij1y8LCZFCSCEWiqBWLeHhPA/wNKnGGcmEdl20y1w6soyXq/USKwOcX8sBRGAbi1MVMzDb6AWyuwsyljOBWWN1bHI3zzaVY1spJZNcOBlibFv01ks4M7pmN5G5zEnHCPPYzGPsKZAOiBEZ5xuLe0vustADrzG1bgKU/ExZarVPhJ1KhLT2/kA81EF9czIQuAOA0AQxhhVGJM3spCfPNJd6oXeyoBNWJsdjFoYkfjwf4LnPAqC1gZ5uMCDYgeGRawnMTikqfRKS6TJPY+s+/A22H+U/7vB1LCD9RBhge4osLmZhtEBHo3nXwfTj9VcZhK0yer9Bxnv3qMECqFRWAC/W+3vl1EwsD7KMIFBaaMh4IPjKlsamfFUYbEH2ZoL3ESF9Lkya+JHiKQh9nf4B0B+qaqjBFAA9ZYeRqv4X5lnLMNZVgqfd9Lnfo9yy2V3KxHZM1kpZkrDNA0cop4wFKLAdGpp1JoK7lgBVGs2darePhvTzAD+xYgrzbtzl0AgxQDcTJL30RKACeAd2LgVbYzOUMzDVXYM+mFzWi0srZN7FAAKvTYrKLo29JgaFPSSIeUbzLdxwlNCqyKRqj/YKkNPHrfBDAcBAnv8zCTL3vCM82ygADXBxKLARwf3NV1InsSHvgttuw0H4aOgIYg4UmMmUN2lNw2wMNVQfPoo0DpWLm3C2/YUpvmkbhLVPpWwKoAuLkrwlglTchEEA61kF755pczLVUQtd4Cos3P5CPsB0LbQQwPTa7ODJAJQub7rwHQ2+hPCIohaE7M+qv6toGTkD69osCqIH4nABeJ4Ci+1AAhnJxKBK5b27wZeF5Ang1XaySRHkrTBneK0nEcLOQ586UXHgsEKN3+wRAFRCff5GFaRkgZeGZBhGBoVwcKnGmv0yGzh9g62kutmOxi0PzFdp+UAAqw3tlAyJwoSlaL41L33xeAI7CMBAZYJ2IQAUgJRYF4IFIrM6FrrECs/WlWLihZGE7t3zUsahbIzk47QtrQDSmYO0mARRZ2Du87wu20BS9N+8ZoBqIExSB/gDrz4ISS6AVJjqWSuxZ/bMw4LZv8p04czHpQNsXzE+kYpt1LRULJJqv1KWyl0h+InuK9SfY3aYZCw2qlurioe/W+JKIXy9MWZhKHDrO0Y5EL8BwECc+P4kpBrgNisDp+jOgxBJohYmOpRL7ViUL77B747ZvYbHnQz7S7CUG8xPbK9gOI0uM/ERWZzmWSTTl6yrnad9KdznPnvU3ysDqKYO+SwPD8Huc7ekP9OzvyD6kyMKUoek4R/szIKRnnxWA4CkKdZwZ4LUzcm3nwPT1M6DEEtQKu5LHffNsfTnm2t6Ba9siQ9yEa9sqvgf7icJHpBKHyg/2GHfpH0h5bvU+5w0G+j30dfLX8n3n/7XyUJ3+v2HgLC800QCf4XVkYbU9+h+kIT37rBBqIH772UlMMUC7iEAC+EVWSCuMInHqYgYmz8fB8O9XsG/VM0SOjj3hJbKfuCdeclHz3BPwtbysxAtLvu9BGxGW/77MC00rjclieN+cIj6JhD6RRPk0Ej8r7HXevJeenSeA4SESwBe1FIEC4JQC8CgXh4rsK7kMca79p3IJ5MRiz19irvFUQJ3oxJL2Q5CDc9DFcWKl/0MsNBX4jQec0A9+wIP7g8N7J1b7f4Klaikmw3tTkI90kZ4SQBUQvz0fALDuLCY+zwpvhV3J5ZZvtr7MW4Tr6k9xiXOoTmwqZQPikIvTWsLjgcVW+R2SXQeW2osxXx1/aHi/0lUS2fBexcj0qI5FevppIdRA/IYA1vhFIAM8GZEVRq8v0IbqXHMVqE7ktq+lkrdL6Tm52/6mLH+9ywWywXSXEzmp8JarywVlPEDZmZKKsv3K2w8xGt4H+3Ah6QkBVAHxm0+zMckARRZ+cY0ikACqtcIqeei0bzOws01WGEGca6rg5zRPmW+p9JY4NO2jIRU9p6ysu5yExfZydrrpGWVmpcShIT6VKq4tA2fnYw3vj3knSk8+KYQaiALgWe8dSADpXlRjhU3R7JkzcxVmG6swfTXP5+JQ39x8GnMtpzFbm+tbN75GrjaNSyuhq8nAXHUqj0sXqbzprMBCQw68fmJjNpa5tCnHUnM2lpqyvrMP0pCefKKBGojPPsnGZLUfwFoBMJyL460TL+Wy+UDZmQ2Iq76tMOU4ezdlFVOWupbqDCy0losRQV2Od3jvNWX9dnFiNTI9qu2T/vwxAQwPkQA+9wM4SQDPn1RlhXkhRrIBUZPDx5mG91QCuWxrYmQaIz/xuB+4xgDVQDwEsOZtUGJRY4UFLbbVbIVdScd8qy/JLLRXxcxPPPSpdSrvRC/AcBCffpyN51d9R3iSAH6arcoKUzV3DrIpS+42tX1iSckRWz+xTf7YvwiLbelPH2lA8BSFOs5PP87BhB/AicsVeParNIZIkUjHmZIKibKzUBZ3K9SxUNtHvTMZEOTikBnL4o4lEzR3phmLkp2/az/xuJ+fyADVQHz6UQ4mqt+BZ28H7l0nppr/GhOXyjmxTNac5RKH6kTqVkjU9rHqqtjFISeH/ERWfRWPB2YaToNE0z6aOZN0TZVCzZXQkR3W84EYDezvYr6tiu/FWPiJx/0QSulPvyoCAQwH8cknuXj2mQa7xkVhDOw64HYqC0a0ZOS/aKT8t/8z2SDwNxFU/JoGWPRjb2ORt8JotS4mfuIxd7alPxJAlRD//It06IZ/Dqd+ylsPkrUVKxE8Mhx216agf/APmL6YjFm5xFEHMXpzZ/441IDEst6VDumP/1wE1RDPa0AQn31ejImrP2E9r34biiixsGrfxovas6BimzRVp+gM22BkhZGfOENqEJptEEU2Fdo0c2Y1V3HbN1Obz/OV2RoqtGP4WpqaT/IM6J0FwEggflqIJx/n4slHOaB7kbIzicocEmVm1vmTXOYcK7FcICtM2GGcWHi17nXeqIpwPBDuOPtBlP7wyyJwFEYIUY0BoWbad9wS53uPRPk4M8AfD8Qo34mdGZD+8MtiEMAfD8ToHmfp978ggIreHOdIPg6VMjMDZIgM8k0kRvr2gPT7fyoGAfxxQnz9O1H6HQH0h/jmTlT9mbKrbZmQfvfzEgSHKJLLmxJHdreVT3sPKLYFwGAQ39yJqiJR+r9/LAFHYUiIoSJRmBCKDebzEzWqZiyhNiBUzVgidLapb1bXO0de4vw/dPrV5hIPu90AAAAASUVORK5CYII=;" parent="ooqM9sPuauhWhxl2Y_vB-78" vertex="1">
          <mxGeometry x="60" y="40" width="80" height="80" as="geometry" />
        </mxCell>
        <mxCell id="7oCYW-wZGabHslEQ7wRl-56" style="edgeStyle=orthogonalEdgeStyle;rounded=0;orthogonalLoop=1;jettySize=auto;html=1;entryX=0.688;entryY=0.01;entryDx=0;entryDy=0;entryPerimeter=0;fontSize=16;fontColor=#FF9933;" edge="1" parent="ooqM9sPuauhWhxl2Y_vB-19" target="ooqM9sPuauhWhxl2Y_vB-83">
          <mxGeometry relative="1" as="geometry">
            <mxPoint x="250" y="340" as="sourcePoint" />
          </mxGeometry>
        </mxCell>
        <mxCell id="7oCYW-wZGabHslEQ7wRl-58" style="edgeStyle=orthogonalEdgeStyle;rounded=0;orthogonalLoop=1;jettySize=auto;html=1;exitX=0.388;exitY=-0.01;exitDx=0;exitDy=0;fontSize=16;fontColor=#FF9933;exitPerimeter=0;" edge="1" parent="ooqM9sPuauhWhxl2Y_vB-19" source="ooqM9sPuauhWhxl2Y_vB-83" target="7oCYW-wZGabHslEQ7wRl-17">
          <mxGeometry relative="1" as="geometry">
            <mxPoint x="226" y="350" as="targetPoint" />
            <Array as="points">
              <mxPoint x="226" y="390" />
              <mxPoint x="226" y="390" />
            </Array>
          </mxGeometry>
        </mxCell>
        <mxCell id="ooqM9sPuauhWhxl2Y_vB-74" value="Availability Zone us-west-2b" style="swimlane;align=center;startSize=40;swimlaneLine=0;spacingRight=0;spacing=0;spacingLeft=0;fontSize=20;labelBackgroundColor=none;fillColor=none;dashed=1;strokeColor=default;" parent="ooqM9sPuauhWhxl2Y_vB-22" vertex="1">
          <mxGeometry x="540" y="200" width="340" height="680" as="geometry" />
        </mxCell>
        <mxCell id="ooqM9sPuauhWhxl2Y_vB-62" value="Availability Zone us-west-2d" style="swimlane;labelBackgroundColor=none;sketch=0;fontSize=20;align=center;verticalAlign=middle;startSize=40;fillColor=none;swimlaneLine=0;" parent="ooqM9sPuauhWhxl2Y_vB-74" vertex="1">
          <mxGeometry x="30" y="400" width="280" height="200" as="geometry" />
        </mxCell>
        <mxCell id="ooqM9sPuauhWhxl2Y_vB-63" value="RDS" style="swimlane;labelBackgroundColor=none;sketch=0;fontSize=20;align=center;verticalAlign=middle;startSize=40;fillColor=none;flipV=1;swimlaneLine=0;strokeColor=none;" parent="ooqM9sPuauhWhxl2Y_vB-62" vertex="1">
          <mxGeometry x="40" y="60" width="80" height="120" as="geometry" />
        </mxCell>
        <mxCell id="ooqM9sPuauhWhxl2Y_vB-64" value="" style="shape=image;verticalLabelPosition=bottom;labelBackgroundColor=#ffffff;verticalAlign=top;aspect=fixed;imageAspect=0;image=data:image/png,iVBORw0KGgoAAAANSUhEUgAAAFAAAABQCAYAAACOEfKtAAAcV0lEQVR4Ae2c+Xtb5ZXH778yP3SGZvFuLdZia7Fsy7u823Ecx0B2SMhKCAQGSqEwkNIWBkoHCqWUsoQlhSRkw44dJ3a8b7Jky5blfd93f+c579WVJVmS5cQBZlo9z8GQUln6cLb3e857uai0JkSlkzVDldHCW2YLVJlGqLPIWqHONvGWY4Ym1255bdDktUO7g8wCbb4F2p0dzKJ3diK6oBPRu6yI3tUFXaHddtugK7IhpqgbMUU9iHm4BzGPkPUi9lGyPsTuIetH3F6yAcTtG0Tcft70B4bA7OAw9AdHEH/Ibo+NIv5xsjEkHB7n7cgEEo5MIPEJskkkHp1C4rEpJB2bRtJxshkknSCbRfLJWSSfmrPbPFKenEfK6QXenlpEylOLSD2zxNvTy0h9ZhmGZ1ZgOAtwUYZGuEBMd4LIAHqAKID0BDHfE0SrK8TdAsRuHiIDuRZirDNEO0h3iHpniAzk+hATCSID6Qbx5CrEZIL45PoQuUgC6AuiN0/cCMQC8sS1EHXMEzcZouCJj/v2xE2B+PQyuMjUBvAQm7x74s8JohDO+13D2aMn/ggQeYD3A1HIibkecqKf4bxZnuiSE+83nJ1yoks4n3bNiVxkSj2YF/oD8V85cU1h4QFuBOLPKZz9KSwPOCdyyuQ6MC/8vwrxJ86JnDKpDpsK8Z8lJ9r7RE6ZVMsA3hPEf/aceHoBnDKxFhuBqDQ0QZ7SDHmq3QwtUKSRGaFIb+UtwwRlhok/tfjTbD/gPlG3bxi6fSPQ7R+B7sAodAfGEHPQbofGEXNoArGPTSD+8OqJxZ8+kU4snCKxBn5BTGuCIrWRHfsSC4xI3NXKW6EJiYUmJO0281bUhiRm7dAK4fxjQnTLifEHh5FxfBSZJ0aRdZJsDFmnyMaR/eQEb6cnkX16kh37NgqRUyTUwAWil5yoSGlgjXb53UmMTy5hYnIJU9PLmJ1bxswsb7Oz/D/Tz8HhRSQ/3L7qiT9Bnxi9ZwgZx0cwMEqfa8XV5lcwO7+CqZkVTEzzVtm8iKQnNuaJnCKhGmsgJq8tLBGJ9Ujc2YKFhRUIr/n5ZYxPLGFufgVzc8tOtoKhkUUkPdwGBYXyRo59TIBYe+zjBYiNHfuiHx1ExrFhDI4t85+RPqfd5hdWMD61AvopvBaWVpB7ZpKFs7MA4SucOUU8AVwfYkRCPRLym5nnCb+w0zaPvANmaDJbkLybwpgP5eQiPpw1OU4qzkYgbmJO1B8YROaxYWSdGLHbKLJPjSLx8VEUPTcOa9+S8HUwObOCnKcmWU50V3G8QeQU8VXwB2JEQh0SdjRjanqJhWx37zz7xc2mGcTktCBY1wCFW2FZI4X9RBDJE5ntGYJu7zAidg0h5cgoWiyL7Dv0DC5jZm4F07MryDk9gZhD4x6lME8QObmeAFbZvdCDJ9pzYkR8HRLymhi8sYkl5OwzocU8wz6A2TKLhJ1GiPSNUDMt0Q898SfIifEHhxC5ewjpx0bQ1sV7ntm6hKL/HMfY5DLmFuwAD/IAPemJ7hA5uf4uHBB9hLM0vhbxdoCU+1RpjdBlN4Hg0csjxJ9Rn6jfPwhl4SDSjw6jrYv3PEv3ElKfGEXCYyOO3Jj95DhrcZgw60WUdYbIyeMI4PoQpXoC2Mg8kApG4s5mBKprEb+j2TfEn8HZWb9vAMpd/Uh7YsgJ3iIyj4+wcKb2hqo0FRgG8MAYEvyRwo5Pg5PHVsIfiFJ9DeJzVwEm7GiCLLEeoTF1P2uINBpQFvQh7cigK7xjw4jcPQhqsqlHdAA8NcaabTYeWAciqdqcjAB6gsgq82pOlMYRwAaHBxJAyotRhob7gyg02w8gJ8bt6YNiZy8MhwfQZuXDtt22iIyjQ1AWDoByIvWK5IkOgCfHoNs/ing/9UROFlMBrxCdcqI0thrxOQ1YXFzB0tIKBICk5PgN8UfMiTSkUuT3wPB4P9qsCyxPM3hPDLJwppxIwyoBIPteyyvIPjnKjn0MoB8QeYB+QJTEViMuux4DQwsYGl5g4UyFRZDCCGKYWzi3dcwhe58ZsuSm9ad99hZHndsGVY5g7VDltkOVZ4F6Bw2r7NM+P/pE1a4e5J/sR3vXKrz0IwMsnCknsmnfPgLIN9tDo8sYHltm4UznZqZuM4D2aZ+XcOZkujvgvXB9T1Qm1kCfU888MTKZRAjXE4szxLYOvjqf+2MvwmIboHKe9tkLS2SGEdIUI8ISWhCaYIQ4uRWyNBMDGJ3fjthdFma6AgvUeRbIsyyQplsgMrRDkm6BPKcTmp1OI1M2NqWRaTdkuTb87i9jzPMs3YtIP9zPwplyovu0T2i2KZTp7EwjU/9mLJPgZLrb8AuiPSeSJ1I4OwQILxCz97bi9Xd6oEhpRKTBde4sTmxGiL4JmuxW7D7WgRfe6MVfzg/jys1J1DTOwNwxB1vvAvoGF5nZ+hZg7phHTdMsrpZN4a9fj+HFtwbxyFO9iCnsgiSjE4ocOv7xc2easeh2d0NT2MMgFjw5wMKZcqIwd3aHqKVme8+g97mzl3DmIqIJoJ8QnXKiiwDhdnYmT5Qm8BU6khSctCao0kkGa0JYXCOKjlnw6YURdPXwpxnmJvf4FwL9+aUJ7H2mDxFZnVDv7EKMfXhPEMkTVbu67YN71+G9O0TKiRudOzOADwKi+6BKntyIyLQmnP9uxAVV3+ACSm5P4oPPhvHiH/pw9Hkb9p62ovBYJ/KPdCL/CSsKj3dh3xkbjr/Yi5feGsAH50dRUjHNvNP5zb6+OskG+ARR5xTObANis4b3bjMWLkJbDgK42RDliXUgASLS0ADyQpG+Ht9cHmXflxrxL74dwf7THYjOMUKU0IyQuCaExTdDlGSEJMWICEMr5GkmyNNNkKWbIU0zQ2IwQ5xiRniKGdL0dsQWduLQc704//0Ea4Lpzb/9YYoP5902qAu6IM/tgrZwAyqOm56o95UTD4+DB3gvEN36RKZqJ9WCTiyBqmqo0+qRmN8EeVI9a7j1ec2YmVnGygqw75QF/yauYeGsNDQjinZyvJ1YvPWJOyysOovT2vHvGjMOPNuL5RWwfi51fzeUuVZkHu7B8VcGWT6UZHVBXdDtdRfHn3B2mTvbPZGTam6BeeG9QBRyYmINpHHVCIi8C11mPf7rTRss1lnUNExBGl8HSTzB5JUc8pKS2xPYc9LCciKpOJQXpUnNkBtaEJluhCqzFaosE1RsqckMdQ5vUdltUGa1QZ5hhjjVjPBkMyJzLThwtgc3K6eZd0/PLCPtYDdCUjrw4Zfj7M+olXnr4zGkHeqFJMsG9a4exHpYaPIHokt1fnwMnFRdBgZRU86DvIdwDoysRGRSDX73bjcGh/i+iz55Z9cc9LmNCI+tZVIYqdjOr9b2WXz85RCe/o0NBYfbkbDLxDbCCKQkmczITJpKsxYTtHltSHrYgl3Hu/DM63345MIYTB2uhWhiahmGAzZI0jvw+nsj6O7nTyD0e8cmlvH++Qkk7uuFNMcG3cP3v9DEA7xHiNKYuwhQ3MHhp0xot/d99EGr6ybx9Esd0KTXg+VCuxRGIwCS/z+7MIz+wVXQAlT6363d82g0zuBu3TTKq6eYVdZPo7F1FtaeBUxOLwv/uuNn/9Aivrg0jmn7aMGwvwtROzohy+5EzO4unDk3iIp6vi+l/1PPwCKe/f0wInJsrNWJc1utc/FEnzlxFJxUVQrmhQJECuV1wlkRVwmxtgKhqgq899dexxdpMU3j6DNtEOmqEBh1FxH6GjYydZbCaF6iTG1gctjR5zrw4WeDuF09CRJoFxZX5XXHm7r9Df073X0LqKidxkdfjuLES73Q7aSTigUzs7yiwgDmdbCNMHW+lfWJ8hwrjr40gPrWOcc7nr8yxcJZVdADnxC9bEBQTuQkBHCDECXaCoSr7+C7K0OOD/POn3sQEVeFAGUlZPE06Vud9rlLYTQaEMXVsaNfcHQdxPEN0GQ2I7XIhMIj7Th4phPHnrfi1K9tzI69YMOhZ7qw+1gn0vZaoNthRoTBhLCkVpYLqUqn7Ol0CAKp+6yIyu1wWvLkFz2lmZ2I3NGFP3w0iiWqOABu1cxCW9QDdWHPmiVPF0/0ApGTRJXCBaLGd06M0FUgQHYLn3/dzz7A9PQSDp9uxRbpbVBIK92rcyJV5rVSGGtx7AtN1ObQiSUiuRGShEaI4hsRHt9kt2bW5kiSWhCRaoQ8rRWRmSZWWNi2bB5fWFL2dLAJIWl6BJCKi2NT1unsrCmwIiytE4+9MIDRcT4nX789A8WO7nvKiZwk6ibWQBTC2UNhCYi4hZNnTQze/MIy9h9rwS8l5T5FWWcpjMag2owGJoW5N9teN2W9tTh2AUKZZUZMQTubazCAezsRmcOvHHuCSCvHonQr9jzTh6kZPqe++j+jrLCsW51dcuIwOElkCQSILJR9hLNEUw6J5jbaLPws5I23rXgovGxdPVGQwmggtby8gqNnLdiqqEKYrhaKZH69jm3J0pnZeWfbgwDhPKiKyjKBKnRgrBHHX+zB0jJAbUzqHgLYDu06+4lhhk688if+ZNQ/tAT9nh5od3ve2fYWzjxAJ4gu4Sx4or2wBMrK8MhjDcz7evvnoIirgEhzhwfoSZS194kkQJCKQzNkehHEzy8MoeiICcrkegRraxGkqWXCrFjfgIjEBsiSG1mfqLCvkchSmiFJ5sM5VN+MsPgWEMBHTlrxxXdjTKOk956YJIAdiMwmgLT87n1nW1NAzXUXLDa+Izj92hDkeTb78vs6LQ7zxCFwYmUxmBd6g+iUE7eKbuLlc+0MwoWLA9gmKfNLCpPEVEGfXc9mykLyZm8CoKNrFhe+H8G5d3pAVbnwsBkZj7SyIb4+vwX6fH6NJGOPGYVHLTj2fBfOvduPC1fGYOly7QHpvSenlkH5MDK7bfX2gDtEp5woSu/EZxcn2cd599Nx0InF77Pz/kFwYkUxGERlCQ/SR07cGl6Cc292sF/2yRe92Cou9UsK4wHWsR6Qwnj/CRM++nwAPX2uAASo5KHU7kxMLTGj3pH+zNOrd2ABn3wzgkNnbZicXmKVOOVRCzuxuFzB8AJRlNaJD+wnFvopziQ1x/+zMydW/AAHRPJCJ090z4nbRCU4ddbIvkdV7QSCZGV2EcK3KCvR3YU+iwdIQoI6tRZbZJVQG+rw6FETXvtvG778bhh36yZhsc5hZHSRAaQ1Eur7qPCMjC2io2sO1Q3T+PryKH77p37sf6oTMTtMCIxpRnSe2VGFGcBM89p7LG4QtQV8j1hWxed0yoeSLCs2srPNieUE0DtE55wYqihFnKECMzN8MSjc34BtklLISdX2oWyLo+9Cn1nLPJBgxOfUg/KiTF+DsOhqBKqqEKSuhiiWHxHEZDexNZKUwhakFBpB22CxeXR/pRnSxCaExjUiJK4R4qRmKNONbLWONsLovakKpzzSDiUD6H3xXVfQiYgMCwpO9LD9mKUlIP94L+sTSQrzZxeH1G1OLL8BHmKxV090hrglrBgff9rDvLCpZQpidTlCFLcgi/EOURxdiTgngPrsOgbQRZRNqoMiqY4d/WQJvBRGoiwrKEmNID1RkdqEyLTmNeMB2k1MLDQzr3UA9LWfuLMDyhwLFNkdqGrkj3iXb06BGm12q4q0RD/1RE4kI4BOEJU+cqK6FKGKm4iKK4etm//FxaUjDGJARJlXTxRrCWAN80DaalCn1CBEdde+Vrd6YqEt2XvZlBUlNkOX12rfDltBso+tsOh8C2QZbZBntuNSCV88RsaWkHbQBmWuHSBdTfMTIieSXccaiEJh8ZATI9Rl2C4qQc6uaoyN80pHTd0EknOq8FDYTVCvyLyRTfr4QRWdm+MyahybXZ982Q9Vcg22ySsQrLrLZiy0YsdriutDJGWbxgO0i0NymDbHiL9/w/dzVIUZwPTW1dMKaYp5bYjKaUNoogmpeztRXs3nPZoHkyhLQyqdl9U6XzmRE0UQQP8hUjgTxK1hxcjdXQNbD++JU1NLrMWhkKbqLNbcdrQ4Ys0dxKWvAqf4J9nro0/7cOCkCbFZ9RDHVCFYVYWAqLuOnBiirQEZ6xOpV9TWIlRXD2liA6jFOXSmAx99McSWOYUKTX1gclEbWzWmS5K0m0j9YnhSKxQZZrz4Zj/I4+g1PLqEg8/1QJTazp+bHRck/d9P5EQR17BRiFSdCeI2UTG0SXfw/fVVUaGldQpPv2CCPOYOtorLII2+w5rt2PRqTE5Rm7GMugY+dIQvTX9e3zyFb68M4/2P+/D62zb86nUrzr5ixbOvWPGrc11swvfeJwP49uoo6punHd4svEd9ywx7bzqJ0H4iFRe5oRUh+hYmzJ55tRcNxlVJq7x6GpkHrRCltq29ZerUJ3rNifZbply4lAD6gOgjJxLEYNlNBEhK8ORZI9otvCpMX8pqm8U773dBlVCJ0MjbiE2rYjlwemYJ2pRqFB5swkef9aG1bcZrjyfA8fRzeWWFLTV98vUQHj1hQWyeke0uzs2tsF3tiJQW5D1mwVsfDro03D39C/j1m/0gBYeMcqLHE4ufELlwyVWsC9FHTiQtUaIqA1VnmfYWXnylDUbTFPvOVDCi9BUIUZY7AJIHUjhvi7iN7XJewTHsrMehUyb8+lwn/vRRLz77ZhAXr43gaskos4vXR/DFP4bw3t/68fLvu3H4aQs7rShTKAfWIyi6HvE7jXwVnltGUqEJ26Mb8ZV9iEUfpsM2jzfeG0DszjaEJbay4f2a+85ufSJ/33ltODvnRB7gfUBkLY6aF2XDI0uxJawEEvUt1nCfed7EWhyRqhyxBt4D6VQRk1bNBFnaCouIrUS4thLBURUIVFZgu6ISgZF3Eay+ixBNld2qWZ9Iw6pgTQ0TIWjOwhbfDU3s3ExHPgpf5oGFJtYnHn7WiutlEzj9cjc02SaExrc4Lb3zheVeIQp9IhcuvgLmhfcLUVBxNGUQRZVhu+QmAiNKIYu+jXBVOeLS7oI8kiSw6NQqbI8o96zi2AUIOd0eoMos3GNx24BwlsJCdPWs0Z6bX2ZL8MmFJnaPRZnWAtqCCE9oRmSG2837TVg3JohcGAHcCEQfOZEd/UjBEVQcu55IrY1IXY5mIx/a10tGkLqjBttl5czCVBWQxFRCFlcFBVs59rL4bm+2ZYl1EMfxVTk4upaF840yfgJnbJ91NNw0LvU5Mt0EiFyY6HtsGKKvnCh4ogDRLoUFycuQ/2gd2+yinETKyZUbw3ju5XZkF9VDlVSFMDUfxjSo2q6gcOZDmsYEQVEU1lUQxdRAk9aA3H1GPP9aF66WrEpZw6OLKHqiDaL4Bv4ZEOvoiTQudTwD4h73E3mAou95L9yIJ3qB6Hzsc3iithyy6HIESEuRmFWFr/7Rz8LZubr2D8yzad6la8P45Hw/G1b98YMekL33cR/+/tUALt8YQXX91JqJHt31+ObyCAxFRoTF1rM9HMeDNJwhPoD9RC4s/DKYF26mJ9KRT36T9YkSwRPphBLNn5u3S0qRnFuNl89ZcK14GD19q5MyZ6i+/r63fx7XS8fw6ps2pBe1ICS6FmJ9HaLS6BkQvLJNJ5awOBJnm9a/PSB44wavpfEABYji9cM5WHQNIeLrqwKEW06Uqm5iW3gxUrMr8ZvX2xCupKGV26BKexuhkbeYkhMou4XI+Epk7KrDoRNGPPdSO377dhfe/aAb73/ciz9/3It3P+zBG+/Y8NwrHXjstBnZjzQzKSxUW41AdTUkcfZFTxpSCYMqAy9AvPZ2L3L2mdmgytcVDLocuaELkvZjHxcadgnMC9eDKL0Gsew61DElUMfchEThJEDYw1kaVYJtYTegib8Fk5kvGK/+to0BdQ5n57kzLTXRnCU06jYCFeUIoMISUc76xG2y29gmu4Pt8jsIUFaANiCovaG5M0lhCqrQXgQIWn5//W1eNWrrnPN5j4VuVDkuSOYJedG7FOYYVO2yggFcA9FDTgwOuwK1rhh9/XPoH5iDJvamiydKlMXYFnodGn0ZWk38Uc3cPg1DTiULZwZQCGc/hvceF9+FXRz3C5IeIJIUlrWnFcKmLC1trrkMlMVriSSF0ery4IjbBUlf4Uzn5oJOcKGhFxEaegmeIDpX56DQK9Doih1L5tq4m6BwJilMovgBW0OuQR1Xilb7KcTcNoXohFvYFv4DpNRoC9XZacbi7IkPYsnTfWfbE0Taw6GrurQ4v7wMn1KY4wlNwomFAQwhgF4gOuXEoNDvoY4uZmo0zSu0sSUOgFuDrrKwbm21e555CtHxZdgWegOUEzcyd/albPtzo8pZT3Te2XbcqHLzRHlqCxNj6YREYqyLFOZHYeFCQr5DqAAxzIMn2iEGhRDAH+wAlxjAENFVbAm8ApWuBA54bVPQ6kuxNeQ6KCf6mrHc12qdhw0IT3riehAVhmZ2YZwBnFvhpbA0+6lFAMh2FD3nRC4k+DusC1H0PYJCLkOtFQDyHviLX16CKroYRrvnUeHQxpVia/A1UE5cd2T6I+VEjxAtfE4kQZbEB94DeSmMRgQuD1wTQHrIiVxI8LdYA9FDTgwMvgS19gbzwLm5JYhl1yBT3nCCN8kKy5agKywnskmfP832T5kTLXPsqq46o8UxDqB8qDC0rH1qnReIXEgQAVwfIgFUaXiAY2MLSDaUobGJP3+azZPQxBSzcObnK04tjuCJfsydIzzs4jzonNhinkXOfjNbNKKRK10ap8Li8dF/HiByIUH/gANiiPdwDgy6CJXmOiYnF0EbWdYuXjxtapqAQnUDv3joIignUmVe02x78URWmYXqfL/h7CMn0n4i3eujS+N0QTJQU8uu6tJlcXrZeueZFEZyGIUzPZHE351tLjiQADpB9JITGUD1dYyPr26WdnRMIzWtDCLpNeaB5IWamBIWyt6abZ9rJPcL0UOfSDeq9DmN7Goa3XeO38HPnGmZKWdfK1tDFo6MNFpIKmxlj3VR0cVxP87OXHDgBayB6O6JoZcQEHgRas11FxGAXH5kZB6zs0ssN9LAXbABD822tw0IFwFiE3MiLb7rsxvQP7TAigQVCsFIGaf9QNIQhRdtQSQzgH7c7bNXZi444Bt4hOjmiUHBFxEadhmlpYOYmFhgNjW1iNm5JQaQIDrb4CB/WhGabcfw/kfMicJWGE0ACZiz0X98Mgpb2sEh77tTPcmUHHq4kKe7fc6rdYIUxgVv/wYMYsD6nkgQ6dxMnshMe4NVZk30D2CmK2anFRbGMcXs7LyRkemDyInCBcmE3AZ235lu3VMo03VdZvnNbI2EHumicnq4EHumrLMU5mXJkwsigAJET+HswRMpnMkoL1J1ZhZyGdRs04mFWdgVlhs3OjJ1CedNyonkiWS0KctMz18IEgoLrRvTc3GEhwt5XfL0kBO5oG1fY12IHnLiemfn+5n2uUDcxJzosovjQYAQpDBBT/Qoyrp5Ig/QH4hunuhRgHA6O/s9qPoRc6I/T2jaKEQuaOtXYF4oQKSiwmz9nEheuMYT7wXiT9wnOgsQztO+9T2xFVzQ1i+xBuIGcqJHiB70xHsd3ruE8yblxM30RC5wCwHcIMR/5UT7MyCM4AK3nMc9Qfxnz4n2x+Zzgb8kgD4g/isnOgZVa3JiRgu4wIe+gAMiC+UNhrO7J3oqLP+PcyIXQACdId5LTnSH6EFP3MwNCJfC8hP3iVzAf3wOHuL5VU/8OUH8mfeJ/wvlRma8tGPdHAAAAABJRU5ErkJggg==;" parent="ooqM9sPuauhWhxl2Y_vB-63" vertex="1">
          <mxGeometry width="80" height="80" as="geometry" />
        </mxCell>
        <mxCell id="ooqM9sPuauhWhxl2Y_vB-65" value="" style="shape=image;verticalLabelPosition=bottom;labelBackgroundColor=#ffffff;verticalAlign=top;aspect=fixed;imageAspect=0;image=data:image/png,iVBORw0KGgoAAAANSUhEUgAAADAAAAAwCAYAAABXAvmHAAAJTUlEQVRoBdVZiVeTVxbvf1PIQhKSAIJKqeNYEAQBtXWZ9mhrK53RaadUHfVUp3Xq0jqO3exo7ejUWi1LdkDCEvYdBcqmyCKgbGEPhAR+c+6NiQmL44Zh3jk33/te3nvf+727vHvvewn/5+WlR61/ZHgKw8NWL9IURkemHrVEzAFgNk/g69MNiI/OwTJ/DQKlagRKVV4iNUKUWmzeYMKFc82YmLDPAeMBoOG3QYSvMkIpLoG/IBNKPxUCJN4lf2EK5MJsKMVFeD0uF/fvWTxAuAAMmiexOjQNSlEhtm/LQ0lRD8wDkxgasnqV+vomkG3sQlxUFpTiYrwRnwWr9SEnXADOnKrjnafF2+3THiiXwsvQoBXr1mRCISqAKrnNtSQGMG2fQUzEdRabqoo+159LraJJbYVCVIhdbxe4lsYASNODZCrIxSksLq5/l1iluWkYUt80rF+b6VoZAyBTGSBJZUtDdfdSVdGPwwcaYczocjWXFvfi8IEmFBX0uNpmVyrKe/HejlLERebi5Oc3YbfPcJf2thHs/6gKcVEm7E+swt2OUW4fG53C4YPV0KrbZ0/ler/VTAB0iI6YBwCZSrI4pLTu5ZfLLQiU3MC61667mrdvNSFIWodz3zW62twrZCmCZOmIicjG8aO1SPygFJMTdgwPWbEmzIjlyjQcOVSJEEUawl81YmzMhpGRKfgLs/DXj8vcp/KoOzigR8x8HFgIQMqvrZAJMhg5TWAemIDEJ4X15dqVO8jM6MTpL2r5QzeqB3DqRC2Srt5hWU03dHgs4PKlW6yEZSW93F5ceJ/fU5PaMD09A4mPCp9+UuUxxv3lqQBcu9ICpUSF8FXp+MfJWvzn37ewJiwNQTI16MNXf27hRRDnjhyqgt/LKbjVPIRguQ6hQZnQqB6KxN4PSyH1UfFu08JojMRHzdwgEVsUALTAYIUGly40Y2WgFmEhevx4vgmvBOtw+dJtPupJLslWb9uUg90JRbxp1ZV9iI3M4wPowz8VgywdPSU+SSwy1Gl01Aa/l5OwP7EcNtv04gGQClLQ1TnGQKh+r9vC+vLDv5p4sXFRmUj8cwnCgnXMFW4EMDMzgy+P1/IBVFneh3+eqmMr0tc7wV167lsg801nsaO+xIGjf6t2Dp/zfCoRIg7QxMPDU6i5MQA6J0gh/XyScf6sQ4nPf98IhdiAEIUGPT0TvMP3usd5AaQH5Jrk5d4D6YhCXISz39TzafrtmXrWlYryPkxN2fk7B/dWsGiZB6yw2RyWy4nkqQCQ4skEaejpeeiDkJcq8dXi7NcNPHfL7WHIBOnYujGH3+tqzFCINQgLMUDqa8Cm2FyXV3ng43L4C4xYEaiHTKDDqZM1PGbQbAVxl8RRLlLBX6hHealD2Z8JALGZ7P7U1EP3ghSutKQX3V2OXaYPBEhVLmtE/5cU9eLSjy0waDsxPu7pEhcX9uKDP5ZBLtJDp+7EQP8kz09iVlTYg4K8+8g39cwx6U/FASf6hZ51tWbs+8sNSH31qP9tcKFu87ZfvtSClUG5LFLzdpjVuCgAyKbv2FaBKz/dnvW5x3sl7sw+/RcauSgAFvrYk7STL9ZQP8SuifF6F4jITSGOkkvvLO1tY5CL8rBqhcHZ5IjIaAcWOoldPZ9z5U7LCL77qglbNuYiUKaGzDcNcmEuFKI8JqpTW4BUjS0bcvHtV42orupH0tU2D3/J5cy9KADkMpz+sg5yoY7Nq1yYw5FfbGQmdr6Vjz3vFzHtfCsPcVFGPm8cEVkplGI9LpxznD3O/XzhAChwoqBE6qvBgb0VfD709zkONuei3J9kofJN93BoXyVkAg2PPXXCYXqp3wsFYLVOIyxEx85hceHCrrg7APd6WWkvi1XoMp0rwH+hAMbH7exLkWx/9slNdHU+PEfcFzpfvbvbgqNHbkLmawABIPebygsFYLHYOXEg9dFBIcqHXKzG7l3FuPhDM4sSnSktt0eYqE6ic/HCLexJKIZCrOYxEh8tVi03YHTUSwBIhJRiDRLeKYDSjxZV+ECZTeyO0AKJyDWRC038H/UhAI4xGoQG6bwHIHSZFv6ilAcOnwVa1V0c+6wG7+0owKbYbEStyWDauD4L724vwLFPb0Kj6kB3lwXjFhsUfqlYEaD1LgBy2nrdnEN3mSc/imi+0t8/AbloiQCgIP5Ji8Vi8z6AV5frOYg5/30z7LP8/UcBIq5QftRfkIZXlnlRByh9KfPVw1+YjfURRnxzph50JnTeHQNxZXLSzkRWhswspTgp8ImNNPIY8npXLdd7TwfIEZOLNIhYnc6BDUVr5CpQMoAiut+t1GN1qAHLlVpuI6COZHOWY4xQ7V0OOK0QxdUU9Jz4ew3e3GxiD5MUlIAQUZ12+s03cnH8aA17pxRcKZeKFZrt/1CcTX4PiQ3RQL+VY293vTCbJ72vxMQBqSCZ5d19cY9Td1ihFO+eA2yFBGn49ZfWx1mzR59kzhIuCStkYI90+7Z8XP35Dhrrh0CZDkp+OQuZTYrU6D8C+/YfCh6kOJeCFRJqsDJIy+EhXR2Rh0nZv7Wr07EhxsgU+fsMRyLN18DZPYrUVgTSGA3Cgucxo5SZpqjscQNs5049yZO8UdIBuTgVFFLqtR3Yn1iJmAgjt0l8NOzvU7ZO6qOFQpyK6HAj9n1UCb2mA22toxyhzfGF6NAIlqtZw+mubLEKAaCdJyUmkXGWmRmwBSJQFMgTkVtNVolCUGehNLxclMJnhIc7TRNsiDaC4tO83G5n/+f+pGvSFQEayARatLc5Ljae5COdnZSV0LJojY/beCgHNFSjjDPJY1xkFgYHF48Lu3cV8XfWr82CQXvXgxMLgSFlTtffRfy6HCjFhXh/ZyFo06m4AFjGbYhfR3fExYh+zYiUpFZmJV3rUELpWampYRiDg1bQabplo4kDGbnIxMEJBSqUxb54oZkvR5KvtXKdLksS3ilE6DI9qC8FNpvjTZwdd4J1AaAGyihve53yMgVMFLtSspUcqGclWgBdjlChTDSZz60bTZyRpvCS/B0HUYTmiNKU4tIHYSTlhvJw5ac7HnfENJcHAGqw26ahSm7HnoQyxK/LRnT4db6CpWvYZ6HYyHwWGUbg9kO6kJ3ZDbpr+OJYLQ4frGQ6+XkNt2VldoMycguVOQBmd6SLh+dRntc8s9fyPwHMHrDU3v8Llq9LHQ0C47UAAAAASUVORK5CYII=;" parent="ooqM9sPuauhWhxl2Y_vB-62" vertex="1">
          <mxGeometry x="180" y="60" width="80" height="80" as="geometry" />
        </mxCell>
        <mxCell id="7oCYW-wZGabHslEQ7wRl-64" style="edgeStyle=orthogonalEdgeStyle;rounded=0;orthogonalLoop=1;jettySize=auto;html=1;exitX=1;exitY=0.5;exitDx=0;exitDy=0;entryX=0;entryY=0.5;entryDx=0;entryDy=0;fontSize=16;fontColor=#FF9933;" edge="1" parent="ooqM9sPuauhWhxl2Y_vB-62" source="ooqM9sPuauhWhxl2Y_vB-64" target="ooqM9sPuauhWhxl2Y_vB-65">
          <mxGeometry relative="1" as="geometry" />
        </mxCell>
        <mxCell id="7oCYW-wZGabHslEQ7wRl-43" value="ELB" style="swimlane;labelBackgroundColor=none;fontSize=16;align=center;verticalAlign=middle;flipV=1;startSize=40;fillColor=none;strokeColor=none;" vertex="1" parent="ooqM9sPuauhWhxl2Y_vB-22">
          <mxGeometry x="230" y="80" width="80" height="120" as="geometry" />
        </mxCell>
        <mxCell id="ooqM9sPuauhWhxl2Y_vB-60" value="" style="shape=image;verticalLabelPosition=bottom;labelBackgroundColor=#ffffff;verticalAlign=top;aspect=fixed;imageAspect=0;image=data:image/png,iVBORw0KGgoAAAANSUhEUgAAAFAAAABQCAYAAACOEfKtAAAaLklEQVR4AdWch1tVV9bGz38zmXSjQQUFKYJEQCyggxorGhsoIqgQRBANliQaNdExUTPPN4mpJsZxklijWCkinUu9dBRsgIDg+z1r77NPP7egk++b+zw7JjNqvL+std613r3OkVJDS7AxrBQbw8qwaQqdcmymE16BNDrvVCKdnSq8P5VONTIi6DiwJaIGWyJrkBlZi61RdOrYyZpWj2x2GrAtupGdnOmNyJnuxPYZTezsmNGMHTOb8cHMFnwwqwW5s1qRO6sNO2PotGNXLJ0O7I7twJ7Znex8OPsuPpxzFx/NuYeP/taFj9npxt44Ovexby6dB/iEzryH2M/OIxyY/5idg+/24FN2evHZAjp9OLSQzhMcprOoH3+ns3gARxYPsvP5kqeg88XSIXaOLh3G0fhhHIt/huPLACkltASpoaVIZRBLvYDokCE6bCFykARRBikgTreAOFNAbDVAbHcBUYAUELutIc4niI9wcP5jHHyXDoEUEHsViIcWGSFykK4gSimhdyAgeh+JAqIaiZlyJGZF1UGJRAaQQ6QoNEXiDGMkCoht2MWikUfibstIvCdHYpfLSCSA/HCADOKCXnxqjEQvIB6LH4a0YTIBvANKZRGFDKRI53Dv01lApJQWUZg9rQHZxkh0mc4jgSgi0VU685TWprMJohfpLG2YXAwdRAXk89VEM8R6GaCLSBQ10SqdY3gqU010HYluIBrSWdREE0QPIvHo0iFIySEE0AAxTAiLNzVRCIt9TWTC4i6dBURFWEQktrN0ZgDdQtSkMxMXg7Do0vmxIiwmiFaRuGSQiYoQFik55DaMEFlNNEGUFdojdVYhGiNRSWk5nS1roi1E65q4R6fOoiZ6Fomk0CQsIhLt1JkpNFNnvbBI6xlAM0RWE5V0HkkkmoVF1EQGMVqtiS4hKumsaXEshEVA/JC1OAKiJhKtWhzLSOzxoMVRIUrrg4tgB5GrsxAXm5oYbtUn2quzgGhOZxd9ogJRpDOPRJHO1n2iBUSrdJ6nVWc1Et2n8wCOLBmElEQALSCmyOos0lkotGi2WcPtMp3NELeyhtvQbHtaE91AtBYW0Wx7E4lys83aG0OzbSEsUlJQIZKCC/UQmagYhEWZWDTp7GmLE2lOZ6/6RFETTRC5sIiJxRLiHItI9CKd3UWitC6ogAF0B1FEIm+2NRDlsY+Nfh6OfUZhUXvEEbY4sdTiuJ5YPBr7dDWxR55YLGqiJhIZQAbRRSSKdObCQnMzPyKd3c/OIp3t1VlAFM22S2ExtTh6dRY1UQgLn51HEokyRBcTi7Q2MB8E0DYSrfpETTpvFBOLxwaECtHSgBDTCpkQYnYeycQS04GdMzuwayYZEcKAELOzNzXRLCyfLZQNiEVPICUG5sMtRENN5Oo8kkgUzbamJsrCYq6J3MVxCVGpibzFIQcnd0Y7ssPb2I+fLLwLOgQxZ2ondscQQGMkCgPivt7FYeksXBxhQPSYZmcpMfAWA2iGaFBnGaLbdPZUWCLIBuNWmKiJZoge1EQ5nXfGtGJbRCubVs4dfYSWqkH09zxDf88w+/vzxx4zKyw3+i4+jhPqLJptAVE7sTzCfl1NlCEa1FlKnHQLZohcmU3CYkhnd8LyYvxEDtFVJObOakH21BbsW9SO1uoBiM/wEEBHfFodgzi4tAsEUfUT3aSzrk8UfqIqLFLCpJuwhijU2RCJVhBH5CeKdLaviWLsE36iYsoa/MScaG6HtdcOMlZdLU/xw8772L+kEweWdOLkrgfoauEkO+qegoxZkc4cpKtIfKhEopWfKK0JuAl7iDaRaEhnfU20mVgsWxyhzpqaOAI/MWOyE2ePPmDw7jU/xUfz2rAlpAU7otvY2Rrair3vdioQLx7vYTXRG3W28xOlNQE3kKCFOMmuJhqabUMk/l/5iTnTm5Ad1YS2Gp66P+R2ISOkSXa1VXHJDG1lkUiU22ufYiepc6yqzh71iRbpLK0JuA6C6DoSjelcBObiGNRZb0B4E4kinc2RaD87c2c7O9KJPXNb0N83jOGhZ9i7qA05Uc3yHYuYndtZJFI6088Z6HumqLN6xyLUWaSzjSkrC4tIZ2m1vwDoDqJIZ9c1kUfin+cnEsDdcc3o75UBLmzFtqhmzUUVh0jpTDVRC5CiUH9RJSBqhMXKgNCos7TK/xq0EHXp7GmLY0hna3X+z/iJdOu3NaIRLQ6ewt99cA/pQU4GUNz20U1fRkgLftx5n9VJEpvc6R3YHcNv+6wnFs8iUVo18Rq8g1gIbkB4EImKn8jTma5OUyfTKWdnUxhdnZId5vrKVPSJIp2NfmJaSD1+2d+FZ8+Ae82D2B3XwiBSJNJ5P7gJH85rQ1fzUwbw/LFHyJrSxm77hAEhIHrrJ0orJ15lAL2DaKyJZMham7LJwXeQ4FeMhPHFSA4sQXpEBbbOrETWrCpkRFUiJbgcSRPKsN6/HJvDxL2zvToLiFo/cWNAHY5tbGfpSYQIFEXi3oWtrCZ+/0EXSJ3pQ9FHEUkTy4vwExlABtHrSHQBMbQYSZOKsWpsEdIiSnH0/QZc/uEe6kt6cb9zkNWrgb5hPLg7iIayPlw92Y1/ZDYjM7oaSRPKsSm0it05my7vDX5iVlQ9UgNq8c/MDjzpGWaAxI/0D1Tv6IhPS/UAa7bZxBKrN2VFJOprophYNDXRYIVJKybkgQDaQWRtjttmW21x1gffxgqfAqRHleLfR9sZMPEFxI9PB56BjvFDQM/+4y6yZzmwfmKFvAXBG22xASHSOTOiDqkBNfhp713ltyk+34PcOU0481k3nOX9ePJ4mIFtrhzA758/AJtYIlpAY5+yAWFxPaCD6MpPnPcADKAOor9aE1ez9sbQJ7oQlrUBhVjhk48vsxpYdIlv5qzsxb+PteNwSh1yF1QjK6YS2bGV2LXQgSOpDfj9eCeaKvvET8fDe0/x9Y5WBjFtSjW2aNdIomrx/js1SA104Pw/upVfc+X7B0ifXI+MKQ1ID2lAVkQjU+fdc6kONiEj1Int0dTeWG9AjNRPlN7zuwICqIOoSefVHvSJScEFSJiYj9V++fjj+07lS1UXPMKBdTVYF3AbK30KkeB7G0kBd5AcVMLO+sASrJtYgoTxJawWHk5uRE1hj/LrL3/XjdTgSmwOkyFG1iAt1IHNkx24efqh8vPOHL6HjYG12BpRr66RRDuRFdmI7CjqF5tgvYsjInHkfiIDaIZ4Da7UOcFgQCT452OV7y0UnOMRQXXnu4+cWO1bgFVjC5Ac7P56YGNYOdZNKEXypDKc/KQNw8M8xQvPPkRKUCXSw6uxMbgKWyIdqLjGIQ89fYYTO9qR4u/A1kh5oekF+YnClBXpLNRZmBBioUla7ncZBNAMUajzddYn2kVi4qR8xI++gT9+7GAR8aRnCJ8kVCN+1E2sC7KeWPSzs+Z6ILwcBDJhbCkOrW9kYkO/ad6P3Vg9ugw5MTVwVjxh/56+R0M4sqEZGyZW840wZY1EbEB47ydSXaRdHM/SmQuLtNz3D3CIl/HeBHfpTNOKpiYG3sLSUddwbGst+1IUEfsSqrB01A2YbvsMBoTt9YDsJyaMKwWlNP2e9DlzpBPt9f3s7++1DOLj+AZs8K9iq3VCWJ7HT6T1Oq2wiBZHUec52tU6eWKJ64a0jAAqEG0iUVMT+dzMIa70vYEN4QV41M1tpG8/bsTiN657fD1gPbGo+4kJY0vw84F2Bk38xVnRh+2za5EyidJZnZ0trwemcS8xe1ojq4dUE3Oi+Y6i65ro+X4iA8ghXpYj0QaiPPLR2CfSedEbeThzrJl9t5riR1juQ2CNdyyuJxaRzsZ7583h5dgUVo71AWWoK+ll/47G8j6kh1exmkjKzPtEGz8xuh6ZEfXYFFSLzKkN2BXnxK64JqbOpNLbpjWxBU9lyVO5HtBEIlvydH3bJ8WPvwQCaIJoSGcmKppIXOF3HetCbinRty+hAvGjrxuuB4QBofaJWhdHXA8IiKb9xHAuLH/f0MgA3m0aYGNf2hTXE0vWtDqkh9LGbD3OHOriPWEP7wmbKvvx25FutiWbGe7UQzS1OHp1VtJZs4sjxY+/CFuIti3OdSwedQWHNlWxL9ZU3YsV48nV4e423a+Y71gMEA0GhJ2fSKKSElyG1houHsczmpAcUG6/bhxVi7TJNdg5twHNlbxm0h/SOJU0Vw3gowUtyHzn+SBKS8cRQCNEISxW6cxbnIVvXMal79sYwF+ONIHS2d7ZNo591ups5ycmjCvBb8d5f0mKvG5Cma0B8f47fHe7xSELTvMgTuS0Y/d8J/bMd+Kb7Z3McKA/eFvtANuW3TbNqe8TrdLZYj+RDAhp6bgL0EPkKb3c10VNnHAVy3zyUFvyiAHct7YCS0dfdWPKinR2XROt/ERqto9s5GlM83SSfxlSQyqwKbSSnc2hVUgLq2YnybcSpz/l493dpkHsiK3HhokOZITXYUs4n51z5zhxt5kL3+9f3GeTCy2/uxUWC4jSkrEXsMQEUdRE60hcPj4PCYHXcb+Te3Bb5hRh+dhr+hbH0GzrL+9dQzSqc3JgKXYudDC7isyInDnVyJpZjW2xDuTQmV2D7bNrkBNbi6wZNWiu5tH3dU4bkqlPnKZZaIrmEL/ZwSO6tWaACYtn6myuidLisecZQDNEEYlmiMvGXkHSlBugpvnp4DBSI/Px3niKQEOfaAnRez+RRj+ancl1ps9g/zMMPBnGYL/FkU0K+v93zq1H+pQaiD5RWGFb3qnDnnedrC7SVQBT58hG60cwlHS23k/kAGWI5nQWkSjSmU8t8WMvI2nKdQVgSsQtLB939T/jbIfyuZkMCAXgwLBHAHPn1iEtzKFrtgkipTPVQxIWLUDT0wO2W2FiYumAtNjnHCgKRSSqEC/J6iwiUYW4bNxlrA68qqRwxuxCxPvkeelsG4VFb8pqWxwyIMjFIceZUjg7tgqZMyqRHVOF7JhqbKMT68C2GAe2RjvQXM0V+6ttrUjyq0RmlPwwEPmJ0+pYTTyxnY+erY4BZE6lOZoveHoLUVrkcw50rCEKddZDJIFZMuYP1N7hIvJxYhkWjbpsaUB46ydq+0Tx9ECC320cTqln6Vt3pwdr/e5gQ1ApUkJITMrZ2Ti5ApsmVyBxXBlOfcrhUN+4bVYNg0iRmB5Ww2ri9th6kMDQ59fPu1izrV7eWzzHYhOJNDdLC98+ywHKEJdQOo8lZTaos9xwi7Fv3qsXcOG7VvaH+PnvjZj/6iVuyo7YTzT0iZrZeaVPEX49xkc6crbXjCs2PVEl9hM3hVUiLbwKLQ4ehQTxn9mtyI2rQ+7ceny1rU1R4NaafvYcC00sfK3Og10cpSbyiYUB5BBlkAwgFxYTRM3EMv+1CziYUsYAOqt7sNSH6iN3t7VWmBj73N472+wnkhVGfmKLgxuuX6Q3INGvmO0oWu0n0nN9GwIrsH1ODZoqOUT6Q5oa6cp+1mynhdaqDwN5uvguFppmtUJa8PbvWEjHhwB6DnGpzyWsmpSHh928ldmzqgQLXudRuJJGPs3YZ1Rno5+ob3H0kUh+4sGkGvYfqtPZj5TJJdgQot47W+0npk+tREpQBWu2Tx3sYPcu1DHQfQnZYWcO32XKTMYsjX1CndWLKg+sMBmitGDMb+AQz8LbdI57+TxOfc4b3OqiB1g46hKW+2ruWFg6u/ETXYx9SUFFWO1biNpibqA2lPUiOeQOEifwCHS1KUuRuDmsQr6kqsS2mBrmJ1LDvSGgil0LUHvDnzStg9kK8wyi9C4BHPO7ClFEoQfCsnjMRSQE5ymGwld7ahH30gWstLmo8vaOhUzZ7/c2segTf2ko70XG9DKsGX9bWTUmkEo6W+wnUk3cHEZACZy6RvIi9hOld8f8CjuIQp1thcX3D8S9fA6H0yvY96OmeteKO5j7sj1EYzpbr9YVMlP2k8RqxVD9+bMWtNbKwtDcj9wFlezaNNX0RJXqJ/4Z+4nS/NEEUEDUpLMciTqITJn16kxOztxXzuH8ty0MYl/PU+x67w6LxOW+V5gyi8t75iVq/ESrNRLyE8mU3bemijXq9Jte+q4DC1+5gbSoEjSU8XTufTiE/Yk1WPl2ke5JUyUSX8DOtif7idL80f+GpxDtmu3Fb1/EglEXcOM3Pl+S4v3PzhoseusPJiwr/PK4qGiERaSzUOc1/jeZn/je2Bv45sMGppoE7+avXVg1Ph/rAqkeFrANiJIrfBeQ7P4vtzYwiCQuJj/RLURhyqrOthj7zDXRusWR5r1FAO0gCnU2NNvGPtH3EhaNuYiFoy7i7AnuUNOXr7h1H7tXlrAWh/pEarZpYlk+/iqbncmAIBeHrDDyE/euqUBVvnpdee7rdqz0vYWEiXxqWR9ShISJhVgzoRB5P6kX6icPtLB0Tg5WIaaGlrFGm5ptvoPj+esLBERVnRsgHsNgrzDQPD0gzXvrDKwhCmFRIdqPfRcR73sJFIlzXzmPQ+kV6O5Uzcz68segZvvjxFLQ2EezMxkQ5OLsW1sO8hMbytX74Ad3B3A0s5ZFJF2Z0q42P/RcXxHoAn+lTwHOfMH9SPqPdeHrTtDEss6/GGtoDyeoBFumV7CRjwzZtX6l2BhaLr//wfuFJrXF0UeiNJcBNEBkdVGrzh5CHM/nZxKWhJCr+OlwA7o7VJD0RekzODDMjvyPyg9kj53+vBkp7xRg6VvXQFemqrOth0gpvXxMPr7e6VR+ff5v3UiLLMWP+1pQX9qL3kdDePJ4CHSXcurTdvYiDbp3pj7R/kUaNncs4kUahmf7pLmj/gVLiIqwGCNRbbZZTbTxE6nFmfvyeayelIcDG8pw9kQLHMUP0dXez8Shv28I3R0DbJ6+8G0bDm2sQtLkW1j8Zh7oto+eHDA/PaA3IOjqdPnofBzeWIu+x3yJvK9HXcs3Th90o7cttgrJgeRoewbRmM5CWMQTVVIcAWQQ/wX7dLZXZyEsZj+RW2E0scx//QLmv3qBGRCrJ11FUth1rA+/gYSg61g2Ng90PUB3LCv9+LaslTrrIpGNfaopu+ytW9if6MCQvInV2dSP41sakBVTgazYCnyZ6QT9b/Rpdjxhr3WhdPb0lS6WEOUNCOlvb56GCpFS2S6dzRBFTWR9okWLY7ztIxeHrDDyE+PHXgE52ysmXHU59ln3ifpIpIWmE7udzO7qcPazNF4xppCt2K0PvIOVb99GRnQ5aBSkz+lD7Uj0K+XvxXnO5505QAbxtByJFhBdpLOAKCJRNSDs/UTLNRJNi+NZs80hrgssROLEQtAGGH2ObanHe6ML2JtIxCtdqL1Z5XMbX27l9bK5uo/d9NG9s32zbW5xrJ53lua8+Qv+9uYviBvlJhIViCISVWERzbYZorWfaLuLYwHRnZ+Y4F+AzZHFrK5SzdsysxRrA4pML9KgSKR0pp9DzjYZsqkhZZ69oUmzASHSWfSJ0pw3TjGALJXdpbMJ4lnZxTkHEYm2Y5/BT7SF6KWfSG0OA9g7xOBsmVmCtf5FSDY8gkEbs1QTVYAVrE8Uj+oKP9Fena2bbWn2G6egQvwFcV6ns3BxVHX2tCbaQtREojs/kVqdNRPz4aziKfxFRh1IVJIn31YgUipTTTye2cDSnFKY+kRqtj17V5hIZ7XFEZEozX79Z5gg6tLZE3UW6fyiIHrnJ9J63cmD3LXpcD7BpohiBnGtfyFLZ6qJaVGlioic+qyNudps9HvO552lWAL4+s8sCtVIPK1EIlPotzyBKCLxRaezez8xwZ8eTysArZjQhyBSJFI6U008mlGvwGMCMrkE6tinscLczs6qFSZ2tqXY13+Ca4iiT7RS599srTBRE90Li7h3HsF+orh3DsrHinE3kRZ9WzcSGhvpxopeZM4sQ+LE2yAbjN5axw0IDUQLP9HuORbyE6WY1wjgTywKZ79hkc6ysPBItIIorDAxsajCItTZVliUOxYB0WoXx8M+UYZI1wM/7G9CfWkPm05oQqkv68HJA81MmRMmFOlanOf1E6WY105CB9GqJj6HOusgetBs2wqLxX6iaWIJysca/1tYNvoGW3rfFHmbKXSiP396gOZn/p4wdWdbrNaZ9hM9TGdp1qsEUIVonc426sxsMDsrzByJ5nQWzbZxA+KKad3YuJ9o9BONE0vipAJQi5PoXwBqtnUvF9JcmYpmW01nb54ydUCa9eqPoGOCaJHObsc+U58o1NmNn2i35Gm7n+jiAck/+XlnaaYM0BKiKZ1pWuHHexdHVWdzJIqJRUSiq5rIW5zVylOm4nFdV0/e62dn8hStNiDs9hNFs2019kkzX/kBdhBZj2gF0V2z/Rx+4jJf/RqJbU1kzTZvccTsLK4HjOnM7501fqLFu8LEGonVfqJtsz21CtKMV76HHqJFTdSkM5+dT8PzdBbqLNJZbbZZJNr4iXxn21UkeqjOlvfOqhVm9ZSpcT+RX1RZP+/MAJogvmZREzWRKCDysU/0iR4224bbPpHOZj9RROKLhuj9fiL1ina3fdL0l78DATRBtBIWDURycJiL467FUdJZuDiqOotm2/PZme8nmp7t0xgQIp1NLc5II9Hw0LgxnRlABvFl9xBHXBMVdTans4AoIvHP9hNNT1TJTw9o9xPZ1GJ44Zp4f6IU/ddvQQC9jUSam9XZ+b/XTxQ3flZ9ok5YNC9cU9I5vBxS9F+/AUGMtoT4A+sRPW5x3KWzEolu0tl470x94n/ITySF9gSitbCUQ5omAI4wEk1WmLsWR4Eo0lm4OKo6e14T3c/O7vxEZbXOZj+RRj+RzrxP1BsQUtRL32DaS3IUuoPIRj517ONeooUB8V/mJyoQ5Qt8XTpbPVGlpHMZpKiXTjCAnkeidZ+or4n/n/xEPvbZReLI35/I10ikyL98DQWi20iUa6IcibGyFSYMiJGns6iJotk2zM6WLo6xT7RpcXTXAxbPsTBPkW9ArHX1Jk+DAcEnllL8Lx8BRcKnczxbAAAAAElFTkSuQmCC;" parent="7oCYW-wZGabHslEQ7wRl-43" vertex="1">
          <mxGeometry width="80" height="80" as="geometry" />
        </mxCell>
        <mxCell id="7oCYW-wZGabHslEQ7wRl-54" style="edgeStyle=orthogonalEdgeStyle;rounded=0;orthogonalLoop=1;jettySize=auto;html=1;exitX=0.5;exitY=1;exitDx=0;exitDy=0;entryX=0.5;entryY=0;entryDx=0;entryDy=0;fontSize=16;fontColor=#FF9933;" edge="1" parent="ooqM9sPuauhWhxl2Y_vB-22" source="7oCYW-wZGabHslEQ7wRl-45" target="7oCYW-wZGabHslEQ7wRl-27">
          <mxGeometry relative="1" as="geometry" />
        </mxCell>
        <mxCell id="7oCYW-wZGabHslEQ7wRl-45" value="Auto Scaling" style="swimlane;labelBackgroundColor=none;fontSize=16;align=center;verticalAlign=middle;flipV=1;startSize=40;fillColor=none;strokeColor=none;" vertex="1" parent="ooqM9sPuauhWhxl2Y_vB-22">
          <mxGeometry x="400" y="80" width="80" height="120" as="geometry" />
        </mxCell>
        <mxCell id="7oCYW-wZGabHslEQ7wRl-1" value="" style="shape=image;verticalLabelPosition=bottom;labelBackgroundColor=default;verticalAlign=top;aspect=fixed;imageAspect=0;image=data:image/png,iVBORw0KGgoAAAANSUhEUgAAAHUAAAB1CAYAAABwBK68AAAAAXNSR0IArs4c6QAAAARnQU1BAACxjwv8YQUAAAAJcEhZcwAAFxEAABcRAcom8z8AABzESURBVHhe7d15dB3VfQfw8SZ5NwYDgSYnh2CIcVicpaEJCU2A5oSkzXKynNNmwYDBm+RNm3cbG2NbXmgWQsLikoY0lBBIoE3blJw0TdK0Of2DBMxiS3pa36LVmyzLkvzr73fnzry7vpn7NFpMes/5nec37+mB9PH3zr137sheS9VsaK2a5Ve1XG01eqXXU82Ua4NfmaA2ypXdOAOym/TKbVZqi1/tW6bna2u+Oqi26dW5nWpavu7zq0usHfnqpto5Vaue+w21ayocY1Xq1wP5Oh7UbrlOUO0pkWtvCZxUq9avU0HtmyJVL9V+vU4fCGqyXwf96uPFUAvCmnDfFLA66psFNkR1hR2rxDLUxGDjJ9ZHPT9gvZZKBKUaqcQquIkm1oCrwXJcOyxCGlJrgtUSK+AmDltrgDXgSqgcVkN1T6yCaoKVUP8/sbFhY6DmYfO4eVQFd/wlVsDlsMkmlqc2Bmw+sTruqCQ2AtaKaoNlqAZY13PsWCVWQtVgdVQbrGtiGWqxsCpqBKzXjJBULrAhrgL75hgVx++KtcRGwIa4w4QNcS2wXnOFATUG7FglVuqGBdiRTmyPBdY1sUnBFkqsj8phi0qsgloMrI8bHzaprjj5xI4ubIhrRRVwJVgB1wprwlVRTbAKbqJdsQHXHRYhz5fpTkFULBuqK6yGaoKVUM/vxI6XrthrWjdHQzV2xVRFJTZGV6zhDh822cQW0xXruKOVWIbatE5B5bA2VPfEup1j/9imO8OCVVGxOKodVsMtEnbMpzsG3FFN7CjBUgmoySWWoRpgNdQI2LGa7hSGRciYg6fRS2xBVDtsUYlVUIuB9XHjw0YmNhFYc3dsgh2L6Y7XtFZFTRjWhDvWXXEisDrqeIH1UYOKASuhDgNWQx0xWPzzeg+yFR7kNniIOmNMEjt6XXEJeI2ISeUCWwg38cQquK6wuSoPuh66EU69eB90fetGyFZ7+cQacDVYjmuHRchiu2IBN0nYCFQqBZXD2lALwqqoWCM53cms86D7kVtg6HQ3UKPH7kdvgWwlJdaMaoRVUTVYLAXVBjsaifUa1/ioEm5M2PGcWAb6nVsRsoeBBu0cPu959FYG65RYhEyqKx7pBQofVYANE6vhKqi8bKg2WIZqgE0ysfmEyqBBG+oj2JFILEKOg3NsHtUEK6FSGWARUktsBGyIO0xYH1cGTa/Fcygm9BzCFWr0OsFLiY0JG5lYBdUGO1ILFDJqDNjmhM6xySYWKwD9NnW5/jk0bEMD8iNv9L4eDjvSiU3qeixDjYD1UmsugFQUrIZrhi0qsQpqMbBU6TUctO8YJ8M09p+C48+vgaHeLvacHuk5HQ/aOXw/GzzhlMcVNvnExoMNcS2wXmo1odph7alVUAVcCVbAtcKacB1g21YT6G3SOfTcwBnoPvQpyG2bi3/u84+d7YP27XOh++8+xV4PmjgqfjNMd3zUCFgzql8uqK6wcRJLoJ2syxUSSqDf+yK0lSHSnvl5VHzs2Dsf0uUe9Dz5RTg3KMAGiS2iK04qsa5dsQ02jxrimmHHW2IJlM6hnQ/Lo9xzg/3Qg6DUHWeqJ0L73qtk1NqrIFszkY2Qe75PsP3sNWpBYnPVAmwiieWpjQGbxHTHgHqBjCrA2hNrQMWyodpg7YMnBRWrrWIidDz05xIKS+jfIyimN7txOqJOMqOun4RzWXwdYY9RYoWumD6v+zs3Q279BOfESqgarI5qgx1uYr2GVQoqh02qKy5q8GSAVRPbVjkFcnsXwkD2sI/BQL/AuuMMTnPY+daEis99VFqkQFhMe8+TXwhh6fM6D1wDuY2T2fk18elOsYl1gGWoNlgJNRasgsphJdQYsPbEirB4DEGyu94B/Q2/gp4fLIa2VQi6gYMyVIRRUOl5tiZA5bCU2KfvgP7Uf0Ln3itY99u+dYaM6gAroWqwOqoN1jWxDBUrRC06sQZcE2xSidVgKyf7g6eqKT4onW85appQ91ytoVKCaV4rwmbXT/YvAGzAdIdXeHzUYmAjExsTtpjpjoQaC5ajSrgKatHzWAXVBqsNnqqn4SMHDaoQKiY1WIEKYTdNxy53qnLZToYNcROB1VGLho1CjQUr4NrSmlRXzGBVVKw40510VTSqnFheBWDHKrEuXbHXUK6jGmEZrhnWjmuAjcB16YqjFijS2DVLqLT4sCff/RYLWwh3VAdPAq4I66PGhY0zeIoJa0N1hdVQBViGultJKiKbUF1hXRMroZpgFVQbbJzEevXlc6HeETYysRKqXxosQkaeY4eZ2Dbqfk2oeNx1B4UJNvHExoSNmu5w1Lk+6mgnVkWNActQDbCmcyyNjHN7FjDQoLXvXcAGUGO1/VRC1WB1VBtsocSGqEkm1oxKZYZNKrEqbFtVCWTvfzucOfIizkF/wx5z+DxdUxJOexJNbEzY5BMrw3r1ZSIqhzWgUrnAhrijDKvfbTcDEzuRVRorQ1MfDjp+YRHSefCUh/VRFVjXrnhspjt4rHIatK6d5FdFCaLO5jUd2tYhJFXFJEzmdIabXo+Plfi8ggNvmM5hZ7HVp0z1BFbZDaVFwbp2xZGJjQmrdsVeXYCq4SJiXFiGa4a14xpgI3Al2EpM4Na3Qrb23ZDDyu66GpOLx7DSm+ZBbj8e378IX7sWMbFbrsHjiJfbdy20H1jEKrvlIh8Wq333VdBx8AZWuZ2XI+y04SXWgKvBclw7LEIWkViGKsGOZGLjwBZAFWGbV3rQ8+xaHNIOsep75QVoWe1B6xoP2r9xc3h88FgLZDbPY4nNbJnHngevdX7zw5Be57E6c/iF8PiJn6xhl+4C1PMtsV7dSh/VBpv4dCcmbFRim1cg6o8r+JgWoO/wT9mxljIPcl/7ID8KMHgig9Mb/BoEp0d6HrTOr3+AXQSgOvPqT/lRgBMvrNNQXWGTTSyWgmqDpcT6qBGwtsSmLLASqgBrRqVSUDmsDbWlGr/mXg+6n17OGRD19Z/hIGkuws2Fjkc+yY/6qNldV0Ea05rdNV9GffQTkNk0F8+pF8CZN37GjwIc/9Fytmsiu8nf0FYsrGtiJVQNVke1weZRRyWxCL56BjSunBIb1sedAy0VM6BpuQdNmMZGBG3bdDmcOfoLzoC95mA/DJ3q9KvvOD+KDbvTod5uLDyOj6yL5Y22sARfI15sP1P3C8huv4zB0u4KquzGqSFyXFi6h6d9cwnCzogNm0RXLKNy2BBVgbUl1gYro+Kx8qnQVHUJpGs/CKkVk7TUGrefUq3D0ezmt0LPc1XY5VZD9w/L4UzDbzjByLT+1K/h2LPlcOKfKrE7rsDB02WRo+L8AsU0dk22+6H3Q/uOudC+cbITrISqwSKkAqtuP9VROWxSXXGY2FUz8D0z4OT/PgVDZ05B7tufgYZ7MHlad6yjNq3C6cbed/Mft6GdO5dcWRqNijMIFaDaEzsdsnTR/Ym/gnP9J6HvpX/AtJbyxOqoNtjIxAqoIW6AenTFXKCKhJVwzbAMV4VlNRtSyyfDiV8/xn9E+PPr74Xcw5+BVAzYpvLJkN6ziH+l3joOfQEyu66B7L73apWj2q/UgffilOY9UuX2XgNdT3yef6LeOg5cD5mqqMGTv4ui57sE2su/EuD07x7BrngiS3BygyeEtHTFiHqhGdUEW3Ri50DDyhLIPfJFltKgnes/jbCfjUxs0+qp0LZ9PvS+9Bz0/uEncBpHuuI5MLP7Ona+bVk9EWsStKyRK1ygEMpfnJgQViuNmmvfxT8R/9/w82lE3PfKj6Hv5eeg/YF3QKZmioaah+X7nZ74FJw7e5p/Cn2Pp+DYk5/3d1QEoCOcWI7qw8ZKrABrS6ytK65HvMzXb5cGMiyxQVcsoYqwdL6dCY04SEot83DwNAuGTnbwTwBM5PuhmTCFeWx+5cmvqKs7BNt+8H38E3EQhZ+fweOtNOXB9PmrT7MsS4oCqLj7v/8E9By6ne3+F0fFhXDdE6vDCqjJJpbhmmCXEOzHYei0AIt/s3MPf9rvijVYftmOUFdO4KizddRVPqorbHARwIi6Ad+DqLQ4kUfV14ppTtt9CLtcKaEn8dgn8qBBRaAaYVVUDVZFXS6iFgfrOt1hsH/7FzBIUwze2OAJz7HGrnjtTGipuRiyX/soZB68Gdof/ktpR76KWkxiNVSc7nQ9+kno+MaHoPOhj+SXFKWLANN9ULqNQ0zomRPQ/fjtLL226Y5zYhEyMrEc10d1gA1RFVjnxCJe+uAtOEf0b16i5p9j9cFTY9kUaNtlHyiFqOIChQWWoZpgFVS1te+73r8IEKJit72aQJWEEuhjH/dBgwGUNN2RYUcisd4RBKUafmIvhPoVM6F+WSnUL9erYYVYU3HgNBXqFuP5as+NMNDdzH8kBKufYxvLSqDtATtqRkSNARviCqita3F0Wgh1v4xKm8a7D32a/f8GbehkDrq+dTOkaTWqZqJcOPqlETDt/Ge1IV9JT3dCVBvsUQuqBls2B1JVb4emrddB87ZrjdWyXazroOU+HLVWXwbth74in2PZdOezkFrqwzauKoW2ne+Cgc4U+wsw0NOKb8qvDBFqk4haBCyh5g78Kf9EbPj5gz0tWM0w2JViUx66bEcb2tqwy+06RF1uHpT+fOyZpZDbfgmmegF0UO3Xq5PVO/064FfHA/gzCKY7CcBKqDZYCVXBDWCP3Inf6Av3A92+4FpDvT04hTjLfzx+ox8SDagaV0z2u+KKC6C5+hL22Lr1HWxpL2iZWkQtV1AdYVVU+vzszisgjYOlzOaL2GU7tpmtYhJ0fftj2OXmQVkbGmQ3WJm+v6jq/fl9id4f6x1ZJqPaYI24AuyRO3BI/6/7+XeYTOt96cdstNu0FueqWI3lJZDC+Whz1UX4Q8+PfgPU/FqxUjFgddQOSG+ay67u0M1Y7CL7hhnsVg+atybZen9Z64+SEdRp8MRxVVgfVYFlqAZYDVWAPbJ4AnQ9vwP/BvexkWzswkQO4vRBHGwEreN7S6BhOa0RI+o6TOr6y6Gpah60br9aGmCFqDT1KYBaCFZH7WJXdQg2s/VSlli2NQYHVN1P3cXflW/0/09/EWgU7FQDfXDq37fFQjXCqqhYedSYibXCrsRzasXboGnzQmjcdA00bsbCx6ZNC/CYobYsgOatC6Cx8i2QfvBjMHAszX88fut6tgYalk2AxjWzIVVWCq07rsXzWysMHsvA4ImsfE4VUYMqgGuCbVljOKfif2fweBr/m62Q27PQ3xpDsJjW4y9U8zf6bfB4G7v5Obv1YqAbndv3XClVB9VepWqvhM59V0HHTjwPb54mjYqdEouQIq73hoiqwLol9kKoWzEL6pZO82tZvuqXTfVruVArpsFRHP02bZoP/W2v8B+N3xgojn5Tq2ayiwGplSXQWmBKk95rQMWyoZpgNVSl5XBK43fDeF6tmc665eMvVPFX/XY28zLkdl0BbeU4D6c9TzU4sFKKbqOUasMkyG0qRVBhyhOBaoMVUC8CKhtsiBsL1i9pVBwWzlnDeSy+bwmeG3FEfLa9jv9I/Nb5oxo2hw1AQ9T7C6M2lk3WUI3nWAssoWYLodYKqAx2GoM9psAOdNT5I2VMs+kiO1X+AkB+Hhu5QBETlsp7YymiUomoCqxbYjmoAdZHxfcgWvO263TQZ6rZalOqfBZboAhQG1fPgqbKiyG9/8PQVvsByHyDlhnzK0ohqul6rIpqgVVR6fM7cJSbe/BGaP/aTXhuvQhHybQjkaOKsM/nt9VQG+hE2NqFzrBJLVAIqKORWPyauydw0Hr+I/Bb5zNVLL2pVQgqrDyF12MRtmH5RKi/14NGHDSJa78Bqr9YYYaNSixd4ZFQ8fPb1uPrZf5mNrZTsWY2YuYvAoSwq5KDtSXWBTaPGuJyUAdYI64Gi+9dMoEtTpxtb+Dfut8ooUfv9jDJAqgAG6IuQ1RMeWFUCyzHlWBFXELdL6O2IiLtWhRR2WKFiBrAssRW8q/220BnPbQHXTEtLQ4TthCuCGtALQzr2hUHsHXLpkPzrj+Dszm9y60j0DJEs6wVN5RNg+YtV8Ppl38Kva/8C5x+7UXpemrbjusghSlvXDmZVYo94lSoTCkcTNHKEy0psqLBFT2uxuM4H87uvpZ/Ig5+8fP73ngR+uia6uF/hsz986G1kjaM+4sVEmoh2I6j0PHg+3DgVKJd3SkGNk5ivdfvvQheN8K6d8XWxK68AI7eMwVO/u5p/q36reOHmNC7ZFATbMPyEmi5/z38q/TW/vjfQNuud0N63welyuzD8+9+vbIH9MrsWQSdT/w1/0S9ZWsXsblsgOon1tAVG86xp196CtIVE4B+fUGit3gYcAnWR8WSUENYDmqAdU7sspmQqr4C+ur/m32jHU9XwhEErS+bHXl1h6HutKOORsvuNaBiSagi7E/Wsq/rb/wvyO14G05nSsOrOyOd2BDVmFiOa4MNcePA0jkV09q4cQFkH7sDjt5bgqBz+AAK4QrBls+Eppq3QedTq6Hz6bXQ/uRS6DvyS/ZDG6l25uh/QNcPlkLPs6uh55lV0LblcnbvjvGynSGxbRUedH//S5B74EpIr8OU0v06/AqPjzt82BC3ICqWCTWxxCJs3bIZOGCahKAXcFC/GKoB1t8aM5dNc2h0zOpOD5qqLoPTr/+cE+A5cOAMDB7P+CUsIcIQrQzl8HiWPdLzoNH7gq+hrw9a3xs/h9aNb2EbxmnXfzONgKum43wWB0omVCz9/lh/5SmN51LaQRH8cpE8qhusy3RHQ6XSYDmuDTbEjQMrDJ7k6Y7DhfY1eP5e7EHHD1ZyBjxvvfozPE7z2zmQ/eYn+FFavktDy9YrcZ57Ibu6Q8+DlnvodmhiI+NZ0Pfav/GjAN3/uIJtGG+hO+uEBQqxTLgyKi+6skOgQQmwPm582LhdsffaPToqKyMsB3WAjX09NixEjAFLI2YaOQftNI6KaeGCpjxt+z/Ej9JtF1kGmsLE0SNbN+Yte+AmdhWIinYoBq3nuUp/d6Iwj1VRbbC2X1Uw0rAhboBqg9VRqTioA6yEquC6JFbcpchQn16H3ekgq97fPw8NS3EkvXwipA/Q7ywcgHN4fKCrEZqrL2WX7ZprLmXP6Ti9nj14M9vMRrsUaetp8FndP1oroYawsRM7NrBBYhF1HkNlsCZcI2yC0x0LbGRiV81mg6eWHYtwZLwI57Hz2QJFsKTYev/1WDdA630LgS7bsct3dIF9x0Kc/twAbfh6S/U8tkuRqnUbDmh2X8+qddOfQAseUxcoXGBjJVbBTSqxHFWAVVGxJNQQloMaYBmqAVZDjYAtnFh6fSYms9SvsunQKKw+0UWAVBlVKR5D6DWIio+N5fgcj1NyaZeiv9o0h20Yb1o1hRXdu8NuylJXnQrBqqhYrolNarrjvbYkQC0Mm1RiXWFtibVtGJfutltLj7PZjVlUjXSDFrvgHiwnWpYUETJqrTgu7Fgk1kdVYI3dMJaEGsJyUAOsa2JDVAXWlliGa4ANUFO0vLj5Sug7+is4k/of9tiy5UpoXDVNgTX/nicJNQYs64YNuCOdWHW6k0eNmVgNluPaYEPcmLCuibXBUmJTK0uhZftCPqb1G51jG7FLjropy4obARviDhPWx40PKybWexUxqWRYH9UGa5vuSKmNATtS050AtoFQt13D9k1Ro8eW7dew86yOOvKwsf7x/QRgddQQlsp18DSOFiiwaMN4QVQjbDJdsQ12NBLrvXo3olKpuMNIrCusEVeFDXFpeRHBDLDq4KlhxVRoVlHxORsR0yAqgNVwFVQOWwjXLbExYBVcF1g7aghL5ZpYDmqAZagGWA3VBOuYWIa6NSaqBju+EusyeMqjCriusGM93amn67HlczRYKyqea8MpDy9/HjsjFux4T6wRtRBs7OkOw+WgBthkEktXfaYiIv55xTR8lGEjUUNY2v2Pc9h1OB0qx/MtrUCFsAoqh7Wh2mCNqFgjkVjvsIoaAzZ2YhnsSCUW33vPZLZpvK/+t5D77j3+LgoBlvYXq6h0jqVRcYiKCaWLAB1PLoEzDb+F1m3vhNSKiWxJsSCsCTcC1oqb8ODJO3zXxeAGy1HjJjbhc2yAShvGm7bdAP3Z132wwbOQffRLEqwRFZ/TqDgAbVjiQfvjX2JfT+1s9g1o23kdT26Ait2wBVZCjQHLUA2wGmoEbKHE+qjOsFSug6dkE1t3Twm01t4CQxyM2rmBfgmWoW4xoGK3nFqNr4eg4r9C1QeZgx8B8y/winmOjYANcTXYZBKbR2U1Lx6ugGpNrQrLcDmoA6wRl6UVX797IrTuuxUGT+V/zQC7pPbYl6GO9j8tLzWj0o3Qd3uQe/zL7P1Bo50Q6QdvgQZ2px0iBiXBKqgCrgQr4LrAJjF4UlCx4qCGsFSuieWgBljXrpjq6J0ewt4Gg73iP7Ppd8VHvuIh6gIZFZ8f/SqCPpbvcqnRr7jLEChtFmeDJw6qoVK5oY50YtWu2Dt8p4Jqg6WKgo2dWPeu2J5Y/4ZnBivsTaKuOPPQ5yC17hLE9G+TJFR6nn34c1KXS79QJP3greymrPyIOF8usOMhsd4rhBoXFiHHa2JDWCGxQ/2nofOHVSE2PdLzIeFeWLqLPX3wVnZ/T35EzEtEdYC1oRaEVVGxNFQTrITqwzLUQrAabpGwo7FAEcKeFHYTUqNtKuIjb+wciqDspixahVKvx5pgNVwDrAk3DqwJt4jBU4iaZGLHcrqTP8cq/9i80uj1tgOY0AA0KOF67LBgVdQYsAzVAKuhRsBKqIVgk0qsBstxbbAhbkxYqhBWGBWLjY4zULqHB+ezEiqHTSSxCJlUYl0GT94ri2XUYmAlXAHVBmvuijmoA6zteiwbPC02w/qgt/l32fGVp1iwHFXClVCpFNThwCqorGLC+qgOsBKqAJtMYjmoA6yEquDShm/xHEuPrftvY3NYETQ2rIBrTiuVgsphJdS4sAZcDdUA672MoFTDgqVScdXEmnA11OJgjbg8sbRA0fLATdD1/E5o2X0THF0yMdZlOxnXDGvHNcMWwnWBjUqsjDocWBU1hKVySGzCgyf2C0buLWXdcd3SUnYhgK7w2GBtuxQlVAF27BJrh/VevuMShlpMYm24rrCjMd2h1LIKL9tRmWEZrgH2fEmsjyrAjnRix2q6Y4NNPLExYW2oNlgjKpYpsXnUUYR164rHLrGxNoybYCVUKjOshhsBy3BjwMqoowJbYOBkheWgBljXxIaoCqwtsQzXACuhxoAdzq8DklCDKgDr/QEhqUYXlsohsRzXBhvixoR17YptsJGJ1XANsCbcCNgQ1wLr/eGriEplgQ1x48DepaDacAVUa2qNsBzUAdaIq8KGuPG3n0bB2lNrQDXBCrgusLRhXEId94kd48ETw3WANaP65YLqCuuFqAKuCdYpsQhpw3WFTWq6EyuxAqxTYhmuGdYpsQhZVGKdUQXYkU7s+TLdYbgaajHTnWQSqw6ePA2VwybVFWu4EbAjnVgNNQI2qQUKG6oNVsONgA1xCfX3X1FABVgJdRiwEmpB2AIDJywJNcTloAZY18SGqAps4onVYBVUDiuhxoCVUAvBJpXY+LBUDoMnBnseTnfiwJpwI2CpEPVShsoqDuziPGyIGxPW1hWHuAqqDTaxqzsWVBvssLpijloY14AaB9aMmofVUE2wDHecJbZIWAlVwR2bxA5/8OT9/ssBah7XFXbYiaWKgjXhGmHHbrrjClsI1wRbCFeE9VEl2MKJlVAF2PMlsQzVAKuhRsC6JlZCFWDtiVVQOawNVYT1XgpQHWCTSmxSsOYlxfNnuhPixoTVcBVYhloMrIQqwI50Yv/Yru64J3Y2/B/BUvAR8gW3bgAAAABJRU5ErkJggg==;" vertex="1" parent="7oCYW-wZGabHslEQ7wRl-45">
          <mxGeometry width="80" height="80" as="geometry" />
        </mxCell>
        <mxCell id="7oCYW-wZGabHslEQ7wRl-52" style="edgeStyle=orthogonalEdgeStyle;rounded=0;orthogonalLoop=1;jettySize=auto;html=1;exitX=1;exitY=0.5;exitDx=0;exitDy=0;fontSize=16;fontColor=#FF9933;" edge="1" parent="ooqM9sPuauhWhxl2Y_vB-22" source="ooqM9sPuauhWhxl2Y_vB-60" target="7oCYW-wZGabHslEQ7wRl-1">
          <mxGeometry relative="1" as="geometry" />
        </mxCell>
        <mxCell id="7oCYW-wZGabHslEQ7wRl-62" style="edgeStyle=orthogonalEdgeStyle;rounded=0;orthogonalLoop=1;jettySize=auto;html=1;exitX=0.25;exitY=0;exitDx=0;exitDy=0;fontSize=16;fontColor=#FF9933;entryX=0.882;entryY=1.002;entryDx=0;entryDy=0;entryPerimeter=0;" edge="1" parent="ooqM9sPuauhWhxl2Y_vB-22" source="ooqM9sPuauhWhxl2Y_vB-65" target="7oCYW-wZGabHslEQ7wRl-17">
          <mxGeometry relative="1" as="geometry">
            <mxPoint x="770" y="550" as="targetPoint" />
          </mxGeometry>
        </mxCell>
        <mxCell id="7oCYW-wZGabHslEQ7wRl-60" style="edgeStyle=orthogonalEdgeStyle;rounded=0;orthogonalLoop=1;jettySize=auto;html=1;exitX=1;exitY=0.5;exitDx=0;exitDy=0;entryX=0;entryY=0.5;entryDx=0;entryDy=0;fontSize=16;fontColor=#FF9933;" edge="1" parent="ooqM9sPuauhWhxl2Y_vB-14" source="ooqM9sPuauhWhxl2Y_vB-61" target="ooqM9sPuauhWhxl2Y_vB-60">
          <mxGeometry relative="1" as="geometry" />
        </mxCell>
        <mxCell id="7oCYW-wZGabHslEQ7wRl-75" style="edgeStyle=orthogonalEdgeStyle;rounded=0;orthogonalLoop=1;jettySize=auto;html=1;fontSize=16;fontColor=#FF9933;endArrow=classic;endFill=1;fillColor=#fff2cc;strokeColor=#000000;" edge="1" parent="ooqM9sPuauhWhxl2Y_vB-14" target="ooqM9sPuauhWhxl2Y_vB-71">
          <mxGeometry relative="1" as="geometry">
            <mxPoint x="815" y="400" as="sourcePoint" />
            <Array as="points">
              <mxPoint x="815" y="400" />
            </Array>
          </mxGeometry>
        </mxCell>
        <mxCell id="ooqM9sPuauhWhxl2Y_vB-69" value="AmazonSNS" style="swimlane;labelBackgroundColor=none;sketch=0;fontSize=20;align=center;verticalAlign=middle;startSize=40;swimlaneLine=0;flipV=1;fillColor=none;strokeColor=none;" parent="ooqM9sPuauhWhxl2Y_vB-14" vertex="1">
          <mxGeometry x="280" y="360" width="80" height="120" as="geometry" />
        </mxCell>
        <mxCell id="ooqM9sPuauhWhxl2Y_vB-70" value="" style="shape=image;verticalLabelPosition=bottom;labelBackgroundColor=#ffffff;verticalAlign=top;aspect=fixed;imageAspect=0;image=data:image/png,iVBORw0KGgoAAAANSUhEUgAAAFAAAABQCAYAAACOEfKtAAAY2klEQVR4Ae2cd1TUZ9bHf3+9Z1NNjB27SBMBpSn2XqLGFkWlCkrv0hTFipu2azabN3l3sy272d7STDF2RED6DJ0ZGGAKXWlD/77nPr+ZYYAZGEZI4m7mnMtwBpj5/T7ce5/bnocrXBSMImuSEBQvJglFiU0oSklsw5iU2YZBZBfOy5IIiEmWRqB8aSTK7SNRYR/FROIQhUqHE6h0JIlGlRMv1c4xIJGSLIuFbFks5MvjeHGJg8IlHooV8ahZcZJJ7cqTqF15CnWrSBJQv5qXhjWnQdJIsvYMmkjWJeIhyfpEPFp/Fo82nEXzhnNMWjaeQ8vG82jZdB6tm86jbfMFJu1bLoJESbL1EpOObUkg6dxOchldL5P8GN0kO36Mnh2voXenSna9jr5drwOvvAGOAA6FGMIgMpBaEMsMhCjRQDzRD9FpKETZYIgu+iCe6oe4eiBEBnLdGR0QeZB6IW7WBfHSQIgqkASxRwWxZxBErmBREAOoD+JgTdQLcelATfzOIa4ngLohtqo1cZQQ1ZqohkhayBVYBWEkiLxJ95vzkwVRtzlrIOo0Z/2aqIaoNmcu3yoQhkA0WBMH+cRvUxN5nzj+5qwNkcu3DIShEH/wifziou0TOSEBtCQtHGNN/C/wibSwcEKLAKghjkoTbX7wiaSJnIAAakEcc038D/aJPEBzfx6gERD/633iy5fB5Zn7Q/AYEA1enf8DfWLXdhVAfRB/8IkXWMo3NO3rjxO5XDM/EEB9EL8bnxiNaocTqLaPQrX9CUjtoyBzjIbcOYblzyx3NiLtG+s4sXNbEhjAsYJotE9cGgmJdSgqzAIhMQ9C5eIwvviwJgGyjYmQk6xNgMwpBtLF4ZBahUJmG8GA6i5AfFu5cxK4nIXHQQDHCqLhPjECYqsQiBf4o2JJBGT7XkN94p/Q8ue7UKaXoEtcg57GFvS1dTDpqW9GV7EUyht5aH7vSzQEvA/FmtOQWYdBbheJGpd4DKzijBKiEblzx9ZLPEBDIY6JT7QLR5lZAEQLA1C9OwlN736BzqJq6Hz09qGvo4uJrp/3yJvQ9rcUNPj8HIqlJ6CwiUDtCgKpLoUZA3F0uTOXY3ocBNBQiMb6RNGScJSaBaDU1B9S9yto/Tp7AJOeukdou5aDpiufojb0A8hd34Ls5YuQbkqEbNNZyF9JQq3Xz9B4+o9o/WsyukTyAX/fmVaCpvBfM5A1SyINgjgWPpHLNj2G8YKo8YlUrJ3tg4pt59ByNUNz46RdLZ+mQx7wPiQusRCbBUJs6o8K8yBIrEMgsQlHpV0EkyrbCFQtDkOVZTCqLIIhdYpBnefbaP3oNnqbWjXv2ZFShAbPt6GwDkPNsjjUrea1UVOUHeN6Ipe94BjGDaJtGIrN/FG80B+1SX9Db3sHu1F6bvzl15BsSkTZfD9mzmKbMFSoshaqbI9YxXGKhtQmHNUWwVBsTETzz69qgexD64c3Ubf1PGqXx6kq28aY8wj1xC0XwWURQCMhDusTbUJQONcXpc4n0PJNjkZDmj9JR8XmRJTM9kWZZdDA9oCRwbaUQh0CueUcWv+SrPmsh3F/gMJO25wTUE9tApd41LucRMPqBE17QGdlmy0sw/tELmuBLx4Hok6fuDgE+bOOQrztLDrFCnZDtKLKwj9A8VxflJgFQG9R9jFyZ9nSKEgtQ9AY8Ru0/v4WFMvj+lfnVadQ6xCNWvto1G85j4Yt51HvGIN6p1jWX+nvsYyunshlzvcFyZhBtA6G0MQb4j1J6K5vZvCUeRUQbzyNwplHNc0qalSNB0RqVsnsIiCzieABUqNq5UnU2EWhwfUtdNwQMFPvfdiKzltCNLm9jXr7aA1EnZrIWgO6zPkCuIz5PgzgmEBcFAzhTG+Itp9Dd2MLg9dyW4him1AUzjuGEiqBDer26YVojDkvj2XBtszhBEjkjjFQOMVAbhOB+v1vaPlIjZWjr7kdTW5XeE1Udft0QtQRJ1Knj8uY54MxgWgVCOFcHxQti0ZXdT0P76YAheb+KFzgh2Ibvm1KKzNbnce6nrgsBlLHaNYyVWw+ByZbzqFm8zmmgR138tk1ddwpQP0rl5moX+u8V4h6hxijfCL3gABqQTTaJy70g3D+MbSmFbMLbc8WodAyCAULjqNocYhW35lvmRqsiYb6RMcTkC6LgfJeIXoftaGvvbNflJ3smihsqtuVxEIcxeJw1O+6DPT0oq9ViYZtF/iFZUjfeXifyD2YexSDIRpjzjlT3FH77ufsQrtrmlDsEgPhHB8UWn87feeqJZEs4O7r6tbA6lN2gUlHl+a1up1JkC8Kg8I6HPU7k4CeHh7gVgIYj4ZRxok8wMeEmGPiibI9Sejr7WUXWnH0beRN80DBouARW6YGa+JIPpEAbkzktU7ZhZp9r0G+7jQUm89CvvIklGoTvp2Puh2XmHTcErLrJRNmq/MqPlY0CKIqxOHS5xwF00IjIeYu9EPu7KNoyyxjF9Pw0S3kTnFnjaph40Q2RqI1AfGYPrFySSSkG85oAMrWnUb14jBWCpMuCkXt3tfR+7CNXaP2l96WdjQc/ikLcQaMkRioiVz6HG+Q6IM4kk/MmuKGiuD32TV11z1CwdJwCOb5ahpVOuPEAbM4Y+QT7SIGAtx0FtUUF9IszvJYVgarPfAmlBTGPGxjQhpYf/inqKFgm83hDJ/26cqduTQVwOEg6vWJC44hZ64P2oUSBlB68S/InnQEQksDG1U02LQoCEWWQShmEogSyyCUWAWjdFEwymxCIbINh2iEgSZK+yR24aher6WBmxJRtTSyf6CJINpFsjoipX41G89CviQKiqVRbJU2thTGpc32grEQM6e6oczjJwxeV+1DCGxCkDffFwKLYRpV5gEQzj4KoYkXCub6Mngl9hEoXRaNshWxEJG4xKLMMQqli0NQstAfJXOPsSqOyCYMYpoIU4n2VJjElgCe1piwdGMiaGEZPBVGk2Eyh2hW4aZMRf9UmGG5M5dKAJnwpjwan5gx+QgaP05lAGv+9yoyXzqsvz1gFQTB7KNsYZH4voP6X3yFlpsCKAuq0CVvRM+jNvS2dTCh77sVTegorELrbSGafnUNsoD3ILaPRNnCAPY8GGKFbTiq1g0GGIHqcZ0KSwSXOssTBJGBNMCc1T4xa7Y38paEshtHXx+Ktp1Ftomn3sq2YI4PxAdfh1JP8bSvqwe9yk4m9L2uR2eJFNUeV1BmETRkPrHcJgxV6xI0Gli94QxfBnOKHjeI5BO5+wRQBdFgc17giweTj0Dk+zN2n+35EmTPOYqcBcd0tgcEpseRbx3MNI3+QFlcDcWP/44KrysQ7TiP0rUnUbI8GiVOJ1BK4hID0foEVOy6iGqfd1D3+j/RUSxln9Vd8xBixxMQLQ4dAJEAVg4CKLGLGPf5RO7+TE8YAzH9RVcofvEluynFu58j48VDeivbeabHISSAqhRPWVgFxeW/ocLjpyjbfg4lq+NR7HwCxQ6RKHGIQunyaIjWnkL5jguo8v4Zal/7BzNn+rBuWSNEjlE8QK1JWfHiUFSu7dfAqvVn2MJC07KaSVltc6ZpWZYzR0NOE7PqSdlRdvu4lJke0Alx9jA+cZ4P0l50RXNKIQMoDn4PaU/vQ5aJJ3LM/HS2ByhTkb/xT/b7ur70dXazgmsvpWCdfDah6/dqzv4JJfOODRk3JoCStac0Jly1/jTIL/LjxloQnWNQZRPOqtsUK8rXn4bUNgIyu0jIadRYJYZ2+7gUEw/ogqjPJ2bM90XqxEPI35ygqbh01T1C4ydpyF9/EpnT3HVCzJ3rg8IVMWyRIDBNn6Tj0VdZIG3sUjShp7kdBI9Jc7tmEWm+mon2bDFj2Vlew1dzrEOGlMLIpCVr+gFWMoBhAyvbzjGotAqBfO9raP8mly9rNbVCeTMPtQffYrGifMUoIK45De4eAdQDUZdPTJtyBHlr4jS1PnXuSXfY3dCM/LXxoNWZfGL2HB8WJ1KsmDvPF9lT3ND4zxQGQ/HWv5H1zKvINw9A4ZIwFDlFoZj8oEsMb872ESg0C0DBHF8oc8v5v0n4CEWzffg4UR0rUrxIQM0DUOESq9LATkhWxkNsGYQK2zBQiENxIvWcZa8koUerh8LeGEBvcztqD77JaomjMWfunok7RgMx9aVDaPwyk31u09dZyHWORK5TJJq+ymKvPbyWjWwzPwiWhkFgH85E6BABoX0Ecky8UHbgNfZ7DLZdGATzjkG40A/5JKb8c4GZPwotAiGc7glZ3O/Y75P2lViHoGRRMEQr4iBaGQfxqniUk6yOR7lLDCpfvtBvwjsvQrIyji0stDqTVDpHo/2WgL1f+20hZNsvQL7tAtpVObHybgGkNhGj8olc8gwCaADE2d5Im+GBDKsAdFO5qKcXOU6RSJ1wAGkvHGQQKQyhBzWN1DGd+pnMVGgfjuzpnmjL4U2yOv5D5Ex116R92rlzgXkgCi0D0SHm25fyhD8gf6oHylbEoUvepDL3jn6zpwZ8eyfQxy5B83p/WUv1c4D1maXbzkOyMBCVZkGQbTuPvm6+rCXfcIYfI6EdBCMuLAngkme4gUFkIPWbM4sVZ7hrAexBjmME7k84wCDmOkawGI4BpHiO/JnWc1dNE4SOkcic4IrK2N+yu2zPK0feXB8IzPw1ENW5s2C6J6Rq7auoQRFtxzD1Q5lLLLoVDzUxozp2pGcqXakfrCHPXqPXVaIqa/V2dEG69TwqFgZCYhYI2dZz6OvuQW9rB2QbzvCrs4FbMLi70wmgCuIImpg6ywspE101JkymnO0QjhyHcM1rD7/JQZbZceQuDUOefTgTgX0EM2UaHyF/SCmful8icn0duSZeA4Y88839kW8RiE5V81x26vfIN/Hii7I2oXzKtzIOolUk8RCtjodoeQwkL59XwepC5c6LqFgRB8naBEjIfNclQOIUDTJderTfFEC65RyT9ht57DUyYeo904YglvIZAJEBHA3ElEmHkLM6Fl0NfMOoVyvkoD6IYG0c0iceQsYsL2TO8gZlLEwo0FbN4WROOozaX37FLrrpX/eZGWtPylItsVqlpeT7Cq2CUGgeqNlRVWQRgCLzQBRbBKKEhAoRpn4QLYtmmk8aV075NI2QWIeAQhwmNE6y65LeRUTx6hsagOodVSNtBuLuTDsCAmgwxDneuDfhAPI2nuoPY+qb0fBpGgTr4pE26TAyF/CdPn1VHIoXi7acYQVYMj0KbyjMoVFjAbUGzAPQodI+6ckPQeY80o4qgiheFdcPcM1JlC0KGdh3to+C2DwQ1Xsuo+16LqgzR6Ut0kD5gTdYiKNrW9pwEBlAnRCH84mzPJH83H48ulfAtKg04F3c+5/doBCHGlQj9lhMjyNrmjse3eRNhwJsCnFIC3O0tK+jvIYvzJr5j1jZLrEMZCszC8RJA1cTwOChpTCHSIitgiG2DEblmpOoWnMKkkUhbLyuyimGZS2jKUBwt6ceAQHUCVGvT/RC8rP7IPu/LxhA6dsf496z+/UWZXVpYuaUIxD78Ll0h1iBPIsA5M7zYePGyhI+7yUzZq0B2k01wo4qMmfRyliNBopXx6PUKnhIxqLZIEklMdtwlq1I7KOGZizaaZ9qg+QQTVwRD+721MMwBmLy86+i2OdtBrA1R4zUaW5In+1lMEQKtPOWhPE33NWNfOcoFicWOEexVI5WykLHSAgWHDdoH0uRRSALcdQayAMMGpKxaHaZjtRjMbCKw91iAEcPMWXqYWTYBKOnRYm+3j7kro3D/cmHkU69FbUMaplqa2LW7KMs2KbQgfwghThUDst3jORjyPZOFDgRwGOaEEc7ThzsE2lhoYKsGiCtzuQXh52AGAOI3K0ph2AQRB0+8e7z+9HwWTrTwqo3/oHkZ/ax/spw7YEB9cSlYTwsAugQwQDSMwu+lZ0gbcybf2xAiKOOEwdvkCw0VwPsYKEMhTgEkPY8DwvR0L7zoP3OanPmbhJAQyEO8ol3n9uPQi++pN9RWYu0uUeROsNjRIikiRTi5GkBFDhEIGu6B/IsA9DbqmRaWeBEAH0N2sdCExClLjEsC6IwhlI9CnG0N42zMRICah0KkXUoW6E1PlFr0/iIo3VaPpG7OfkQjIV4b7obK0S0l8mYFoqiPmBaaEiPheLEXPKBVMZv70SOuT/Sn30VYt93QBVpShXzl51gRQhD9rFQ/qwGSC6hbGUcixM1fWe7MDYVRlOyYpdYlK+IQ5l5IEQWQSi3jxqy895QiNyNya4wGuJMD9x5ei/Koj5gAJWSGqTO9cb9aW5ajSrdPjFjJgEMZdpGfrT0yJuo/+td9j70peV+IV/dNj2udwuGtk8kgCXL+zWwbGUsC7bVU7LFC45DsuMCWr7OZsPrPU0taL2Wg6o9l1mfhUE0widyNya5wiiIKp94b5obSBPbiqrYzVf95F+4+9QevlE1TI/lwUxP5JAJa2Uy9Aa9yi7Ir3yMXHM/5Mzz0dtjUW+QVPtEquZQW4AVMpSdrD1AE2G0OtOgZ/m2swyc5j+k+obmaKp2J/GaqOMMiJE0kbs+6SCMhkg+kbTw2X3IP8SXqaianLc5AckTXmVaqM+cH8z2ZmN1D28JWGOqs6oOtb+5xtcTJx5CNtUQVdsvDNmCQQCpnkgAmQ/cmogSao1SfdE2DC2qfLf1Rh7E6xNQviEB9D092m4LWdpHh2mM1idy1186iMeGOMMdt5/ei5o/3mIX1F5UhdQ53kiZfHhkiAt8kbMkDNkW/nhAaeAMD6NmtoWmx1G8PEbTDiA/qC6lkY+lB8WWBK9olg8rzJavT+CrMC1KlK+Mh2hxSH+jyhBzdo4B9w0BHAOIdycdwv05XmhXZRENnz/AvRcPIkXlD9P09FhIE8mcM1QaaeykrNDMH/lWQWi5m8/3mNXlNNYq5ctc5B5E606hUAVQvO6UqoylZIuKemUeTbDNffPSAYwNRA/ceW4/slbFsP4G/ccVv7sOyljUi4o+cx4xdzZwHwtBpPiQTLnYhW8PUIugyDZUY8It13MhWnsS4rWnNMPv1LynCQhDx0i0G1XctYkEcIwgzvTAraf2QHjgMvvPMogfXse9ia5ImXxoWHPWhqidsYx2CwbTROpDq9sDC/3ZwLtoa6LOMhY1sySvXGIA9Y4b6w22o8Fdm/gqxhSiiTtu/Wg3Ctzf0kBs+CIDaQt8WQVHV6NqrIY8tXfe03CnYNZRdhZEoXUI8mky4uVzaKYwpqmVScs3uajYnYTi+cdRajdCxqLHJ3Jfv0gAxweiYN8lTc2QfKNw5zncfXov7k89MmKcyLKV0eweUB1dkDfPl80n0pBn3XtfsK4fhTo0KZs//xgK5h9DiXM0G2ai2e0iUz9NtjJi2qcDIgM4XhBvP7UHmcuj0JIjYqsgfZG++xnSzf2QTCCpgkOxorr4oGPIU507j7QZiAqy2ZPdUOAQgboPvtZ8XlXoLyCY5d1fT2TV7QBQ7lxsHaz3rDBDzZn76oX9IIDjAnGmO+48v5817qXv8fPTdGed8kZUnP0IDyz9WR3x/kRXpM30NKiKo+0Ts+f5sMJs1uQjrBxGhVl1r4U+p+5X11DkHAWhmd+I9UTN7oFRnhXGAI43xOTJh0HamLfjLB6qqth0gzTRIP/gK+Tvvoj0eT5IeeEAUp4/gFQCOtUN6TM8+BBnphcyTDyRMd2DNe0fTDyEzCluyLUOQpn7W2j48x3Nyk/vS6FM2d4k5E51BxtsYmfijM+5ONyXE/aDAI4rRFUVh8Kc5EmuKPT8CR7e5fdt0A3To0NSg7q/J0OS+BGKj7wJwaYE5DpHIdsuFDlLQpG3/AQKtp5BmfcVVCf9FY2fPdBMe6neAo9u5ELseQU5s7yRa+I5pIqjnTsPrifyR/+NcmbbPhLclxP24VuBqM6dp7ux1C/5pUPI254I2ftXoRy091cNhJrdLLel9KyH3wGg/pn6mbIexTufomj7WWTP8GQmnbeQPwfCkCrO455ax33BAH5LENX1xJkeSJnhjuQXDuDuM/uQOscLeVtPQxz3W9T84SaaU4ugFMvZCk7pWE9bB5u7UZbJ2URY7e+uoyL61yjYfBpZ832R8dJhfjLMdGyPL1BXcoZbnbkvnt+L7wSi1kATwaRgmzp99yhzmXKE+cRMqwBk2YYgyzYYWdaBoMmw9GnuSJvoivSJrswnZs3zMSp3VldxBle2+0/yNGz3AHeVAH4PIGoPebKJWRNPpM5wZ/M4NJOTbuIJypsz5h4dm719oz21Ts8+Fu7qc3vxnUDU0WMZANHA3QOGxonjdS4O9/lze/CdQVT7RC1z1ob4baV9hpqzLp/Iff7sHvwA0fjzE7nPnt2NJwKinnriWFVxRn2Sp8oncp89sxvfC4hPqE/kPiWA3xeIT5hPpJYp9+kzr+AHiMPs7RvhnG3uk6cJ4BMI8XvhE0PBffL0LjCIDOT3yJyfEJ/IffwUAVRBfBI1cZjm/ZicRjLCEdEM4A8QjT8/kfv3j3aCAD7xEL8jn/j/Zk5XrhKzGHoAAAAASUVORK5CYII=;strokeColor=none;" parent="ooqM9sPuauhWhxl2Y_vB-69" vertex="1">
          <mxGeometry width="80" height="80" as="geometry" />
        </mxCell>
        <mxCell id="ooqM9sPuauhWhxl2Y_vB-67" value="CloudWatch" style="swimlane;labelBackgroundColor=none;sketch=0;fontSize=20;align=center;verticalAlign=middle;startSize=40;swimlaneLine=0;flipV=1;fillColor=none;strokeColor=none;" parent="ooqM9sPuauhWhxl2Y_vB-14" vertex="1">
          <mxGeometry x="440" y="360" width="80" height="120" as="geometry" />
        </mxCell>
        <mxCell id="ooqM9sPuauhWhxl2Y_vB-71" value="" style="shape=image;verticalLabelPosition=bottom;labelBackgroundColor=#ffffff;verticalAlign=top;aspect=fixed;imageAspect=0;image=data:image/png,iVBORw0KGgoAAAANSUhEUgAAADAAAAAwCAYAAABXAvmHAAAH3klEQVRoBdVZeWyT5xnvf983LYUSxtptVFq1ddI27Y9qKWh/MGlonar1UKeNapVg8ZE7He1aWiUhJVpBJCmFMrGEqazQpozS0HK1bOXYSkUhHGloCyR2fMdnfMRxHB9xYv+m5/H8yZ8dh2C82H2lV997Pu/z8/s+p+/AV7zcMRf/iekoZibHilbjIT8Qn5mLRcwKIPjFSTh3PQXDs/djUFVevKouh/GFH8P5ejVCukuzApEDSMRh/3s9nGoRk/UitOsEDCqXFLUaKwWE6kXQd/TI1iwQMgDWPfUI1okYVi2G93gnorYhzAR9Ra0R8+dw7X+BAYzViHB/+JoMhAQgeO0M//LGmqUIaS/IFpVCZ/z8QYwoReiUZYg6dRJLEoCRHWv42Ywe7ZQmS60x0q1EuEHEaO8miTUGkIhFoXn6u9D9QcSUyyBNlloj+OVpeKtFmDb/UmKNAZCqJG1zXXEXq0xptsQaJA8WpQB984MSZzIApHFIaEu1REwDSQAtKyQWCwaAjE7EcBmha6cxOfgJYh6LdEihGv8XAKHhPji61kFX/y3YVAJ8NSJGq0QMrvsarFsfQuDioULxj4IDcL/3MutnMjRDawXomipg7nwUxpdXY7BqGcZrRXiqRdh2rsH0hPe2gRQUgH1/EzNoIAt5oAlRh1bG4HTAjbFT3dA3fCdpSTeuuG35KhiAwKXD/EyMqjIE+o/LGM/sTLlNMG+sQLhehPmVxzOnb6lfEACJqTA06+8HmXXvye55MTDltULfuBx2lQDngWZYuyphbn4A9o6HMX7u7XnRoEUFATDe1wt/rQh9miqbDwe+j/fBphJhVQq836wQ+Ecgobfte3Y+JAoDwNatYJfD+1HXvA5NLUpMT0Hz9H1wV4twHWxF2DSAsY/3Qq++i5/jxMCJ1NKc34LcgGHTKjjUIkK6izkPyjURNlxB4PJh2bTnw+0Iknxs+41sfLbObQMIXvs39A3LQddPzBSikGeprxQwrFwEb+9LiLr0OcnmDSARn4HjjQbYVSIbKo26HFHHcM6DbmUiHg1B17ICTrXAnqahegk8H/11VhJ5A+BAp/5/gc7hzbfMfNj4GTy9rbB0PgLL5l/Asesp+E93I+Z3MaPx6CRC187A1l3JQk4ep+dfu7JA5AVgcugc//Km2m8gPNyXRXSuAXLTHXsb2VqTH0+MUbgaqBUxWSfC2PBtjJ3dJyPh/+RNDly0ijJMjcpd+7wA2F6v4at19rbJDrpZh7SOqeMRtsIUorp62xC8cZa1D2mckVefwGiVwBpo9IMdMnKWXWt5n/vwFtl4XgAMrT+Dg96nfvasgOyEtI7zYCurW9OGHyIych0Tl96Hs2stbDufhO9kNxIz0xj7zx5YlGJSKaTdbuDKUbYVllflmikvAMMbfsJaYso+lMbe3M2YzwaNcjEs6jKEDP1sqMix89eIiDSI0K7/PuKRIBMhy0wZEFPHoxLRSc2ncFdR5LVaGqNGXgAMbav4mun651voXU/UibB0KRD84hRrLl3jvfB/egCh/iMyx296wgNt1VIMVZaBgFMJXHyPHUXL9t/KjswLgLPneZYB294/yojN1XHuf5H3jJ19E64Dzfyevad259xiaPs5XFWilA0x7/hdUgaOdsj25AUgbP4c5DKb1WUIfnlGRjBXx/HWn5gB+sVd725KZjsOtQGJxKxbTFse4lsOac6xViJ7o1Utzorq8gJAJzreaeEnQdbSc2InwsZ+hE1XETFfRcR0NdmmvmkAlE/1nexi99nes4HnAnVJ548EN7PQek3DvRhULQFlHTTrBHjJ0z2zJ3NpfjKQouLYtz7pdNWJGFEKrDnIpUhVi0KAu0oAhZgxr5VvTV93N2Ym/Rg90s5xcopW+pe8VBLY4ed+xMPOfzTxj5S+JtXO+wZSBCb6j8H5lzUwta6EvqmCQ0j6UjU0V8C68acIG/p5ufm1J1kOLO0Pp7ZnfUP6y9DX3cPGzawU4Oh5LmtN+sBtA0gndrN2zGeH/pnvca7V1FIBiiNiYw7EwwHWQt5jHdBVlcOkEGB65Qloqpex7ne8lRvEggIggBG7FpaXVoJkwFct4kblnRis/ia/c1KzLrUIveLrbCvo5ozqO9lW5AKx4AAIRDwWhf/0boxsWQ0tMa9cBP36+2DbrYJl5+9Zroz19yBiG8Kk9iIozqaIz97zfNYlFwVAOheU/IoHRkFxdarYditZwxlrlzGIoOYCjDXl7Pj5Mxy9ogNIMZ35tf1NxSAMtcvYA/Wd7WHZMXc+JltasgCISwJBsjKkXgrdiw+wy+3M0Eo3BTCkKi9qdtr+RiPbGHbk2lZhejwZ8KSugQwnZ6fTMiLJ5G7Ij0F1Oa5XLi4qAGKUXJeI9jwojM0sBICMaHpKhwEkZmLQPvMDjpyi1huZ+0qmH7hyjNWsuf3XEk8MgHqk1ij9N5v6klYXuWHqfIwdQ8/xbRInEgAKvI1kFZUixs+/Iy0olYbnaDv7TNqau2WyIQEgRl1H2jn4IEFh/TxwAhHjZxzHkgZYyEqZO8o9jfcd4viZBNuqFOHvk//fIANAINwfbIdBvYgdMcoiEBjyNPlL7YWqCoEFlpLIFHIaG5fDf+HdrAeRBYBWRJ3D8L3/Z1i2/gqGlhX8pxpJ/oLW5gdhbF0J67bH4f/nDkyNObOYp4FZAcy6skQHv/IA/gudifl0ZAIFPgAAAABJRU5ErkJggg==;strokeColor=none;" parent="ooqM9sPuauhWhxl2Y_vB-67" vertex="1">
          <mxGeometry width="80" height="80" as="geometry" />
        </mxCell>
        <mxCell id="7oCYW-wZGabHslEQ7wRl-71" style="edgeStyle=orthogonalEdgeStyle;rounded=0;orthogonalLoop=1;jettySize=auto;html=1;fontSize=16;fontColor=#FF9933;strokeColor=#000000;" edge="1" parent="ooqM9sPuauhWhxl2Y_vB-14">
          <mxGeometry relative="1" as="geometry">
            <mxPoint x="440" y="400" as="sourcePoint" />
            <mxPoint x="360" y="400" as="targetPoint" />
            <Array as="points">
              <mxPoint x="440" y="400" />
              <mxPoint x="360" y="400" />
            </Array>
          </mxGeometry>
        </mxCell>
        <mxCell id="7oCYW-wZGabHslEQ7wRl-79" value="Internet gateway" style="swimlane;labelBackgroundColor=none;fontSize=16;align=center;verticalAlign=middle;flipV=1;startSize=40;fillColor=none;strokeColor=none;" vertex="1" parent="ooqM9sPuauhWhxl2Y_vB-14">
          <mxGeometry x="280" y="240" width="80" height="120" as="geometry" />
        </mxCell>
        <mxCell id="7oCYW-wZGabHslEQ7wRl-80" value="" style="shape=image;verticalLabelPosition=bottom;labelBackgroundColor=#ffffff;verticalAlign=top;aspect=fixed;imageAspect=0;image=data:image/png,iVBORw0KGgoAAAANSUhEUgAAADAAAAAwCAYAAABXAvmHAAAJI0lEQVRoBdVZiVdTVxrvf1OSQJ3qdIZa67Q99sy0nSIECIsKjIxVbIfWqoN1X+rYilu16lgXKNpj2UMSIATCGhDZJIAIkU0BEWgQkB3hN+f7MI8EHiEsTmbuOe+89+67y/e797vf8nuv4f+8vPaq5B8eGsdA3yhfI8MvXtU0WBYAPd3DuKNrQ1RkFQ5vKcAXn+qwcXUKFCuT+Ap6R4Vwj0wc22bAzbM1KM3tQP+z0WUBtWgAk5OTuKvvwHfhxfBbmQKFazYC3AqhcM2Bl0QND0k8vFck8uXhEge5RAM/11xu4yvLwoY/qnF6VwkqCp4uCciiAORrWrFDng0SJMDNAA+XeOzZkItb52pQpGtD4/1n6O4Y4lWmle5qH4Sp2gxDeiuiIo3YpdDDwyWRwfhIdYgIyEVJ9pNFAVkQgEemXhwKNcBXpufV3PZnLZKumdDxaGDBk7c29iP20gNsfj8N/m758JHpcOKLO+h4/HxBYzkMQJfQBL+VGl61kLVpSL/dhNGRpR/OoYExJN8wsUqRCm50T4VB+9hhEA4BiD5VBR9ZJnxlmfjhmzL0mkccnsDRhl3tA/g+vJjPkrc0HfFXah3qOi+AS4fKWF28JClIu93g0KBLaZR4tQ5yaSoUrnrEnK2adyi7AKIjjSy8YoUGJTnt8w62XA1y1S3wlKRAIdMj/qr9nZgTQFZSE6uMXKZCae5/T3jLIuSoWiCXpvFVrG+zVM+6iwJoa+6H4k01m8n0Xx1Tm8HnY6gu6YYyyoQfD5Tj0N/zERGYg91+euwLzsXJr4vZzBZq29DZNjhLELGK2Mv34eeag03uGpg7h8SaiHvivUE5bG1O7y4W7WRdWV3ShfN7yxG8JhU+0gz2C/5uBXwYyTRS3ZTZzeMxydF5ShNx4G8F0Ce1YHhw3Hq4Wc+Ht+RzvxPhhlnfqGLWDhRqW1n3gtZo8Lxvbnf/sMaMI1sK4S1N4wk8JUr8wyMDl49UQBffhJrSbrTU96LF1It6oxkF6Y9x64dqHNicB8WbSvi55vG19cMMZCW2iApHld1PBuG/Sg1vqRbG4s5Z7WwATLyYxPZP0vngamMbZzW2VCRdr4O3q4pXe6O7GjFnavCkZdoB0TjtLc9RV2lGbflvaK7rxWD/9EoPD71AVlILdilyeHfosFKcNJd5/vXSfZ4rIlBvEUG42wAoyW7n1d+yLhXj4xNCI+sHWl1fWTZbiX8fuQdyRFR6fxtB8nUT9gTmwvd3ybwzFB/RRark8XoCPv9Yh2vHjWioeSYMqU9uQfAa8sYFUN96KNRbP9D52vi2CuQfHtzrtv5kq0LHtxsYadK1OptG1i9RJ40IcCvC1X/d42o68OciSiF3Tea+tJoUxIWvz8DBzXkgHd7tr8fGt1NYAPK2ckkq9m0y4F7hVCB37UQlq2HyDTvzRhoR6FaEC/tLrcWZBkDb57MiiQXpejK3lbh5tponU/1swsTEJDa4p7Cl8JIl4/uvilGU0QYKr2eWocFxVqfr3xkR8u6Uowp+V83NphbFAGV0/cxuwjupIUW5m1YrMTI0HcIIKnQns41DYTE9E0YBYAGQEmXCyPA4Pn09DgG/V7OeW7ez9/y4oQ/rJYmgPIGKIwAmJ4Gwj9LgI9Xiftm0GgkAKBkh1fjlfI29uQUAyhv1HMxR3B+0RoVJTNrtZ/3R3DkMD5dY7ucoAGp36XA57z4ZEUsRAJDjIRtdnGXf61p2wBrAptUqUArpaKH8gJIcAk7FkR2gdhlxjXzYz/zzrjAVA6Dt2f6JlnWs6cG0hRBaWT04E0DV3S4ObyICswWJGAAl3WQlPCRxnEkJX0UenAmgub4XnhIVwj5KBy06FQYw0DfGyTeZv/mSbWcCoMzPwyUBoe9rMD425adeAhhlAPI3Ev6nAZC3p1w69INUWwBkDjetJhWK5wRcRHOEKmfuwJQvUPF5tVEhevn8rxnwkmiYURCkFXlwJoDKoqd8iPdsmHGISc6jWw0cxFE0aq84EwCltBQzndtTIojIZ4DeYs5MhQg/n7afhzoTwIX9ZRxvpViFHAIAovso8djpmymgE3twFgAK0bd8qOGAsL7SLIgmAKDkxW9VMuRSJToeTcf2QsuXD84CYKoycxQbslaFsdHpUF8AQPKd3HGHY43bF+eOh5wF4MqxCg6n6W5dbABUFnVy8hHyJw1G56DEnQGAnGvAWyoOdYh3tS42AIhx/lKeAX/XfCijxGNzCwBVtImzNvIdSw3miH8ikniufCD6FH0vxMHQXGvZ+dkGANWU5XXwLgT+QQ1z12wqwwKALMGL8Ql2fksGcIpCeXEAlPH5rlAzPU859swyCwA1OLptiso4FlYwsz2HvgpZNkLWqvGllw6eLkpscFeCMi5HS2frANa7xMNLmoQd3plTP0NkeiSKpLIUedLqn/tGnOIRBUDcfuBbak4VE64+sJGLiC4vSSq8JCrmMCm/3anImpMEsOn88oWCx9APNLyqxL5RhOklVaMww9aJ3jh5j9V583tp6O8Vp3hEAdA8RbpWtrlEtOaqpnkbCjsaa3uY6yHTZjI+Q1/PwtlqYtrqjT2gMUg1muttD6f6polVmRaq+m6X2Dpw3ZwA6GvclftMs9AK5aRMg5hztGX6oIoxQS5NZwDaWPvUpl0AJA9R3ER1EwMXd9lWnZZJXmEYsoLRkfQvQgcfWQbs0SyWTvMCoIbxP9UyS0w587dhRXY9tWXghd6JgtwXnA9/1zw+X46Syg4BIGGIdglek84WIWCVmv9vzZe9OQKCOCSiJn3eSOGxP1unA4XNjhaHAdCA9Bvo1M5SJloD3AoQ9I4G0ZHVaJjhHeebfHICfHB/+rYS5G/IB9Bv2B/3ly/YICwIgEWwCsNTHAgpYLUiG02WghKiiwfLoY1tArEHzXXP+O8lpYHEdNCqpv7SgAv7yhD2Fy0HZlN91Ti6tYjZbMv4C7kvCoBlAqLQLx6sQOh76S93pZB/mdLPQLJclIBTDksAqY6SEVptMgifrdPi6nEjTFU9luEWdV8SAMuMFPjVlpuhjHqIsxGlIO+5/WMtsweUgNPuUBp4fm8Z1DENMBl7hKTcMsZi78sCQGxycnhEfVjoD7E2y1H3ygAsh3COjPEf3PBEkGeyotoAAAAASUVORK5CYII=;imageBackground=none;sketch=0;" vertex="1" parent="7oCYW-wZGabHslEQ7wRl-79">
          <mxGeometry width="80" height="80" as="geometry" />
        </mxCell>
        <mxCell id="7oCYW-wZGabHslEQ7wRl-84" style="edgeStyle=orthogonalEdgeStyle;rounded=0;orthogonalLoop=1;jettySize=auto;html=1;exitX=1;exitY=0.5;exitDx=0;exitDy=0;fontSize=16;fontColor=#FF9933;endArrow=classic;endFill=1;strokeColor=#000000;" edge="1" parent="ooqM9sPuauhWhxl2Y_vB-14" source="7oCYW-wZGabHslEQ7wRl-25" target="7oCYW-wZGabHslEQ7wRl-76">
          <mxGeometry relative="1" as="geometry" />
        </mxCell>
        <mxCell id="7oCYW-wZGabHslEQ7wRl-85" style="edgeStyle=orthogonalEdgeStyle;rounded=0;orthogonalLoop=1;jettySize=auto;html=1;exitX=1;exitY=0.5;exitDx=0;exitDy=0;fontSize=16;fontColor=#FF9933;endArrow=classic;endFill=1;strokeColor=#000000;" edge="1" parent="ooqM9sPuauhWhxl2Y_vB-14" source="7oCYW-wZGabHslEQ7wRl-76" target="7oCYW-wZGabHslEQ7wRl-40">
          <mxGeometry relative="1" as="geometry" />
        </mxCell>
        <mxCell id="ooqM9sPuauhWhxl2Y_vB-68" value="Bucket" style="swimlane;labelBackgroundColor=none;sketch=0;fontSize=20;align=center;verticalAlign=middle;startSize=40;swimlaneLine=0;flipV=1;fillColor=none;strokeColor=none;" parent="ooqM9sPuauhWhxl2Y_vB-14" vertex="1">
          <mxGeometry x="320" y="680" width="80" height="120" as="geometry" />
        </mxCell>
        <mxCell id="ooqM9sPuauhWhxl2Y_vB-73" value="" style="shape=image;verticalLabelPosition=bottom;labelBackgroundColor=#ffffff;verticalAlign=top;aspect=fixed;imageAspect=0;image=data:image/png,iVBORw0KGgoAAAANSUhEUgAAADAAAAAwCAYAAABXAvmHAAAJIklEQVRoBdVaB1NUWRaeHyOhcfLMTtJRkKzuGBDXOFiGHcZVR9eaNa667qxC0zSSkUZBCaKg4qgoYkBkERAEUVGUIIKIiOScvq3vMFB00a+7lQZrb9UrHu+ee+79bjjnO+f2B/g/Lx9YcvwDgwPo7utCe3cb2rpa5OnoaUdPX7clu9HT9dYABjGIupYa3KnIwun8Ywi59h/sTPLG344vxorDLvAI+g5ztV/AXfOJPHxfFDwdXpFu2Bi7BHvPbMThG2qcL0rEved5eNNerzegt/3HLAD1rS9x5UEK1Jd2wCvKDTMPToFLiC3cdXZw16ngGm4Lp0AbOPhZYeaBKXD0VcFF/aE8jj62Ij9LYw3nYBu4hquknVukCs5BNnBS22Hd0XkIvLIfWU/S0drV/FYYjAKgwn+eXQ8XzVS4RbBjFRy11lgQ9C22JKxEUPq/kZQXjawnV1FcnY/K109R1/ICje2v0dLZhOaORrxpq8fL5mpU1JeiqCoPGY8vIeF2JPwu7ZJVm6P9XMBzMlxCbTE/6Gv4pm7Hveo7ZgExCOD20xvwPr5QFMpM+dlhR/I6nC2IxZO6h+jq7TRLuTlCnPHi6juIyw7DxrglsFdbyQo5HbLB9qS1ePLyoVE1YwBEXFfLjHDGf9S5IvlODF611hpVYsnKZw1lOJIZgAXB3wgQZ60dLhYlKXahB+Bk7hHZzy7aqXJAe/p6FBtOdAW3X+i1A3AKsIZjgDXyym8Z7HIEQHdvFxYEfgunABuxMAal38PHUzlH5PxtTfAy2PsIAO7reYe+gqO/DUpeFBkUfh8fLxSdkrO4MXapwe5HALDWO8ZD9v/cQ1/Ige3s7TDYaDI+0pLpbmrgpLEVc+t7cYfBbvUA7DmzQcwk9xxt+1/C7RGZ4YcHNXfRN9BrUIElP7Z3tyK3/CY0l3bjh8Av4XZYJb6FFul4VqjBrvQAhF/zgUuYLf6RuAa/xC0fsc8EtCTMHvtSNuFETiRyyjLw/E2FUAaDWk18HBjoFz9R9uoRMkuv4GhmILadXIt5gV/BOdgW7lF2mKWxwu7k9Vh3dL44wKsPfzeoVQ9ASkG8OKvQqwdEuLDqNgLS9mDFYSfM8reWGRl2OA6+VvhzwJfwinTH5vgV4Or5pe5CcPpvoCnWZWihy/AX2hB0ZT98L2wXykE6sTzcEW5+H4Pe2TVsyKPTQ9v7WmHNkbmIyvQXf8NBbIpdKluouLrANAAuH73h5viVesL9A/0or3+M1OIkHErbh1/il8MzdAYcfW0FGGkFB8Ald48cogqcRXl0dqAzZB1lOMOkHM7qqVge4YRfE1cj7NpBXCu5gOeNFXr99vb1YN6hr2HvYyXeXK/yj3/0VoDunkvHGeof7DckP/Ktt78HDW2v8LSuBPmV2bjxKBXnCxOFWsRnR+D4f0Nl38ZnHxZnePFekmyXwqpcVL5+gqaONxgw0QcpiP1BK8wP/EbR++sBIH8hCXPynYrmzsaRwb6vl/s1BXIOf4peqDgEPQCDgwNYEeEi24IHbDyFMQC33ngKD65rhAp7Tm9QVKMHgFL0eDwHt8tuKDYyVcGttEzngNXRs1FQmW1KXLGeppNGI+K6r6LMGACa1F1y6M7kxyo2MlZR01gl/J+0m3x/WYSjMXGjdeqLO2Qs5+7GK8qNAcBDR9S0DO9Syl89FvNIk0jrQSBbE73eaUW3xK+U3ZBbnqk4lDEArpdcFHO3O/lnxUbGKhgXay/vHTKv6g/xQ8CfxIQyGvM+7oHU4mR09pimKLSCS8NnwUFthdetdYpdjgHw8EUh6LoZ5o2n0Ai8aHqOxvYGxGWHY3HYDDmQpCh8j8kKQm1ztWIXNLPi7Pysca4wQVFuDIBXLbVwOGgtM2dJMtfR3Y7zRSewLmaeUAOJ9DR22H9uM/IqMsGVG13K6krEB5AB0FEyOnvZNBbwGAA0fwuDpsHeZwpeNFWN1mmx9+yy69iZ/BNIR3jemBBYFeWO2OwwVDWUSz9FVbnyfVm4I5aEOgjFWRQ2HY9qi/XGMQYAa3+OWSQWhGmPiSz0/BEZatlSNN3ukXYycdtOrhHexG/kVSy+qTuEhniGfI+WUU7WIIB/pWyWKCjt/tmJHP+I7q7eDtwsvYy9KRsxW/uJnBWeQ+6CRSHTEZC2F8duhUieiWyZbHi4GARAFsmljbkVPCw3aX/Jr5iDWhoxZIFI/HjwSQZpyTxDvwfzVMPFIIALhSelwYHzvw7LTfpfbmPGIekPfkf20+s4dzcB6SXnhECOHoxBAPkVWXLyN8UtGy07ae/0E0xJzvKxMUkqDQKoaigTB7IkzGHchOxdUNc0PhMv7hE0DaZSOwYBMDZ113wKRx+VOKJ3GcR42hRW5ch+X3/M06QagwCYgWaoSB7DVOJkl8vFZ8QK7k/ZbLJrgwDYikE2T/+t0nSTSiwtEH0rSMJRxtWmiiKAgLR9YkqTcqNN6bB4Pa0fzSaTWqaKIoDEnCgBwIzCZJdNcUvhHGKLgmemgyFFAJmlaUKrt59aN6nj7+vvw+KQmWIFn78Z4kXGBqAI4HFtsTiS1VFzjbW3eF1DWz14qzPb/zO0dbea1K8IgEEEHckc/8/Bi7rJKqV1D8T6rdLNxuDgoMluFQH09vXCM2SGZMuqGytNKrKUAK+1aP22nVprlkpFAGy9PsZTDtP96rtmKbOE0Om8Y2JCAy7vNUudUQBMabvpVNiZ/FcwUpvo8qj2Hrx0bmJCmac1pxgFwK3jGTZdzOls7adQp+6U7AIzeJYqPGvMi+45u0EsD3OrZKKkM+YUowCo4GVzjcStDn7WsrS0z3O0n0mCl5lo0tz8yiwwiOdlYEtnsxx6xtMMVHhrz/uu2qZq0LIxYcarWf9Lu+EdvRDOaruhDHWkCq7ajxBy9TezshbD4EwCGBZk+BedFQjvYx5inSQE/CPzzHcG30zEumo+FirMhCwf0mLmW3k5Tn7PiIoBPQMmZqpdNR9hy4kVOJV3RH4BMNyfuX/NBjBaIc8DU/GJOTq5Tfl7wo+gv1gY9J2kQph2Z2bD/qA1nHxVEgp6BE+T3P/WE6ugTdsjq0BPy4vw8ZR3AqDUIX/owYtrDophHx/edfGHHxP1gw+LAlACNpHf/wezW5lZSybmugAAAABJRU5ErkJggg==;strokeColor=none;" parent="ooqM9sPuauhWhxl2Y_vB-68" vertex="1">
          <mxGeometry width="80" height="80" as="geometry" />
        </mxCell>
        <mxCell id="7oCYW-wZGabHslEQ7wRl-111" style="edgeStyle=orthogonalEdgeStyle;rounded=0;orthogonalLoop=1;jettySize=auto;html=1;fontSize=16;fontColor=#FF9933;endArrow=classic;endFill=1;strokeColor=#000000;" edge="1" parent="ooqM9sPuauhWhxl2Y_vB-14">
          <mxGeometry relative="1" as="geometry">
            <mxPoint x="400" y="700" as="sourcePoint" />
            <mxPoint x="815" y="560" as="targetPoint" />
            <Array as="points">
              <mxPoint x="700" y="700" />
              <mxPoint x="700" y="560" />
              <mxPoint x="815" y="560" />
            </Array>
          </mxGeometry>
        </mxCell>
        <mxCell id="7oCYW-wZGabHslEQ7wRl-117" style="edgeStyle=orthogonalEdgeStyle;rounded=0;orthogonalLoop=1;jettySize=auto;html=1;exitX=1;exitY=0.5;exitDx=0;exitDy=0;fontSize=16;fontColor=#FF9933;endArrow=none;endFill=0;strokeColor=#000000;" edge="1" parent="ooqM9sPuauhWhxl2Y_vB-14" source="7oCYW-wZGabHslEQ7wRl-80">
          <mxGeometry relative="1" as="geometry">
            <mxPoint x="1202.1052631578948" y="280" as="targetPoint" />
          </mxGeometry>
        </mxCell>
        <mxCell id="7oCYW-wZGabHslEQ7wRl-66" style="edgeStyle=orthogonalEdgeStyle;rounded=0;orthogonalLoop=1;jettySize=auto;html=1;exitX=0;exitY=0.5;exitDx=0;exitDy=0;fontSize=16;fontColor=#FF9933;entryX=0;entryY=0.5;entryDx=0;entryDy=0;" edge="1" parent="1" target="ooqM9sPuauhWhxl2Y_vB-64">
          <mxGeometry relative="1" as="geometry">
            <mxPoint x="960" y="640" as="sourcePoint" />
            <Array as="points">
              <mxPoint x="960" y="1370" />
              <mxPoint x="1610" y="1370" />
              <mxPoint x="1610" y="1220" />
            </Array>
          </mxGeometry>
        </mxCell>
        <mxCell id="7oCYW-wZGabHslEQ7wRl-67" style="edgeStyle=orthogonalEdgeStyle;rounded=0;orthogonalLoop=1;jettySize=auto;html=1;exitX=0;exitY=0.5;exitDx=0;exitDy=0;fontSize=16;fontColor=#FF9933;entryX=0;entryY=0.5;entryDx=0;entryDy=0;" edge="1" parent="1" target="ooqM9sPuauhWhxl2Y_vB-82">
          <mxGeometry relative="1" as="geometry">
            <mxPoint x="960" y="1220" as="sourcePoint" />
          </mxGeometry>
        </mxCell>
        <mxCell id="7oCYW-wZGabHslEQ7wRl-88" style="edgeStyle=orthogonalEdgeStyle;rounded=0;orthogonalLoop=1;jettySize=auto;html=1;exitX=1;exitY=0.5;exitDx=0;exitDy=0;fontSize=16;fontColor=#FF9933;endArrow=none;endFill=0;strokeColor=#000000;" edge="1" parent="1" source="7oCYW-wZGabHslEQ7wRl-40">
          <mxGeometry relative="1" as="geometry">
            <mxPoint x="960" y="639.5" as="targetPoint" />
          </mxGeometry>
        </mxCell>
        <mxCell id="7oCYW-wZGabHslEQ7wRl-91" value="Manegement PC" style="swimlane;labelBackgroundColor=none;fontSize=16;align=center;verticalAlign=middle;flipV=1;startSize=40;fillColor=none;strokeColor=none;" vertex="1" parent="1">
          <mxGeometry x="160" y="720" width="160" height="120" as="geometry" />
        </mxCell>
        <mxCell id="7oCYW-wZGabHslEQ7wRl-90" value="" style="shape=mxgraph.signs.tech.computer;html=1;pointerEvents=1;fillColor=#000000;strokeColor=none;verticalLabelPosition=bottom;verticalAlign=top;align=center;dashed=1;fontSize=16;fontColor=#FF9933;" vertex="1" parent="7oCYW-wZGabHslEQ7wRl-91">
          <mxGeometry x="40" width="80" height="80" as="geometry" />
        </mxCell>
        <mxCell id="7oCYW-wZGabHslEQ7wRl-97" style="edgeStyle=orthogonalEdgeStyle;rounded=0;orthogonalLoop=1;jettySize=auto;html=1;exitX=0;exitY=0.5;exitDx=0;exitDy=0;entryX=0.5;entryY=1;entryDx=0;entryDy=0;fontSize=16;fontColor=#FF9933;endArrow=classic;endFill=1;strokeColor=#000000;" edge="1" parent="1" source="ooqM9sPuauhWhxl2Y_vB-70" target="7oCYW-wZGabHslEQ7wRl-91">
          <mxGeometry relative="1" as="geometry" />
        </mxCell>
        <mxCell id="7oCYW-wZGabHslEQ7wRl-99" value="Client App" style="swimlane;labelBackgroundColor=none;fontSize=16;align=center;verticalAlign=middle;flipV=1;startSize=40;fillColor=none;strokeColor=none;" vertex="1" parent="1">
          <mxGeometry x="200" y="600" width="80" height="120" as="geometry" />
        </mxCell>
        <mxCell id="7oCYW-wZGabHslEQ7wRl-103" value="" style="shape=image;html=1;verticalAlign=top;verticalLabelPosition=bottom;labelBackgroundColor=#ffffff;imageAspect=0;aspect=fixed;image=https://cdn4.iconfinder.com/data/icons/ionicons/512/icon-iphone-128.png;dashed=1;fontSize=16;fontColor=#FF9933;strokeColor=#FF9933;strokeWidth=3;" vertex="1" parent="7oCYW-wZGabHslEQ7wRl-99">
          <mxGeometry width="80" height="80" as="geometry" />
        </mxCell>
        <mxCell id="7oCYW-wZGabHslEQ7wRl-105" style="edgeStyle=orthogonalEdgeStyle;rounded=0;orthogonalLoop=1;jettySize=auto;html=1;exitX=1;exitY=0.5;exitDx=0;exitDy=0;entryX=-0.036;entryY=0.676;entryDx=0;entryDy=0;entryPerimeter=0;fontSize=16;fontColor=#FF9933;endArrow=classic;endFill=1;strokeColor=#000000;" edge="1" parent="1" source="7oCYW-wZGabHslEQ7wRl-103" target="7oCYW-wZGabHslEQ7wRl-33">
          <mxGeometry relative="1" as="geometry" />
        </mxCell>
        <mxCell id="7oCYW-wZGabHslEQ7wRl-107" style="edgeStyle=orthogonalEdgeStyle;rounded=0;orthogonalLoop=1;jettySize=auto;html=1;fontSize=16;fontColor=#FF9933;endArrow=classic;endFill=1;strokeColor=#000000;" edge="1" parent="1">
          <mxGeometry relative="1" as="geometry">
            <mxPoint x="800" y="1050" as="targetPoint" />
            <mxPoint x="960" y="1050" as="sourcePoint" />
            <Array as="points">
              <mxPoint x="960" y="1050" />
              <mxPoint x="800" y="1050" />
            </Array>
          </mxGeometry>
        </mxCell>
        <mxCell id="ooqM9sPuauhWhxl2Y_vB-66" value="S3" style="swimlane;labelBackgroundColor=none;sketch=0;fontSize=20;align=center;verticalAlign=middle;startSize=40;swimlaneLine=0;flipV=1;fillColor=none;strokeColor=none;" parent="1" vertex="1">
          <mxGeometry x="720" y="1000" width="80" height="120" as="geometry" />
        </mxCell>
        <mxCell id="ooqM9sPuauhWhxl2Y_vB-72" value="" style="shape=image;verticalLabelPosition=bottom;labelBackgroundColor=#ffffff;verticalAlign=top;aspect=fixed;imageAspect=0;image=data:image/png,iVBORw0KGgoAAAANSUhEUgAAAFAAAABQCAYAAACOEfKtAAAYl0lEQVR4Ae2cd1iU17bGv/9uzk1ipXcYegfpRboIUkTF3pJ4jKKiYkFARXrvVSn2gi3G3mPXGKMxlsQee++9JO991h5mYAYGvhkwJ/ck8zybYSyw+LH22mu9a+3h/LKN4Z9tAv8cEwTkmKBHrilbgXmmCMwzQ8/8hhVUYI5gWoXm6FVogV5FFgihVWyJ0PoVVmKJsBIrhJcKV+8ya9CKKBeuPhU2oNWXVqUt+tGaa4vIuXaInGeH/rSq7DCgyh4Dqu0xkK1uGFQjXINru2FwrQOGzBeuoQscQWvYQuEavtAJwxc5YQStxc4YSWuJM75Y4oIvl9avZS74apkrW6OWu2LUcjf8e4Vwja5zw+g6d3y90h1j2PLAmFUeGEtrtSeiVnti3BrhGr+2Ozi/LGPIgtiDQTRFoAyIwRIQLZpADKuHGF5mxROibVOIVSKI9rIhzncQQqwH2SzExQRREqQkRNcGiCvqIYpBNkCMWu3BIEbVQ+R8CSAfiI28sbEniiAybyxWFKJNI0/860GU9kQRRPJEBlBRiAxkIW1p4Xb+O0EcW++JnE+mEcQA+XiizO1s3igmyvbE3v9F25liIgMogigGKeNg+Scmig6XhpjIeWcYgQCKILJ4yMcT/4mJ7HTmvDMMIQ2RtydKQfw7xkTOK50ANoXI2xP/5jGRAZQFkbcnyoQoPJ2Fybbsg+X/bZ640h1c9zRDEEBZEHl7otR2FlUsLac4VLVYIrTEAqEl5vXLDKElZggtNUdYqTnCy8zRu9wCERVW6FNpLa5aJCqW/2CyzXVPE6A1iLw9UQpiQ0w0R88CUwTkCeCTowuvbC14ZWvCN1cHAfkG6FVshogyG/Sf64hB81wxtNodQ2s82BpS7YZBVU6InGuPiHJL9Co1RnCxAIHF+ggq1kdImREiKswROc8GA6rtMLC6hbKvvSuWOjdwnqkEUACvdvJEUe0ckGsEryxduKerwytLGyFFlhhZ64/4NV+geOdsrPxhHnb98i1OXD2EC3dP49bjq3j44h6ev36CV29f4PW7l+z5+ZunePTiHm49uYqL987g5PXD2HNuA9Yer0HF3mQkbRyNqOXBGFjtgNAyI/QqNUB4hSn6V9mw0q9J7dzOEBlAEcS2eqJ/jhHc0zXhlqaOXoVWiF4aico9Gdh3fituPv4NfB7vf3+Ht+/f4M371+yZXvN53H5yFYcvb8fCI7mIXzcUQ2qdEFJmiPAKYwyotpUUINoRIueRagACKIIoryeSguOdqQ/nFBUE5pohduVIbPxpBW4/ud7k53788gFO3zyGbafXYNGhYuRvj8fsdaMRUzcQUUtC8dWCHhhR642h1Z4YWu2BYTXd8cV8H4xeHIgJy3tj+uohSN44BsW7Z2LZ0VLs/GUtzt4+jsevHjT5Xnef3cCOX9YgdcsYDK5xQEi5ASKrrBtUnHaB6AbOI8UA0hD5eCJJYN6ZAjgmKSO82AGV32Xi6sNLEj/ItYeXsflkHbK2TMPXi8IQUWoPv1wDdM/UgkemBryytOCTowP/XH0E5AsQWGCEoEJjBBeZsNWr2BTCZYLgYiMEFRkisNAAPQr1EFCoi55FBggrM8WQGlfErOqL4t3x2HF2NW4+viJhB71e8n0BRi3xQmi5AANr7DB0viOGtgNEzp0ANgOxJU/0yzKBa4omvDIMULozBY9e3BcbfO3hJSw6WIKoRREgTZG2s1u6OryzdBGQZ4SgfDOmJzJNUawnyk5xWq6dSVO0Qe8KS4SWmiCo2ABBJfpMU4xdOxArj1XgxuPLYtuevHqIhUdy2JbuM8+sHmK9nqigFMa5J+tDFsTmPNE30xhOc1TRv8wDJ6/9IDbu2JUDiFv9bybKOiWrwCNdGxQTCaLoYKHn5qSw9s4T+861Rli5MYM5oMoOGVvH4+T1Q2Jbf71zAuNXBCNirkmbPZFzI4AtQJT0RCO4JGshsswT957dZgZdfXAJsSu/gluqJpyT1eCbZSihbIsFCKkUh1+eaAV+oqxsPbHfXBv0KhUgvMIE6VvGiT3y4Yu7mFDXC/2qLFhcVGg7L3MB55akDxFEtpWb2c4iT+yeZgDXFC0cvbSPwdt/bjsCss3QLVGZgWOtgWbaA7IgNuSJworlY+qJ/atsWYozuMYR31/Zxez/+cYR9KuywqBae4Uhcq4EkAdE8kS3FF0E59nh9duXeP/hHYLyrOE4RxUUE3lXLDLLvo+vJ1KSHVpuhOEL3Jj9lCqNWuKN/tU2ip3OS13Auc7RA1+IHqn68M4wBm3bP/74A7PXjINl/OfwyhAwUZZ3xSITotAT2zsmUtlHsTByni38CzWRuyOG2X/ryW8YUuvYhjzRBZwLAWwGYnMHi2eaARwT1XHk0h62Bd68e4209VPhmKQGhzkq8M4Q8PfEPy0m2qHvXBsElwhYYl28OwFv3r9i9v90/SB6V5phUI09FKpYljiDc0nUgyyITWJimgC2M7vim2NLmAGiD99f2otJS4fAM00P9olKLE76ZApa7/ZJQWzPmEjiQ0iJMXoU6iKi3AKz13+F49cOiExmz9vOrkRImaBN3T7OOVEX8kC0TuiMsp0ZzIBfbv2Mqw8uio06d/s0S6i/rAmGb6YRHJNU2HJP1YJ3pgH8so0QkFvfe261ZcovJpIUFlZqiZASM/QsMkRAgS4CCvTQp8IKk+r6YOHhfFy6d0ZsIyXVl++fZa8XHclnB0tbBAgGUB6ItjOVkLAqihmw4/S3cE/RQ/muDNx4JFnr/nb/AjacWIGsTbH4ekFv9C5yYBBdU9XhnKLKFiXZHula6J6pA+8sPfhmG8A/1xABtPIM0SPPiC36nJQc/zwD+ObqMhXHO4eqGC345+sxeEOq3BGzsj+Kd83EtjOrcO1hwy+WjL399DoWHylgktjBi1uZ/TnbJ7NtLWzeK9Z35pxm64IAtgZRFBPtZ6liVE1vZsClu+fgkqQFq4RO8M00wfS6L7Hp5CrceXqT/X3jDy/ePMO526ew99fNWPH9PJTuTEbStxMwrW4Yohb3wVe1QRhW5YOBlR7oX+GG/uUuGFDphsFzPTGixg+jFwYjenk/xK0ZifRNk1C5Jw2rf6zGgQtbmZrz4u2zxt+OfX7/+S3s+uUbpG4ah/7zusG/QJtpi6LqZPragQgrN2FTEIpCZABFEF14bGenRE2EF7rg/e/v8fzNMwTl2rL0xiNVD91mq8B+tjICsi0wdmEflOxIwa4zG3Dl/nm8//C+yQ8o/Qd//PE73n14y5SY1+9esWd6TX/e2oPsIa/bd34zavZnYfrqwUxfpLo5sFAfvcstGbyRC7zw5t0r9n1GLfZDRKWFcIxEQVGWc5ylAwLIF6JLkg68041x+8kN9jMNqfCH0xwNCT3RI00PTknq7EChPJE6fpGl7hi/OBIp6yehem8e1h1fjP3nt+Pn6z/g8r1fmXrz6OV99kt59e4lCCA9k+eSikPqzpX755iac+jiDmw8uQwLDxYiZ+s0TFs1BCNrfRFeaomAfD345ekgsFDAFO3Gszi9SowxeWU/Zjfpi+SVVPaJZ3EUgMgAygPRLUkPDrM18NPVo8yQSUuGwW6WMhNlRRWLdHvAK90AHmm6cEnRgFOSKhySlOGUrArXVA10T9eBf44xgvMtEVZkh4gSR/Qtc0ZkuQv6lTmjb5kTIkq7IazYGkEFZvDPbaRqZ2nCJ0cb/nn66FlojJAScwYxXMZAE6k3aZvHMbtJmCUBggabFG4PLHQE5zBTBwRQGmJLMdE6vgs2n1zDDMncGAfrhC4K6Yk01CRchvDLNoRvlgC+2cLlly2AX45AeKjkkShhjJ4FJgyiWMmRcxaHTujq/cIMgg6ansX6iKTJMOmpMDk8kXOYqQ1ZEGXFRPMZHVG9p4ABXHSgDFbxnSVEWVmeKGret1SxkEBLqrZLqio7nUVKDuWIbc0TCeCGk8IcltIbyhGFo3UKQlzgCK5bAgGUD6JlXGckfTOZAdx5ZgNsE5SaiLKSKg6/vrN/thG8MvUwc81o1OzLRfTSAfDK1BHLYQxg/Xyi2AvZfGLreiLpij0LBfjht73M7qytkxFYZNDmqTAGUF6I1vFKGDu/PzPkzI0TcJqjBbdkvSYQ5fVEt1QNVO/LY1+XPtDpm/hNFPPIxp4oLYXxqZ0p2SaIVx9eYF9/6qqBCC42lBrylN8TOfsELRDA1iA2jon2M1XRt8iTFeQPnt+Db4YZXOboyK1si7dyljFTt0MKbPHs9RMxQPrk7M3jcElRhXu6BnrkmTBFW9IT+Ulh1BqgPgud7KQkfbHAF6GlZvWTsrL1RDYp20JM5OzjtcAXoigmOszShE+6GR69eMAg9ilyh8NsdSHAFvRE6dO5cUyk9kDPPAs8eHFXAiC9OHxxN6bWDYNPlj5rEVDLVF6IPQsNWWOKvt7tp9fQt8IO4WWWjcaNFYPI2RFAOSE6zdYBQTx78yT7Yb+u7QubBCWmbDcRIOToO7ukqCNj4zS8+yBsZT5++RBPXz0SAz157ShS1kezmOiapgq/XEPxzHZrMdEvTw9J68ewr/XT9cOsbu5dbsUANj+zzW87c3ZxWpAXIm1nyxldsPvMZmbQ7DXRoIOFr7Ldkie6pWiCxIhZa8cisswNfUqcMP9AIR48b/DMqw8vonx3GvqVO7OGlU+2LktvJAffJQ8W7xxtVv6RwZtPrYBLRhfmgRHlwqF3RSFytnGaUASi6bQOWHygkgGs3J0Ls9iOEsq2qHaWbpnyOZ3dU7VZf6V7hj68MvTglKyM0CI7FO2Yw6oR9k0BPH31GGt/XIAxi8JY188zUwOB+cbNTsqS+LDuxEL2X+8/v42CHXEILDRkrdI+TSDy3c7dwNnO0IQiEAlg5oY4ZtCG43WwmNGZt7It7+lMVzBIDnNOVmFyWOK6sTh2Zb+II3s+enkvUjdEI6zEBh4Z6vDN0UNwoRm7ghFSbAG/XD0cubxb8v9c+Q4j5/vAP580Q2lP5AeRsyGACkA0n94Z0YuGMoN+vHIItgkqcJmjyxsiH09kfRapcWPSFEkS656hg3GL+2LjT8tZvSwic/fpTdQdnYuoxeHwzxOAvNIvV5/BvPLgHPtnq4/V4P7zO+xzmruZumqwUENsArHxPZZmYmK1PTibWA0oAtFqhjIGlPgxI248ugb3JAEcZ2s12x6QdbAo4omiy0D0TFqia6oaIstdUbY7BefvnBZxZM+nbhxD+XcpGF7tjT5l9gw0qTuhxRboV+GAo1eESfXLt88RtTQUQUVG7EJQYwFC8jJQU4icNQFUAKJtvBr80q3w8s0LJg0FZXeDfYK6zPZAW2Jic54oulFFLVOfLAMGktKbmBWDsfnnOjx5+VAM8/c/fmdwqRF279ktDJ7nDvcMFbhlKGPLqZXs3x2+tBM9CvRZsk23qiQhyt7ODKAiEO0TNOEwSxuX7p5nBgyrDIZVnJJc7QHRQFNbPJGBrL+WRu0CzwwtNlLXt8wRGZtisP/8VpY8i2kCDO6pG0ex9dQqHPtN2OO+ePc0ehYasStqzV9Lax4iZzVdAwRQfojaMJ/eBQfPCwPz1GWjYD69E0TJNu9GlRx5Ymue2HiMxD/HEB4ZGvDK1EbvEjumHxJEmjuUFmjpz9I2RaNHvtAD+d3tE25nzmq6OhSFaDTlc6w8soD9cvO3JMN46uf1rQH5GlXt64mSd/t6FpjBKaULlh0pZ3YuPlSMyAonzPrm38jbFoesLVMwamEgm5QVXZCUZ2abs5xGABWDaBjzKfI3JzPD6o7Mh8nUDmJlu3HtzLfv3J6Tsg03TU2ZLHbo4k5mZ9rGiXBOU4J3tg4bNabxuh75hmxWm26ZyjuLwwAqCtFoSgdMWTqKGXbg3C62pUXCrBDgf9gT88yYAEEiBLUN6DFxeX/4ZOuxZLs9ZnE4i6lqIICKQDSd2hlDyoKYYRfvnmO6YrcETbl6LLJSHEXzxManM8VEvxxD9Cl1ZCnMh9/fY8g8L9YWaK12Fnliy/OJtmAAFYVoGauMHhn2rPh/8eY5fNIsQemNyAv5NqpkQWyP09k7Uxej5gezX/KdpzcQUmTN2gMEUHQFg4+eKOtg4cynqMF8qhoUgWgzg2Dp4eaja8zAfkU+sIxVkrvHwn8+kZ+yLUq2yRupPRC3+ktmH6k5tH1JnJUWZRXdzpz5FFUoCpFqaPNpXXHssnD6M2r+YJhM7Sh3j6U9VBxZKY5LihqKticygNtOrWHCrGhStq09Fkq2OTMGUAiRvFAeTySAgsmf49sf65iBqetiYRjzmdw9Fr7ziSSDyZLCGMBmbpnSGMnKo9XMvvn7C+CaptYuPRZRss2ZxahCCFGNeaK8EPWi/4Wy7TlCA/eWQTDp01bbA4om2/LHRGNQn4Ua+PRI2zgZbmkkeTX/RhqKxETOlACKIcq/nfUnfor4FeOZgdt/3gCjmI7iFkFL3b4/I0/0zaLb+Ia4cFc4nTVhaX94pmuxwfeGPLH5wXe+MZEznayCtkA0nNwBIyuFw0anr5+AVawq7OI1eTWqPrYnUp8lrNAez14/xYffP2BQpRe7FNReM9t0MnMmBFAGRD7b2XRKVwRlObPm0sPn9+GaaMQgytuo+hi1s0eaNkZU9WC74+7TWwjKt4RvtqHwvXHaaT6RM5mkguYh8ouJFtNU4DzLENTeJLmoV7YLzKcpyd2okmfIk2/t7JysjqkrRjCANMTUPUMX/tnG4jcXEnuigjGRamfOeJIyjGVCbD0mWk2nPFIZp66dYIbSdjaa3FGhRlVLEBXREx3mKCNv60xm19ZTa1mfRfodmsQQpcaN+eaJnNFEAqg4RBIi9Cd+hm0n1zND4+vGgw4WRRpV7R0TuyUqYdmRucyu2v0FIKDNvc2VLIh88kQGUARR9nZuOU/UHv8Jqr8rYYaWbs+G7oRPFGpUtUWAaK52dpyjhj2/bmF2pa6fDKckldYH32Vu5+ZntjmjaGUQwNYhyo6JBDBlbSwzdN2xOqiO4WAzQ+NPhyjKE73TDUFDng6Jqjh/pz6FWTIALska/N7mSiZE4RhJ49qZM4xWgjREeWOi/sTPMaQ0hAF88vIxxlQPAkEVTPocVrFqCm1nRfNEGnq3m6XExo3zt8wG9UNopDe8yBEe6brtfI/FEgxgWyFSuiOY1BFrvl/KINKHTSfWYnh5GKxj1aEbTTA/Y6ezzQx1dkLzGWhqLSaSCOGapAvHRA3YJHRlg550k2raii9w9FJD37hw2xx2Ja3xLI6s2rmhxyL59n8UD6VjInkiJ5igBEG0EpqDKE9MNI1RgvHkLijZls2u6otIXrxzDov2VWLCguEIzHCAbZwGjGI6wGDS/0Iw+TMYT+kAs2mdYRGrBOsZKrCJo0RcHXYJjZcabOJVYB2nBMu4LrCY0QkWMzrCJkEZHikC9Cv2RMLqKHxzbCluPRYqQ/T9Hz6/h5R1k+GQqMJqaAIogiirdpbWE2WXfcKYyBlM6ArFIErGRKtpGjCbogztcf+DnpnOqP2uDDcfSV77p+108c6v2Hl6E2r3lIDEh+iFIzCiMgyRRb4IyXVBYKY9/NOtWcvUP8MG1C4Nz3fDwFJ/jKqOwNRlXyJ740wsOViJfb9uZ/f2RL8s0fOV+xdQsSuTXYy0ndUV3dMF7N2ZFH6HJhkxkWZxOIPxXdEaRHljouGkjtAe9wm6xevhq7n9MG9XIY5ePIjHLxsmrUQ/rPQzNb7ZhP5b4aQ+vW7tQVNcP1w+gKo9+fi6tg8bN6YbVXSHRaTgyKviNPFEGXkip08AG0GkrdzcdpYXIuWH5JH60Z9BZ/wnMInpDLdEE0QW+iNmySgUbUnDisMLsOfsNpy8egyX713A3ae38eTVY7ysh0dNexoguvfsDq7ev4RT14+Dei9rf1iKip3ZiF8ZheGVwfDPtARdAKIJMbuZKnBL1m23me2WYiIl25z+uC6QhtgeMVG6x0JAqWIxiukEg4mfQTf6XzCY+CmMYzrCYroSEx9cEw3RPdmMtQZ806zhm2YJ71RzeCYbwyVRn8VFqxldYR7bCabTO7CBJprJcUzUgmuSXpvnE3kdLFLbWQiwXSBKxkS+jSoSZelgodPZeoZa/VJlh4lNnBps6UCJV0e3mcJJCBrubC3F+Zg9FmpUNT5YOL2oLmBeKAdERbazos17WVcwWoOoSO3ceGa71TfmrY+JnG5UF7QEsT1jYntDbC1P/NieSL0VTjeqM1qD+DFiovyzOM3fqFIUYnO1s/x5ohk4nbEE8GNAVCwm/hVUHFGyLd7SUkOeohSH4iEDyCAykC1vZ1me+HeOiZz2mE4ggHwh/hMTJd82nwGUgPhRtnPLeqJi84l/jZjIaX3dCQxgY0/8KBD/O2MiAyiCKOGJ/8REXu9uzGmO7ggCqCjEv3JMVDTZFinbsgSIxqfz/wGcZrSy/qrmFQAAAABJRU5ErkJggg==;strokeColor=none;" parent="ooqM9sPuauhWhxl2Y_vB-66" vertex="1">
          <mxGeometry width="80" height="80" as="geometry" />
        </mxCell>
        <mxCell id="7oCYW-wZGabHslEQ7wRl-113" style="edgeStyle=orthogonalEdgeStyle;rounded=0;orthogonalLoop=1;jettySize=auto;html=1;exitX=0;exitY=0.5;exitDx=0;exitDy=0;entryX=0;entryY=0.5;entryDx=0;entryDy=0;fontSize=16;fontColor=#FF9933;endArrow=classic;endFill=1;strokeColor=#000000;" edge="1" parent="1" source="ooqM9sPuauhWhxl2Y_vB-72" target="ooqM9sPuauhWhxl2Y_vB-73">
          <mxGeometry relative="1" as="geometry">
            <Array as="points">
              <mxPoint x="640" y="1040" />
              <mxPoint x="640" y="1200" />
            </Array>
          </mxGeometry>
        </mxCell>
        <mxCell id="7oCYW-wZGabHslEQ7wRl-114" style="edgeStyle=orthogonalEdgeStyle;rounded=0;orthogonalLoop=1;jettySize=auto;html=1;exitX=0.75;exitY=0;exitDx=0;exitDy=0;fontSize=16;fontColor=#FF9933;endArrow=classic;endFill=1;strokeColor=#000000;entryX=0.75;entryY=0;entryDx=0;entryDy=0;" edge="1" parent="1" target="ooqM9sPuauhWhxl2Y_vB-65">
          <mxGeometry relative="1" as="geometry">
            <mxPoint x="1970.3333333333335" y="1060" as="sourcePoint" />
          </mxGeometry>
        </mxCell>
        <mxCell id="7oCYW-wZGabHslEQ7wRl-119" style="edgeStyle=orthogonalEdgeStyle;rounded=0;orthogonalLoop=1;jettySize=auto;html=1;exitX=0;exitY=0.5;exitDx=0;exitDy=0;fontSize=16;fontColor=#FF9933;endArrow=classic;endFill=1;strokeColor=#000000;entryX=0;entryY=0.5;entryDx=0;entryDy=0;" edge="1" parent="1" target="7oCYW-wZGabHslEQ7wRl-80">
          <mxGeometry relative="1" as="geometry">
            <mxPoint x="320" y="760" as="sourcePoint" />
          </mxGeometry>
        </mxCell>
        <mxCell id="7oCYW-wZGabHslEQ7wRl-120" style="edgeStyle=orthogonalEdgeStyle;rounded=0;orthogonalLoop=1;jettySize=auto;html=1;exitX=-0.003;exitY=0.838;exitDx=0;exitDy=0;fontSize=16;fontColor=#FF9933;endArrow=classic;endFill=1;strokeColor=#000000;exitPerimeter=0;" edge="1" parent="1" source="7oCYW-wZGabHslEQ7wRl-17">
          <mxGeometry relative="1" as="geometry">
            <mxPoint x="800" y="1015" as="targetPoint" />
            <Array as="points">
              <mxPoint x="800" y="1015" />
            </Array>
          </mxGeometry>
        </mxCell>
      </root>
    </mxGraphModel>
  </diagram>
</mxfile>
